<?xml version="1.0" encoding="UTF-8"?>
<svg version="1.1" xmlns="http://www.w3.org/2000/svg" width="410" height="80">
<path d="M0 0 C135.3 0 270.6 0 410 0 C410 26.4 410 52.8 410 80 C274.7 80 139.4 80 0 80 C0 53.6 0 27.2 0 0 Z " fill="#FCFCFC" transform="translate(0,0)"/>
<path d="M0 0 C3.63 0 7.26 0 11 0 C11 16.17 11 32.34 11 49 C7.7 49 4.4 49 1 49 C0.67 48.01 0.34 47.02 0 46 C-0.61875 46.495 -1.2375 46.99 -1.875 47.5 C-6.31641153 49.63187753 -10.16205128 49.92079523 -15 49 C-19.19607409 46.79647506 -21.5037836 43.81635602 -23.9375 39.8125 C-25.65097316 33.66415514 -26.1319332 27.19528803 -23.8125 21.125 C-21.55901121 17.2396745 -19.07651241 14.0382562 -15 12 C-13.046875 11.796875 -13.046875 11.796875 -10.75 11.75 C-10.00234375 11.72421875 -9.2546875 11.6984375 -8.484375 11.671875 C-6 12 -6 12 0 15 C0 10.05 0 5.1 0 0 Z " fill="#1E344B" transform="translate(130,11)"/>
<path d="M0 0 C4.44322055 2.63009991 8.21322177 6.0756734 10 11 C10.79152669 18.03241023 11.62174477 25.87085948 7.3125 31.875 C3.37071629 36.03679024 0.07666928 37.06371312 -5.5625 37.3125 C-9.82920797 37.40863034 -10.18879435 36.85840424 -14 34 C-14.33 38.95 -14.66 43.9 -15 49 C-18.3 49 -21.6 49 -25 49 C-25 33.16 -25 17.32 -25 1 C-22.03 1 -19.06 1 -16 1 C-16 1.99 -16 2.98 -16 4 C-15.401875 3.34 -14.80375 2.68 -14.1875 2 C-9.51104535 -0.93424606 -5.37351472 -1.13324123 0 0 Z " fill="#1B3148" transform="translate(209,23)"/>
<path d="M0 0 C1.30453125 -0.03738281 2.6090625 -0.07476563 3.953125 -0.11328125 C8.32518095 0.37700074 10.37769334 1.54381628 13.75 4.3125 C16.17170679 7.94506018 16.0544503 9.83828695 16.1640625 14.16796875 C16.18342865 14.82960526 16.2027948 15.49124176 16.2227478 16.17292786 C16.28242687 18.28182164 16.32888087 20.39077037 16.375 22.5 C16.41319066 23.93166415 16.45224303 25.36330559 16.4921875 26.79492188 C16.58811773 30.30057312 16.67219197 33.80639445 16.75 37.3125 C13.45 37.3125 10.15 37.3125 6.75 37.3125 C6.42 36.3225 6.09 35.3325 5.75 34.3125 C5.04875 34.79847656 4.3475 35.28445312 3.625 35.78515625 C-1.14468869 38.31905337 -5.97964698 37.99042923 -11.25 37.3125 C-14.32365786 35.50446596 -15.68019732 34.45210536 -17.25 31.3125 C-17.92868967 27.45630869 -18.21512274 23.88247706 -16.109375 20.45703125 C-11.0463978 15.4800755 -5.02410915 15.10551983 1.75 14.3125 C3.0894705 14.00475389 4.42627039 13.68213333 5.75 13.3125 C5.09 11.6625 4.43 10.0125 3.75 8.3125 C-0.27081918 8.03331061 -0.27081918 8.03331061 -4.25 8.3125 C-4.9615625 9.3025 -4.9615625 9.3025 -5.6875 10.3125 C-6.203125 10.9725 -6.71875 11.6325 -7.25 12.3125 C-10.27376416 12.68231288 -13.21792486 12.54133586 -16.25 12.3125 C-16.11210108 9.34767326 -15.96055664 7.10015516 -13.91796875 4.8359375 C-9.02444858 0.76395721 -6.30304871 0.11740973 0 0 Z " fill="#1D334A" transform="translate(85.25,22.6875)"/>
<path d="M0 0 C1.27488281 -0.0515625 2.54976562 -0.103125 3.86328125 -0.15625 C8.03123516 0.55898622 10.29303677 1.31516903 13.3371582 4.21777344 C16.41349353 9.41711942 15.67479035 15.99428238 15.625 21.875 C15.63812064 23.29300146 15.65436636 24.71097765 15.67382812 26.12890625 C15.71451497 29.5863848 15.7125834 33.04230104 15.6875 36.5 C12.3875 36.5 9.0875 36.5 5.6875 36.5 C5.6875 35.84 5.6875 35.18 5.6875 34.5 C4.759375 34.995 3.83125 35.49 2.875 36 C-2.04721622 38.07515022 -7.06904852 38.52765176 -12.3125 37.5 C-15.24325087 35.39834313 -16.70759486 32.70981028 -18.3125 29.5 C-18.70161829 25.99793543 -18.63393985 24.06273752 -16.87109375 20.9765625 C-13.320512 17.5398162 -9.78455494 16.81267715 -5.0625 15.6875 C-4.22203125 15.47158203 -3.3815625 15.25566406 -2.515625 15.03320312 C-0.45207621 14.50559122 1.61721595 14.00053164 3.6875 13.5 C4.0175 11.85 4.3475 10.2 4.6875 8.5 C1.65558711 8.27117639 -1.28893652 8.12954538 -4.3125 8.5 C-4.8075 9.16 -5.3025 9.82 -5.8125 10.5 C-6.3075 11.16 -6.8025 11.82 -7.3125 12.5 C-10.33606348 12.87045462 -13.28058711 12.72882361 -16.3125 12.5 C-16.625 10.3125 -16.625 10.3125 -16.3125 7.5 C-11.36866069 1.5948586 -7.60509221 0.18343941 0 0 Z " fill="#1B3148" transform="translate(163.3125,22.5)"/>
<path d="M0 0 C1.03769531 -0.02578125 2.07539063 -0.0515625 3.14453125 -0.078125 C7.53693492 0.39551031 10.10871943 2.17121943 13.1875 5.25 C13.41455078 7.77197266 13.41455078 7.77197266 13.3828125 10.9140625 C13.37636719 12.03554688 13.36992187 13.15703125 13.36328125 14.3125 C13.34652344 15.488125 13.32976562 16.66375 13.3125 17.875 C13.30347656 19.05835937 13.29445313 20.24171875 13.28515625 21.4609375 C13.26152812 24.39082523 13.22858514 27.3203134 13.1875 30.25 C14.5075 30.58 15.8275 30.91 17.1875 31.25 C17.1875 32.24 17.1875 33.23 17.1875 34.25 C15.2075 34.25 13.2275 34.25 11.1875 34.25 C10.8575 33.26 10.5275 32.27 10.1875 31.25 C9.57003906 31.62253906 8.95257813 31.99507812 8.31640625 32.37890625 C3.14775193 35.26611498 -0.87506586 37.15557249 -6.828125 36.015625 C-10.49269392 34.6017362 -11.92161471 32.60479648 -13.8125 29.25 C-14.61152008 26.10309013 -14.40043395 24.61725806 -13.8125 21.25 C-10.19909225 16.50094981 -6.94549627 15.91348774 -1.125 15.0625 C-0.00738281 14.94519531 1.11023438 14.82789063 2.26171875 14.70703125 C5.37057195 14.431024 5.37057195 14.431024 8.1875 12.25 C8.6875 9.75 8.6875 9.75 8.1875 7.25 C4.93667327 5.08278218 3.89517847 4.97778982 0.125 5 C-0.75285156 4.99484375 -1.63070313 4.9896875 -2.53515625 4.984375 C-5.01052328 5.03440648 -5.01052328 5.03440648 -6.8125 7.25 C-7.46017793 9.82061311 -7.46017793 9.82061311 -7.8125 12.25 C-9.1325 12.25 -10.4525 12.25 -11.8125 12.25 C-12.16921933 8.41526716 -12.11021416 6.69657125 -9.9375 3.4375 C-6.64893617 0.05221371 -4.61984087 0.06835769 0 0 Z " fill="#1F354C" transform="translate(330.8125,24.75)"/>
<path d="M0 0 C5.35201635 1.98222828 7.63699102 4.34571935 10.1875 9.3125 C11 12 11 12 11 19 C2.75 19 -5.5 19 -14 19 C-11.75863873 26.65516421 -11.75863873 26.65516421 -8 30 C-5.82504919 30.47307456 -5.82504919 30.47307456 -3.5 30.375 C-2.7265625 30.38273437 -1.953125 30.39046875 -1.15625 30.3984375 C1.49668004 29.90822217 2.32272218 29.06780818 4 27 C4.474375 26.278125 4.94875 25.55625 5.4375 24.8125 C5.953125 24.214375 6.46875 23.61625 7 23 C8.32 23 9.64 23 11 23 C10.15630537 26.98837462 9.58581409 29.42960207 6.625 32.3125 C5.75875 32.869375 4.8925 33.42625 4 34 C3.38125 34.4125 2.7625 34.825 2.125 35.25 C-2.22339989 36.78472937 -5.92201799 36.40160114 -10.1875 34.8125 C-14.88406484 31.78582488 -17.23463508 28.22819611 -19 23 C-19.63676679 17.49863114 -19.76297968 12.61399548 -17.375 7.5625 C-11.77778056 1.52339482 -8.31440171 -1.37083326 0 0 Z " fill="#1D334A" transform="translate(302,25)"/>
<path d="M0 0 C3.3 0 6.6 0 10 0 C10 3.63 10 7.26 10 11 C12.31 11 14.62 11 17 11 C17 13.31 17 15.62 17 18 C14.69 18 12.38 18 10 18 C10.33 24.27 10.66 30.54 11 37 C12.98 37.66 14.96 38.32 17 39 C17 41.31 17 43.62 17 46 C14.91781638 46.10832169 12.83400871 46.18573541 10.75 46.25 C9.58984375 46.29640625 8.4296875 46.3428125 7.234375 46.390625 C4 46 4 46 1.82226562 44.328125 C-0.44245521 41.43471961 -0.46799296 39.99566904 -0.390625 36.359375 C-0.37773437 35.28945313 -0.36484375 34.21953125 -0.3515625 33.1171875 C-0.31804687 32.00601563 -0.28453125 30.89484375 -0.25 29.75 C-0.23195312 28.62335937 -0.21390625 27.49671875 -0.1953125 26.3359375 C-0.14820222 23.55643104 -0.08243361 20.7786466 0 18 C-1.98 18 -3.96 18 -6 18 C-6 15.69 -6 13.38 -6 11 C-4.02 11 -2.04 11 0 11 C0 7.37 0 3.74 0 0 Z " fill="#1C3249" transform="translate(227,13)"/>
<path d="M0 0 C2.97 0 5.94 0 9 0 C9 3.3 9 6.6 9 10 C12.63 10 16.26 10 20 10 C20 13.3 20 16.6 20 20 C16.7 20 13.4 20 10 20 C10 23.3 10 26.6 10 30 C6.37 30 2.74 30 -1 30 C-1 26.7 -1 23.4 -1 20 C-4.3 20 -7.6 20 -11 20 C-11 16.7 -11 13.4 -11 10 C-7.37 10 -3.74 10 0 10 C0 6.7 0 3.4 0 0 Z " fill="#57C3C4" transform="translate(11,30)"/>
<path d="M0 0 C1.65 0 3.3 0 5 0 C5.33 5.94 5.66 11.88 6 18 C7.32 17.01 8.64 16.02 10 15 C14.92148056 14.10788872 20.33550016 13.94936297 24.625 16.8125 C28.11237777 21.49292806 27.98102092 25.27464325 28 31 C28.00692871 31.78004395 28.01385742 32.56008789 28.02099609 33.36376953 C28.06827466 38.9100703 28.05172631 44.4537896 28 50 C26.35 50 24.7 50 23 50 C22.9906543 49.19780029 22.98130859 48.39560059 22.97167969 47.5690918 C22.91806258 43.94126361 22.83439702 40.31473708 22.75 36.6875 C22.73582031 35.42486328 22.72164063 34.16222656 22.70703125 32.86132812 C22.67480469 31.65283203 22.64257812 30.44433594 22.609375 29.19921875 C22.58842773 28.08377686 22.56748047 26.96833496 22.54589844 25.8190918 C22.25854888 22.89700679 22.25854888 22.89700679 20.08691406 21.13964844 C17.85830359 19.92262063 16.52214521 19.56742606 14 19.5625 C13.01 19.53349609 13.01 19.53349609 12 19.50390625 C9.04388206 20.23716207 7.90836799 21.65691572 6 24 C5.36171531 26.88873888 5.36171531 26.88873888 5.390625 30.078125 C5.35839844 31.23828125 5.32617188 32.3984375 5.29296875 33.59375 C5.27878906 34.8003125 5.26460938 36.006875 5.25 37.25 C5.22035156 38.47203125 5.19070313 39.6940625 5.16015625 40.953125 C5.08947598 43.96881644 5.03676825 46.9837355 5 50 C3.35 50 1.7 50 0 50 C0 33.5 0 17 0 0 Z " fill="#415366" transform="translate(382,10)"/>
<path d="M0 0 C1.32 0 2.64 0 4 0 C4 5.94 4 11.88 4 18 C5.98 16.68 7.96 15.36 10 14 C14.08662138 13.09670716 18.20237498 13.01980607 21.94140625 15.05859375 C24.09820392 16.8100174 25.75211574 18.50423149 27 21 C27.08527628 23.03232634 27.10716135 25.06747006 27.09765625 27.1015625 C27.09443359 28.31328125 27.09121094 29.525 27.08789062 30.7734375 C27.07951172 32.04445312 27.07113281 33.31546875 27.0625 34.625 C27.05798828 35.90375 27.05347656 37.1825 27.04882812 38.5 C27.03701203 41.66671292 27.02053815 44.83333356 27 48 C25.68 48 24.36 48 23 48 C22.98541748 47.3294458 22.97083496 46.6588916 22.95581055 45.96801758 C22.881117 42.91561178 22.78452701 39.86427415 22.6875 36.8125 C22.66494141 35.75740234 22.64238281 34.70230469 22.61914062 33.61523438 C22.5659668 32.08286133 22.5659668 32.08286133 22.51171875 30.51953125 C22.48553467 29.58214111 22.45935059 28.64475098 22.43237305 27.67895508 C21.92257976 24.52030925 20.8577716 22.58607501 19 20 C15.90826248 18.45413124 13.40570448 18.70640479 10 19 C6.79612347 21.36075113 5.73159367 23.17845876 5 27 C4.8562677 28.7316239 4.75425068 30.46698333 4.68359375 32.203125 C4.64169922 33.1828125 4.59980469 34.1625 4.55664062 35.171875 C4.51732422 36.18765625 4.47800781 37.2034375 4.4375 38.25 C4.39431641 39.28125 4.35113281 40.3125 4.30664062 41.375 C4.20074318 43.9165387 4.09866557 46.45817196 4 49 C2.68 49 1.36 49 0 49 C0 32.83 0 16.66 0 0 Z " fill="#172D45" transform="translate(252,11)"/>
<path d="M0 0 C2.64 0 5.28 0 8 0 C8 3.3 8 6.6 8 10 C10.97 10 13.94 10 17 10 C17 12.31 17 14.62 17 17 C14.03 17 11.06 17 8 17 C8 20.3 8 23.6 8 27 C5.36 27 2.72 27 0 27 C0 24.03 0 21.06 0 18 C-2.97 18 -5.94 18 -9 18 C-9 15.36 -9 12.72 -9 10 C-6.03 10 -3.06 10 0 10 C0 6.7 0 3.4 0 0 Z " fill="#BBC239" transform="translate(40,18)"/>
<path d="M0 0 C1.65 0 3.3 0 5 0 C5 3.3 5 6.6 5 10 C6.98 10 8.96 10 11 10 C11.33 11.32 11.66 12.64 12 14 C9.69 14 7.38 14 5 14 C5.33 22.58 5.66 31.16 6 40 C7.98 40.33 9.96 40.66 12 41 C12 41.99 12 42.98 12 44 C10.56344146 44.08131463 9.1255517 44.13933559 7.6875 44.1875 C6.48673828 44.23970703 6.48673828 44.23970703 5.26171875 44.29296875 C3 44 3 44 1.37695312 42.85546875 C-0.58612702 40.21018345 -0.3407774 38.2864559 -0.29296875 35.01953125 C-0.28330078 33.85615234 -0.27363281 32.69277344 -0.26367188 31.49414062 C-0.23853516 30.27919922 -0.21339844 29.06425781 -0.1875 27.8125 C-0.17396484 26.58595703 -0.16042969 25.35941406 -0.14648438 24.09570312 C-0.11108741 21.06336336 -0.0617076 18.03190004 0 15 C-1.65 15 -3.3 15 -5 15 C-5.33 13.68 -5.66 12.36 -6 11 C-4.02 11 -2.04 11 0 11 C0 7.37 0 3.74 0 0 Z " fill="#283D53" transform="translate(366,15)"/>
<path d="M0 0 C3.79278453 0.73194087 5.42516824 1.68344499 7.68359375 4.84375 C9.25786031 8.1462114 9.22637337 11.13507121 8.5625 14.6875 C6.3125 20.3125 6.3125 20.3125 3.5625 21.6875 C-0.44436356 22.13270706 -2.58452112 22.32176635 -5.875 19.875 C-8.19091404 15.15053535 -8.18846692 10.85136529 -7.4375 5.6875 C-5.43144914 1.59515625 -4.46097838 0.89219568 0 0 Z " fill="#F7F8F9" transform="translate(122.4375,30.3125)"/>
<path d="M0 0 C3.5 0.5625 3.5 0.5625 5.9375 2.375 C8.25526302 7.10323656 8.24374717 11.39500661 7.5 16.5625 C6 19.75 6 19.75 3.5 21.5625 C0.48442829 22.22993036 -1.32268211 22.01640256 -4.5 21.5625 C-6.93979067 19.25024385 -7.46457066 17.81529314 -7.93359375 14.46875 C-7.93488281 13.3446875 -7.93617188 12.220625 -7.9375 11.0625 C-7.95683594 9.9384375 -7.97617188 8.814375 -7.99609375 7.65625 C-7.17901621 2.56077433 -4.99640817 0.80299417 0 0 Z " fill="#F8F8F9" transform="translate(201.5,30.4375)"/>
<path d="M0 0 C1.65 0 3.3 0 5 0 C5.33 16.17 5.66 32.34 6 49 C4.02 49 2.04 49 0 49 C0 32.83 0 16.66 0 0 Z " fill="#2D4257" transform="translate(352,11)"/>
<path d="M0 0 C3.12578143 1.6720747 5.39281175 3.7856235 7 7 C7.08527628 9.03232634 7.10716135 11.06747006 7.09765625 13.1015625 C7.09443359 14.31328125 7.09121094 15.525 7.08789062 16.7734375 C7.07951172 18.04445313 7.07113281 19.31546875 7.0625 20.625 C7.05798828 21.90375 7.05347656 23.1825 7.04882812 24.5 C7.03701203 27.66671292 7.02053815 30.83333356 7 34 C5.68 34 4.36 34 3 34 C2.98541748 33.3294458 2.97083496 32.6588916 2.95581055 31.96801758 C2.881117 28.91561178 2.78452701 25.86427415 2.6875 22.8125 C2.66494141 21.75740234 2.64238281 20.70230469 2.61914062 19.61523438 C2.58369141 18.59365234 2.54824219 17.57207031 2.51171875 16.51953125 C2.48553467 15.58214111 2.45935059 14.64475098 2.43237305 13.67895508 C1.92257976 10.52030925 0.8577716 8.58607501 -1 6 C-3.40545638 4.79727181 -4.94996953 4.89928528 -7.625 4.9375 C-8.44226563 4.94652344 -9.25953125 4.95554687 -10.1015625 4.96484375 C-10.72804688 4.97644531 -11.35453125 4.98804688 -12 5 C-12 3.68 -12 2.36 -12 1 C-8.27533151 -0.86233425 -4.05504687 -0.57130829 0 0 Z " fill="#2F4358" transform="translate(272,25)"/>
<path d="M0 0 C0.79921875 0.00902344 1.5984375 0.01804688 2.421875 0.02734375 C3.02515625 0.03894531 3.6284375 0.05054688 4.25 0.0625 C4.59751969 2.98166538 4.78280018 5.19445476 3.20703125 7.76171875 C1.40362765 9.94589965 -0.19412384 11.78456192 -2.75 13.0625 C-9.93858954 13.51891838 -9.93858954 13.51891838 -12.75 11.9375 C-14.26567857 9.09560267 -14.27642952 7.22107715 -13.75 4.0625 C-9.51763007 0.65309089 -5.30692213 -0.07804297 0 0 Z " fill="#F6F6F7" transform="translate(335.75,42.9375)"/>
<path d="M0 0 C0.33 0 0.66 0 1 0 C1.33 2.97 1.66 5.94 2 9 C2.66 8.67 3.32 8.34 4 8 C4.33773438 8.71027344 4.67546875 9.42054687 5.0234375 10.15234375 C5.46945312 11.07144531 5.91546875 11.99054687 6.375 12.9375 C7.03628906 14.31228516 7.03628906 14.31228516 7.7109375 15.71484375 C8.79199162 18.12903802 8.79199162 18.12903802 11 19 C13.10854036 19.2352732 13.10854036 19.2352732 15.4375 19.25 C16.21996094 19.27578125 17.00242187 19.3015625 17.80859375 19.328125 C20.5245533 18.92145726 21.30347193 18.10796153 23 16 C23.474375 15.278125 23.94875 14.55625 24.4375 13.8125 C24.953125 13.214375 25.46875 12.61625 26 12 C27.32 12 28.64 12 30 12 C29.15630537 15.98837462 28.58581409 18.42960207 25.625 21.3125 C24.75875 21.869375 23.8925 22.42625 23 23 C22.38125 23.4125 21.7625 23.825 21.125 24.25 C16.77660011 25.78472937 13.07798201 25.40160114 8.8125 23.8125 C4.13461447 20.79786266 1.72111243 17.23068516 0 12 C-0.1953125 8.88671875 -0.1953125 8.88671875 -0.125 5.6875 C-0.10695313 4.61886719 -0.08890625 3.55023438 -0.0703125 2.44921875 C-0.04710937 1.64097656 -0.02390625 0.83273438 0 0 Z " fill="#2D4157" transform="translate(283,36)"/>
<path d="M0 0 C0.99 0 1.98 0 3 0 C3 6.27 3 12.54 3 19 C3.99 19 4.98 19 6 19 C5.76228882 19.80872559 5.76228882 19.80872559 5.51977539 20.63378906 C4.91090977 23.40557189 4.78489684 26.02288851 4.68359375 28.859375 C4.64169922 29.97441406 4.59980469 31.08945312 4.55664062 32.23828125 C4.49766602 33.97658203 4.49766602 33.97658203 4.4375 35.75 C4.39431641 36.92433594 4.35113281 38.09867188 4.30664062 39.30859375 C4.20065206 42.20561451 4.09858362 45.10271935 4 48 C2.68 48 1.36 48 0 48 C0 32.16 0 16.32 0 0 Z " fill="#132B43" transform="translate(383,11)"/>
<path d="M0 0 C4.23758541 0.74343604 6.40412013 1.69221869 9.5625 4.625 C9.8925 6.935 10.2225 9.245 10.5625 11.625 C3.9625 11.625 -2.6375 11.625 -9.4375 11.625 C-8.21570419 5.51602096 -6.55072189 1.19104034 0 0 Z " fill="#F6F7F8" transform="translate(297.4375,28.375)"/>
<path d="M0 0 C0.31424507 3.45669582 0.37956836 5.39901677 -1.5 8.375 C-5.16548067 10.75756243 -7.67492622 10.35451424 -12 10 C-13 9 -13 9 -13.25 6.0625 C-13.1675 5.051875 -13.085 4.04125 -13 3 C-8.86395936 0.24263957 -4.91089275 0 0 0 Z " fill="#EEEFF1" transform="translate(91,43)"/>
<path d="M0 0 C0.2145758 3.14711179 0.23318878 5.44617664 -1 8.375 C-4.24537018 11.01186327 -6.90212584 10.39027373 -11 10 C-11.66 9.34 -12.32 8.68 -13 8 C-12.8125 5.5 -12.8125 5.5 -12 3 C-7.87960164 0.25306776 -4.92304458 0 0 0 Z " fill="#F1F2F3" transform="translate(168,43)"/>
<path d="M0 0 C0.33 0 0.66 0 1 0 C1 7.92 1 15.84 1 24 C0.01 24 -0.98 24 -2 24 C-2.05787784 20.37506666 -2.0935542 16.75025143 -2.125 13.125 C-2.14175781 12.09246094 -2.15851563 11.05992188 -2.17578125 9.99609375 C-2.18222656 9.00996094 -2.18867188 8.02382813 -2.1953125 7.0078125 C-2.20578613 6.09660645 -2.21625977 5.18540039 -2.22705078 4.24658203 C-2 2 -2 2 0 0 Z " fill="#0B243E" transform="translate(277,35)"/>
<path d="M0 0 C1.32 0 2.64 0 4 0 C3.14489368 4.04232081 2.561819 6.45258661 -0.4375 9.375 C-3 11 -3 11 -6 12 C-6.66 11.34 -7.32 10.68 -8 10 C-6.76649153 8.53312506 -5.53269271 7.06649248 -4.296875 5.6015625 C-2.89059937 3.91870898 -2.89059937 3.91870898 -1.4375 1.625 C-0.963125 1.08875 -0.48875 0.5525 0 0 Z " fill="#1E344B" transform="translate(309,48)"/>
<path d="M0 0 C0.33 0 0.66 0 1 0 C1.33 5.61 1.66 11.22 2 17 C3.65 16.01 5.3 15.02 7 14 C6.39816251 16.02045442 5.72693904 18.02111039 5 20 C4.34 20.33 3.68 20.66 3 21 C3 20.34 3 19.68 3 19 C2.01 19 1.02 19 0 19 C0 12.73 0 6.46 0 0 Z " fill="#36485B" transform="translate(386,11)"/>
<path d="M0 0 C2.97 0 5.94 0 9 0 C8.01 0.33 7.02 0.66 6 1 C6 1.66 6 2.32 6 3 C3.36 3.66 0.72 4.32 -2 5 C-1.34 3.35 -0.68 1.7 0 0 Z " fill="#0C2540" transform="translate(393,25)"/>
<path d="M0 0 C0.66 0 1.32 0 2 0 C2 1.65 2 3.3 2 5 C-0.64 5 -3.28 5 -6 5 C-6 4.34 -6 3.68 -6 3 C-4.02 3 -2.04 3 0 3 C0 2.01 0 1.02 0 0 Z " fill="#C7CD4E" transform="translate(46,40)"/>
<path d="M0 0 C0.66 0.66 1.32 1.32 2 2 C-0.70879335 3.35439668 -3.00933268 3.06501451 -6 3 C-6.33 2.34 -6.66 1.68 -7 1 C-3.375 -1.125 -3.375 -1.125 0 0 Z " fill="#2B4158" transform="translate(331,58)"/>
</svg>
