<?xml version="1.0" encoding="UTF-8"?>
<svg version="1.1" xmlns="http://www.w3.org/2000/svg" width="248" height="156">
<path d="M0 0 C6.93 0 13.86 0 21 0 C21 4.29 21 8.58 21 13 C24.96 13 28.92 13 33 13 C33 19.6 33 26.2 33 33 C29.04 33 25.08 33 21 33 C21 36.96 21 40.92 21 45 C14.07 45 7.14 45 0 45 C0 41.04 0 37.08 0 33 C-3.96 33 -7.92 33 -12 33 C-12 26.4 -12 19.8 -12 13 C-8.04 13 -4.08 13 0 13 C0 8.71 0 4.42 0 0 Z " fill="#028BD0" transform="translate(20,55)"/>
<path d="M0 0 C0.79921875 0.22816406 1.5984375 0.45632812 2.421875 0.69140625 C12.78115758 3.40281472 21.83862716 3.46410438 32 0 C33.79373149 4.62065232 34.38676857 8.83191582 34.375 13.75 C34.37258301 14.80453369 34.37258301 14.80453369 34.37011719 15.88037109 C34.22944277 21.8893754 32.91939573 26.7105025 30 32 C29.443125 33.03125 28.88625 34.0625 28.3125 35.125 C24.98732416 39.2590024 21.04961309 42.59071034 17 46 C9.41783666 43.36730439 4.65615526 37.79148102 1.0625 30.75 C-1.59486985 25.09295503 -2.18177803 20.36195099 -2.1875 14.125 C-2.20586914 13.08279297 -2.20586914 13.08279297 -2.22460938 12.01953125 C-2.23702874 7.62307607 -1.61908407 4.08290765 0 0 Z " fill="#1293D5" transform="translate(60,55)"/>
<path d="M0 0 C0.79921875 0.22816406 1.5984375 0.45632812 2.421875 0.69140625 C12.78115758 3.40281472 21.83862716 3.46410438 32 0 C33.79373149 4.62065232 34.38676857 8.83191582 34.375 13.75 C34.37258301 14.80453369 34.37258301 14.80453369 34.37011719 15.88037109 C34.22944277 21.8893754 32.91939573 26.7105025 30 32 C29.443125 33.03125 28.88625 34.0625 28.3125 35.125 C24.98732416 39.2590024 21.04961309 42.59071034 17 46 C9.41783666 43.36730439 4.65615526 37.79148102 1.0625 30.75 C-1.59486985 25.09295503 -2.18177803 20.36195099 -2.1875 14.125 C-2.20586914 13.08279297 -2.20586914 13.08279297 -2.22460938 12.01953125 C-2.23702874 7.62307607 -1.61908407 4.08290765 0 0 Z M2 6 C1.3826605 19.82154547 2.5955321 28.61943806 11.90234375 39.48046875 C13.91008519 41.2555269 13.91008519 41.2555269 16.53125 40.953125 C22.31409466 38.72050776 25.87644369 32.86839247 28.4375 27.4375 C30.82937404 20.89562228 30.54006423 13.86147181 30 7 C28.92970871 5.70454552 28.92970871 5.70454552 26.40795898 5.88647461 C25.28204346 5.89171143 24.15612793 5.89694824 22.99609375 5.90234375 C21.17368164 5.90717773 21.17368164 5.90717773 19.31445312 5.91210938 C18.03505859 5.92048828 16.75566406 5.92886719 15.4375 5.9375 C13.51260742 5.94426758 13.51260742 5.94426758 11.54882812 5.95117188 C8.36583978 5.96300455 5.18294238 5.97948932 2 6 Z " fill="#0689CB" transform="translate(60,55)"/>
<path d="M0 0 C0.99 0.66 1.98 1.32 3 2 C2.67 3.32 2.34 4.64 2 6 C2.66 6.33 3.32 6.66 4 7 C3.938125 6.21625 3.87625 5.4325 3.8125 4.625 C3.874375 3.75875 3.93625 2.8925 4 2 C7.46923881 -0.31282587 8.92205575 -0.42478586 13 0 C14.875 1.25 14.875 1.25 16 3 C16 4.32 16 5.64 16 7 C17.66924071 10.04134491 17.66924071 10.04134491 20 11 C20 11.99 20 12.98 20 14 C17 15 17 15 14 14 C12.576875 14.2784375 12.576875 14.2784375 11.125 14.5625 C8 15 8 15 5.375 13.9375 C4.59125 13.628125 3.8075 13.31875 3 13 C1.65812182 13.6492959 0.32520503 14.31731862 -1 15 C-6.43478261 14.56521739 -6.43478261 14.56521739 -9 12 C-8.67751743 10.66400079 -8.34227417 9.33106622 -8 8 C-8.20625 7.154375 -8.4125 6.30875 -8.625 5.4375 C-9 3 -9 3 -7.9375 1.1875 C-5.17428518 -0.50608328 -3.18170002 -0.33142708 0 0 Z M-5 9 C-4.67 9.66 -4.34 10.32 -4 11 C-3.34 10.67 -2.68 10.34 -2 10 C-2.99 9.67 -3.98 9.34 -5 9 Z M8 9 C8.33 9.66 8.66 10.32 9 11 C9.66 10.67 10.32 10.34 11 10 C10.01 9.67 9.02 9.34 8 9 Z " fill="#222124" transform="translate(212,61)"/>
<path d="M0 0 C3.75405595 0.04043866 7.4592179 0.3967179 10.25 3.1875 C10.25 5.85416667 10.25 8.52083333 10.25 11.1875 C10.58 11.5175 10.91 11.8475 11.25 12.1875 C10.96269945 14.52694736 10.63063221 16.8614143 10.25 19.1875 C5.69622611 21.53783491 1.26762683 21.6332809 -3.75 21.1875 C-5.30606751 19.63143249 -4.87970769 18.12792629 -4.8828125 15.96875 C-4.88410156 15.11925781 -4.88539062 14.26976563 -4.88671875 13.39453125 C-4.88285156 12.50121094 -4.87898438 11.60789062 -4.875 10.6875 C-4.87886719 9.79417969 -4.88273437 8.90085937 -4.88671875 7.98046875 C-4.88542969 7.13097656 -4.88414063 6.28148437 -4.8828125 5.40625 C-4.88168457 4.62185547 -4.88055664 3.83746094 -4.87939453 3.02929688 C-4.63518398 -0.44678688 -3.62813451 0.18140673 0 0 Z M1.25 5.1875 C1.25 6.1775 1.25 7.1675 1.25 8.1875 C2.57 8.1875 3.89 8.1875 5.25 8.1875 C5.25 7.1975 5.25 6.2075 5.25 5.1875 C3.93 5.1875 2.61 5.1875 1.25 5.1875 Z M1.25 12.1875 C1.25 13.5075 1.25 14.8275 1.25 16.1875 C2.9 15.8575 4.55 15.5275 6.25 15.1875 C5.92 14.1975 5.59 13.2075 5.25 12.1875 C3.93 12.1875 2.61 12.1875 1.25 12.1875 Z " fill="#221F21" transform="translate(111.75,54.8125)"/>
<path d="M0 0 C11.625 -0.25 11.625 -0.25 15 2 C15.1875 5 15.1875 5 15 8 C15 8.66 15 9.32 15 10 C15.33 10.33 15.66 10.66 16 11 C16.375 13.875 16.375 13.875 16 17 C13.58009553 19.50334945 11.65182721 19.95880306 8.21875 20.17578125 C5.47856062 20.18637477 2.73842166 20.0989791 0 20 C0 13.4 0 6.8 0 0 Z M6 4 C6 4.99 6 5.98 6 7 C7.32 7 8.64 7 10 7 C9.67 6.01 9.34 5.02 9 4 C8.01 4 7.02 4 6 4 Z M6 11 C6 12.32 6 13.64 6 15 C7.65 14.67 9.3 14.34 11 14 C11 13.34 11 12.68 11 12 C9.35 11.67 7.7 11.34 6 11 Z " fill="#222022" transform="translate(107,81)"/>
<path d="M0 0 C2 2 2 2 2 6 C0.35 6 -1.3 6 -3 6 C-3 5.34 -3 4.68 -3 4 C-4.32 4 -5.64 4 -7 4 C-7 4.99 -7 5.98 -7 7 C-5.906875 7.103125 -4.81375 7.20625 -3.6875 7.3125 C0 8 0 8 1.9375 9.25 C3.46044824 11.75838534 3.56238329 13.11778564 3 16 C0.22360006 19.11293327 -1.40526763 19.92696269 -5.5625 20.4375 C-9.1248387 19.98411144 -10.66346177 19.71038434 -13 17 C-13.25 14.3125 -13.25 14.3125 -13 12 C-11.35 12 -9.7 12 -8 12 C-7.67 12.99 -7.34 13.98 -7 15 C-6.01 15 -5.02 15 -4 15 C-4 14.34 -4 13.68 -4 13 C-5.11375 12.54625 -6.2275 12.0925 -7.375 11.625 C-11 10 -11 10 -13 8 C-12.9375 5.0625 -12.9375 5.0625 -12 2 C-8.07717717 -1.5766914 -4.98793859 -1.22345664 0 0 Z " fill="#222023" transform="translate(174,81)"/>
<path d="M0 0 C0.85008897 10.88586148 -2.21767151 19.52208939 -9 28 C-9.99 27.67 -10.98 27.34 -12 27 C-12 26.34 -12 25.68 -12 25 C-11.34 25 -10.68 25 -10 25 C-10.66 23.35 -11.32 21.7 -12 20 C-11.34 19.67 -10.68 19.34 -10 19 C-10.20625 18.38125 -10.4125 17.7625 -10.625 17.125 C-10.810625 16.073125 -10.810625 16.073125 -11 15 C-10.34 14.34 -9.68 13.68 -9 13 C-9 12.01 -9 11.02 -9 10 C-9.66 9.67 -10.32 9.34 -11 9 C-10 7 -9 5 -8 3 C-8.99 3.33 -9.98 3.66 -11 4 C-11.66 3.01 -12.32 2.02 -13 1 C-4.57142857 -1.42857143 -4.57142857 -1.42857143 0 0 Z " fill="#088FD3" transform="translate(89,64)"/>
<path d="M0 0 C1.65 0 3.3 0 5 0 C5.33 4.95 5.66 9.9 6 15 C6.99 15.33 7.98 15.66 9 16 C8.67 17.32 8.34 18.64 8 20 C5.72975032 20.08097324 3.45867925 20.13917704 1.1875 20.1875 C-0.70935547 20.23970703 -0.70935547 20.23970703 -2.64453125 20.29296875 C-6 20 -6 20 -7.921875 18.76953125 C-9.96392739 15.41790178 -9.63933471 11.77277736 -9 8 C-7.25 5.9375 -7.25 5.9375 -5 5 C-3.68 5 -2.36 5 -1 5 C-0.67 3.35 -0.34 1.7 0 0 Z M-4 9 C-4 11.31 -4 13.62 -4 16 C-2.68 15.67 -1.36 15.34 0 15 C0 13.35 0 11.7 0 10 C-1.32 9.67 -2.64 9.34 -4 9 Z " fill="#222123" transform="translate(231,81)"/>
<path d="M0 0 C2.4375 1.75 2.4375 1.75 4 4 C4 5.32 4 6.64 4 8 C1.625 8.1875 1.625 8.1875 -1 8 C-1.66 7.01 -2.32 6.02 -3 5 C-3.66 5 -4.32 5 -5 5 C-6.20272819 7.40545638 -6.10071472 8.94996953 -6.0625 11.625 C-6.05347656 12.44226563 -6.04445312 13.25953125 -6.03515625 14.1015625 C-6.02355469 14.72804688 -6.01195312 15.35453125 -6 16 C-4.02463255 15.65213292 -4.02463255 15.65213292 -2 15 C-1.67 14.34 -1.34 13.68 -1 13 C0.65 13 2.3 13 4 13 C3.72776186 16.35760377 3.41629629 17.64317461 0.8125 19.875 C-2.70008557 21.28003423 -4.41126048 21.1453424 -8 20 C-11.13130486 17.79962361 -11.89030201 16.38759958 -12.9375 12.6875 C-13.01513438 8.10707139 -12.19276669 5.9939679 -10 2 C-6.2794164 -0.48038907 -4.40203429 -0.46337203 0 0 Z " fill="#222123" transform="translate(173,55)"/>
<path d="M0 0 C1.65 0 3.3 0 5 0 C5.33 1.65 5.66 3.3 6 5 C6.763125 4.938125 7.52625 4.87625 8.3125 4.8125 C11 5 11 5 12.65625 6.125 C14.59481574 8.82997545 14.2934299 10.90367323 14.1875 14.1875 C14.16042969 15.27417969 14.13335937 16.36085938 14.10546875 17.48046875 C14.07066406 18.31191406 14.03585938 19.14335938 14 20 C12.35 20 10.7 20 9 20 C8.95101562 19.28972656 8.90203125 18.57945313 8.8515625 17.84765625 C8.77679688 16.92855469 8.70203125 16.00945312 8.625 15.0625 C8.55539063 14.14597656 8.48578125 13.22945312 8.4140625 12.28515625 C8.20910156 11.15400391 8.20910156 11.15400391 8 10 C7.34 9.67 6.68 9.34 6 9 C5.67 12.63 5.34 16.26 5 20 C3.35 20 1.7 20 0 20 C0 13.4 0 6.8 0 0 Z " fill="#222023" transform="translate(178,81)"/>
<path d="M0 0 C1.98 0 3.96 0 6 0 C6 3.63 6 7.26 6 11 C6.66 10.67 7.32 10.34 8 10 C8.46751788 7.64400765 8.46751788 7.64400765 8.625 4.9375 C8.69976562 4.01839844 8.77453125 3.09929687 8.8515625 2.15234375 C8.90054688 1.44207031 8.94953125 0.73179688 9 0 C10.65 0 12.3 0 14 0 C14 4.95 14 9.9 14 15 C3.54756381 15.49187935 3.54756381 15.49187935 1.15625 13.34375 C-0.26976513 10.45317878 -0.30206939 8.45794302 -0.1875 5.25 C-0.16042969 4.26515625 -0.13335937 3.2803125 -0.10546875 2.265625 C-0.07066406 1.51796875 -0.03585938 0.7703125 0 0 Z " fill="#222022" transform="translate(131,86)"/>
<path d="M0 0 C4.47915328 -0.02886338 8.95828291 -0.04675187 13.4375 -0.0625 C14.71689453 -0.07087891 15.99628906 -0.07925781 17.31445312 -0.08789062 C19.13686523 -0.09272461 19.13686523 -0.09272461 20.99609375 -0.09765625 C22.12200928 -0.10289307 23.2479248 -0.10812988 24.40795898 -0.11352539 C27 0 27 0 28 1 C28.9365866 12.89925595 27.72678358 21.75565007 20.0625 31.1875 C18.09765625 33.48046875 18.09765625 33.48046875 16 35 C12.95950185 34.94369448 11.49574618 34.39474176 9.12109375 32.50390625 C0.20708353 22.22487358 -0.58404535 13.07612634 0 0 Z M1 3 C-0.18461456 12.43807664 2.58611955 20.88140038 7.9375 28.625 C9.96910597 31.15804561 10.73281904 31.90706749 13.875 33 C14.57625 33 15.2775 33 16 33 C22.62929259 26.06937593 27.18956812 17.59674534 27.0625 7.8125 C27.05347656 6.91144531 27.04445313 6.01039062 27.03515625 5.08203125 C27.02355469 4.39496094 27.01195313 3.70789063 27 3 C23.66847544 2.25481003 20.58369101 1.87196595 17.171875 1.8671875 C15.84929687 1.86525391 15.84929687 1.86525391 14.5 1.86328125 C13.5925 1.86714844 12.685 1.87101562 11.75 1.875 C10.82703125 1.87113281 9.9040625 1.86726563 8.953125 1.86328125 C8.0765625 1.86457031 7.2 1.86585937 6.296875 1.8671875 C5.09562988 1.86887939 5.09562988 1.86887939 3.87011719 1.87060547 C1.98578226 1.79534714 1.98578226 1.79534714 1 3 Z " fill="#D0EAF7" transform="translate(62,61)"/>
<path d="M0 0 C1.98 0 3.96 0 6 0 C6 3.63 6 7.26 6 11 C6.66 10.67 7.32 10.34 8 10 C8.46751788 7.64400765 8.46751788 7.64400765 8.625 4.9375 C8.69976562 4.01839844 8.77453125 3.09929687 8.8515625 2.15234375 C8.90054688 1.44207031 8.94953125 0.73179688 9 0 C10.65 0 12.3 0 14 0 C14 4.62 14 9.24 14 14 C4.91304348 15.43478261 4.91304348 15.43478261 1.375 13.75 C-0.83093275 9.3381345 -0.30036457 4.83920689 0 0 Z " fill="#222021" transform="translate(131,61)"/>
<path d="M0 0 C0.7528125 0.22816406 1.505625 0.45632812 2.28125 0.69140625 C11.55428267 3.20097699 19.52922402 3.00908139 29 2 C28.67 2.99 28.34 3.98 28 5 C28.66 5 29.32 5 30 5 C29.67 5.66 29.34 6.32 29 7 C25.2500163 7.02905924 21.50006163 7.04681874 17.75 7.0625 C16.15478516 7.07506836 16.15478516 7.07506836 14.52734375 7.08789062 C13.50253906 7.09111328 12.47773437 7.09433594 11.421875 7.09765625 C10.00793457 7.10551147 10.00793457 7.10551147 8.56542969 7.11352539 C6 7 6 7 2 6 C2 10.29 2 14.58 2 19 C1.01 19 0.02 19 -1 19 C-1.22397733 16.95999027 -1.42848537 14.91783811 -1.625 12.875 C-1.74101563 11.73804687 -1.85703125 10.60109375 -1.9765625 9.4296875 C-2.00112837 5.83488201 -1.32167811 3.319329 0 0 Z " fill="#0D8ED0" transform="translate(60,55)"/>
<path d="M0 0 C2.375 1.5625 2.375 1.5625 4 4 C4.56783945 7.97487617 4.62340519 10.06489221 2.375 13.4375 C-0.7370662 15.48491197 -2.34394496 15.68551032 -6 15 C-8.4375 12.9375 -8.4375 12.9375 -10 10 C-9.93931504 6.48027215 -9.66225706 4.08052467 -7.8125 1.0625 C-5.04411529 -0.56034621 -3.14454533 -0.44922076 0 0 Z M-4 9 C-4 9.66 -4 10.32 -4 11 C-2.68 10.67 -1.36 10.34 0 10 C-1.32 9.67 -2.64 9.34 -4 9 Z " fill="#222023" transform="translate(210,86)"/>
<path d="M0 0 C3.1875 0.3125 3.1875 0.3125 5.5625 1.875 C7.81090519 5.24760779 7.75533945 7.33762383 7.1875 11.3125 C5.5625 13.75 5.5625 13.75 3.1875 15.3125 C0.01375484 15.76589217 -1.86905076 15.89808918 -4.625 14.1875 C-6.32306927 11.506338 -6.6858144 9.47964007 -6.8125 6.3125 C-3.94043734 0.43782637 -3.94043734 0.43782637 0 0 Z M-0.8125 9.3125 C-0.8125 9.9725 -0.8125 10.6325 -0.8125 11.3125 C0.5075 10.9825 1.8275 10.6525 3.1875 10.3125 C1.8675 9.9825 0.5475 9.6525 -0.8125 9.3125 Z " fill="#222022" transform="translate(152.8125,85.6875)"/>
<path d="M0 0 C2.85576764 2.30303842 2.98181881 3.85455051 3.4375 7.5 C3 11 3 11 1.4375 13.5 C-1 15 -1 15 -4.5625 15.0625 C-8 14 -8 14 -10 11.8125 C-11.22917707 8.3554395 -11.0631832 6.49331624 -10 3 C-7.61689908 -0.97183486 -4.2718343 -0.53397929 0 0 Z M-5 9 C-5 9.66 -5 10.32 -5 11 C-3.68 10.67 -2.36 10.34 -1 10 C-2.32 9.67 -3.64 9.34 -5 9 Z " fill="#222123" transform="translate(157,61)"/>
<path d="M0 0 C2.4375 1 2.4375 1 4 3 C4.6502362 6.54674293 4.69131398 9.73936863 2.9375 12.9375 C-0.09582493 14.60093625 -2.55577787 14.93957505 -6 15 C-8.4375 13.5625 -8.4375 13.5625 -10 11 C-10.62413468 7.46796513 -10.66160604 4.24537607 -8.9375 1 C-5.85873258 -0.58904125 -3.39844421 -0.35773097 0 0 Z M-5 4 C-5 5.98 -5 7.96 -5 10 C-3.68 10 -2.36 10 -1 10 C-1 8.02 -1 6.04 -1 4 C-2.32 4 -3.64 4 -5 4 Z " fill="#222123" transform="translate(198,61)"/>
<path d="M0 0 C1.98 0 3.96 0 6 0 C6.02888514 3.14581423 6.04675923 6.29159469 6.0625 9.4375 C6.07087891 10.33533203 6.07925781 11.23316406 6.08789062 12.15820312 C6.09111328 13.01220703 6.09433594 13.86621094 6.09765625 14.74609375 C6.10289307 15.53685303 6.10812988 16.3276123 6.11352539 17.14233398 C6 19 6 19 5 20 C3.35 20 1.7 20 0 20 C0 13.4 0 6.8 0 0 Z " fill="#212226" transform="translate(124,81)"/>
<path d="M0 0 C1.65 0.33 3.3 0.66 5 1 C5 7.27 5 13.54 5 20 C3.02 20 1.04 20 -1 20 C-1.02888514 16.85418577 -1.04675923 13.70840531 -1.0625 10.5625 C-1.07087891 9.66466797 -1.07925781 8.76683594 -1.08789062 7.84179688 C-1.09111328 6.98779297 -1.09433594 6.13378906 -1.09765625 5.25390625 C-1.10551147 4.06776733 -1.10551147 4.06776733 -1.11352539 2.85766602 C-1 1 -1 1 0 0 Z " fill="#222225" transform="translate(125,55)"/>
<path d="M0 0 C5.68421053 3.05263158 5.68421053 3.05263158 7 7 C3.7 7 0.4 7 -3 7 C-2.67 5.35 -2.34 3.7 -2 2 C-2.99 2 -3.98 2 -5 2 C-4.67 3.65 -4.34 5.3 -4 7 C-7.3 7 -10.6 7 -14 7 C-10.80488779 0.60977558 -7.05648202 -0.86658551 0 0 Z " fill="#B2DBF1" transform="translate(34,66)"/>
<path d="M0 0 C1.65 0 3.3 0 5 0 C5 6.6 5 13.2 5 20 C3.35 20 1.7 20 0 20 C0 13.4 0 6.8 0 0 Z " fill="#221F21" transform="translate(215,81)"/>
<path d="M0 0 C2.97 0 5.94 0 9 0 C9.36689314 8.3162446 9.36689314 8.3162446 7.625 11.5625 C6 13 6 13 4 13 C3.13083113 11.59248779 2.28014851 10.1735479 1.4375 8.75 C0.72400391 7.56664063 0.72400391 7.56664063 -0.00390625 6.359375 C-1 4 -1 4 0 0 Z " fill="#BCE0F3" transform="translate(33,74)"/>
<path d="M0 0 C2.97 0 5.94 0 9 0 C10 4 10 4 9.00390625 6.359375 C8.52824219 7.14828125 8.05257813 7.9371875 7.5625 8.75 C7.08941406 9.54921875 6.61632812 10.3484375 6.12890625 11.171875 C5.75636719 11.77515625 5.38382813 12.3784375 5 13 C2 12 2 12 0.8125 10.4375 C-0.37040794 6.88877617 -0.12443279 3.73298379 0 0 Z " fill="#D9EDF8" transform="translate(19,74)"/>
<path d="M0 0 C2.97 0 5.94 0 9 0 C9 1.65 9 3.3 9 5 C8.01 5.33 7.02 5.66 6 6 C5.67 8.64 5.34 11.28 5 14 C3.35 14 1.7 14 0 14 C0 9.38 0 4.76 0 0 Z " fill="#221F20" transform="translate(178,61)"/>
<path d="M0 0 C-1 2 -2 4 -3 6 C-2.01 6.33 -1.02 6.66 0 7 C-0.33 8.32 -0.66 9.64 -1 11 C-1.66 11 -2.32 11 -3 11 C-3.33 10.01 -3.66 9.02 -4 8 C-7.51190809 6.77030122 -7.51190809 6.77030122 -11 6 C-11.33 4.68 -11.66 3.36 -12 2 C-7.72424275 -1.23921004 -5.16347713 -1.11369115 0 0 Z " fill="#E3F2FA" transform="translate(81,67)"/>
<path d="M0 0 C2.96404505 2.80804268 5.44499019 5.18315774 7 9 C3.30513897 11.46324069 1.36706908 11.38991688 -3 11 C-3.99 10.01 -4.98 9.02 -6 8 C-4.02 5.36 -2.04 2.72 0 0 Z " fill="#CEE9F6" transform="translate(30,79)"/>
<path d="M0 0 C0.99 0 1.98 0 3 0 C2.67 1.65 2.34 3.3 2 5 C5.63 5 9.26 5 13 5 C13 5.33 13 5.66 13 6 C8.545 6.495 8.545 6.495 4 7 C4.8253442 10.95983275 4.8253442 10.95983275 6.625 14.125 C7.305625 15.548125 7.305625 15.548125 8 17 C7.67 17.66 7.34 18.32 7 19 C5.35 16.69 3.7 14.38 2 12 C1.401875 12.598125 0.80375 13.19625 0.1875 13.8125 C-1.54166667 15.54166667 -3.27083333 17.27083333 -5 19 C-3.94124926 15.59687262 -2.99097846 12.98646769 -1 10 C-1 9.01 -1 8.02 -1 7 C-3.97 6.67 -6.94 6.34 -10 6 C-10 5.67 -10 5.34 -10 5 C-6.37 5 -2.74 5 1 5 C0.67 3.35 0.34 1.7 0 0 Z " fill="#0D91D4" transform="translate(29,68)"/>
<path d="M0 0 C1.65 0 3.3 0 5 0 C5 4.95 5 9.9 5 15 C3.35 15 1.7 15 0 15 C0 10.05 0 5.1 0 0 Z " fill="#222123" transform="translate(194,86)"/>
<path d="M0 0 C1.89058414 4.77897657 2.30621316 9.10489353 2.25 14.1875 C2.25773437 14.89841797 2.26546875 15.60933594 2.2734375 16.34179688 C2.25929517 20.10012031 2.13400293 21.7989956 0 25 C0 23.02 0 21.04 0 19 C-0.33 19 -0.66 19 -1 19 C-1.33 14.38 -1.66 9.76 -2 5 C-2.66 5 -3.32 5 -4 5 C-4 3.68 -4 2.36 -4 1 C-2 0 -2 0 0 0 Z " fill="#047FBD" transform="translate(92,55)"/>
<path d="M0 0 C0 1.32 0 2.64 0 4 C0.99 4.33 1.98 4.66 3 5 C2.67 5.99 2.34 6.98 2 8 C1.34 8 0.68 8 0 8 C0.66 9.65 1.32 11.3 2 13 C1.34 13 0.68 13 0 13 C0 13.99 0 14.98 0 16 C-0.99 16 -1.98 16 -3 16 C-2.67 14.02 -2.34 12.04 -2 10 C-2.66 10 -3.32 10 -4 10 C-4 9.01 -4 8.02 -4 7 C-3.34 7 -2.68 7 -2 7 C-2 6.34 -2 5.68 -2 5 C-2.99 4.67 -3.98 4.34 -5 4 C-5 3.01 -5 2.02 -5 1 C-2 0 -2 0 0 0 Z " fill="#A3D5EF" transform="translate(77,76)"/>
<path d="M0 0 C1.75 0.0625 1.75 0.0625 4 1 C5.72518887 3.25123006 6.76906007 5.40134903 8 8 C7.67 8.66 7.34 9.32 7 10 C5.35 7.69 3.7 5.38 2 3 C1.401875 3.598125 0.80375 4.19625 0.1875 4.8125 C-1.54166667 6.54166667 -3.27083333 8.27083333 -5 10 C-3.84414715 6.08788267 -2.64465038 3.1254959 0 0 Z " fill="#2599D8" transform="translate(29,77)"/>
<path d="M0 0 C2.31 0.33 4.62 0.66 7 1 C6 3 5 5 4 7 C1.5625 6.625 1.5625 6.625 -1 6 C-1.33 5.34 -1.66 4.68 -2 4 C-1.34 4 -0.68 4 0 4 C0 2.68 0 1.36 0 0 Z " fill="#9CD1ED" transform="translate(74,66)"/>
<path d="M0 0 C1.32 0.66 2.64 1.32 4 2 C3.67 3.32 3.34 4.64 3 6 C1.68 6.33 0.36 6.66 -1 7 C-1.66 5.68 -2.32 4.36 -3 3 C-2.01 2.01 -1.02 1.02 0 0 Z " fill="#067AB5" transform="translate(47,94)"/>
<path d="M0 0 C2.125 0.9375 2.125 0.9375 4 2 C3.6875 3.9375 3.6875 3.9375 3 6 C2.01 6.33 1.02 6.66 0 7 C-0.66 6.67 -1.32 6.34 -2 6 C-2 4.35 -2 2.7 -2 1 C-1.34 0.67 -0.68 0.34 0 0 Z " fill="#0776AE" transform="translate(89,94)"/>
<path d="M0 0 C1.98 0 3.96 0 6 0 C6 2.31 6 4.62 6 7 C5.01 7 4.02 7 3 7 C0 2.77777778 0 2.77777778 0 0 Z " fill="#0C8FD3" transform="translate(34,76)"/>
<path d="M0 0 C1.98 0 3.96 0 6 0 C4.8141763 3.37503669 3.72426311 5.64722731 1 8 C0 7 0 7 -0.0625 3.4375 C-0.041875 2.303125 -0.02125 1.16875 0 0 Z " fill="#0A8ED3" transform="translate(21,76)"/>
<path d="M0 0 C0.33 0 0.66 0 1 0 C1.06058594 0.61488281 1.12117188 1.22976562 1.18359375 1.86328125 C1.26738281 2.67152344 1.35117188 3.47976562 1.4375 4.3125 C1.51871094 5.11300781 1.59992188 5.91351563 1.68359375 6.73828125 C1.95265693 9.16087179 1.95265693 9.16087179 3 12 C3.03874921 13.66621616 3.0450286 15.33394172 3 17 C1.68 17 0.36 17 -1 17 C-0.67 11.39 -0.34 5.78 0 0 Z " fill="#289DD9" transform="translate(90,64)"/>
<path d="M0 0 C0.33 0 0.66 0 1 0 C1.04898438 0.63808594 1.09796875 1.27617188 1.1484375 1.93359375 C1.22320312 2.75988281 1.29796875 3.58617188 1.375 4.4375 C1.44460937 5.26121094 1.51421875 6.08492188 1.5859375 6.93359375 C1.72257812 7.61550781 1.85921875 8.29742187 2 9 C2.66 9.33 3.32 9.66 4 10 C3.67 12.97 3.34 15.94 3 19 C0.05710046 16.05710046 0.02672897 13.88526342 -0.09765625 9.765625 C-0.08605469 8.60546875 -0.07445312 7.4453125 -0.0625 6.25 C-0.05347656 5.07953125 -0.04445312 3.9090625 -0.03515625 2.703125 C-0.02355469 1.81109375 -0.01195312 0.9190625 0 0 Z " fill="#057FBC" transform="translate(58,64)"/>
<path d="M0 0 C1.37562854 1.28965176 2.70766393 2.62689293 4 4 C4 4.66 4 5.32 4 6 C1.69 6 -0.62 6 -3 6 C-1.125 1.125 -1.125 1.125 0 0 Z " fill="#088DD3" transform="translate(30,82)"/>
<path d="M0 0 C1.32 0 2.64 0 4 0 C4.46882399 8.12628256 4.46882399 8.12628256 2.625 11.5625 C1 13 1 13 -1 13 C-1.33 12.01 -1.66 11.02 -2 10 C-1.01 9.67 -0.02 9.34 1 9 C1.80212628 7.12612784 1.80212628 7.12612784 2.1875 4.9375 C2.34605469 4.20402344 2.50460938 3.47054687 2.66796875 2.71484375 C2.77753906 2.14894531 2.88710938 1.58304687 3 1 C2.01 0.67 1.02 0.34 0 0 Z " fill="#DDEFF9" transform="translate(38,74)"/>
<path d="M0 0 C0.33 0 0.66 0 1 0 C1.33 2.31 1.66 4.62 2 7 C3.32 5.68 4.64 4.36 6 3 C5.125 8.75 5.125 8.75 4 11 C1 10 1 10 -0.25 7.75 C-1.07700926 4.71763271 -0.85394079 2.98879276 0 0 Z " fill="#C2E3F4" transform="translate(20,76)"/>
<path d="M0 0 C0 1.32 0 2.64 0 4 C0.99 4.33 1.98 4.66 3 5 C2.67 5.99 2.34 6.98 2 8 C1.67 7.01 1.34 6.02 1 5 C-0.65 5 -2.3 5 -4 5 C-4.33 3.68 -4.66 2.36 -5 1 C-2 0 -2 0 0 0 Z " fill="#D9EDF8" transform="translate(77,76)"/>
<path d="M0 0 C2.64 0.33 5.28 0.66 8 1 C8 1.33 8 1.66 8 2 C6.02 2.33 4.04 2.66 2 3 C1.67 6.63 1.34 10.26 1 14 C0.67 14 0.34 14 0 14 C0 9.38 0 4.76 0 0 Z " fill="#EEF7FC" transform="translate(62,61)"/>
<path d="M0 0 C2.96404505 2.80804268 5.44499019 5.18315774 7 9 C5.35 9.33 3.7 9.66 2 10 C2.66 9.67 3.32 9.34 4 9 C3.505 8.21625 3.01 7.4325 2.5 6.625 C1 4 1 4 1 2 C0.34 1.67 -0.32 1.34 -1 1 C-0.67 0.67 -0.34 0.34 0 0 Z " fill="#DDEFF9" transform="translate(30,79)"/>
<path d="M0 0 C0.66 0.33 1.32 0.66 2 1 C2.73075648 3.3140622 3.40138258 5.64828869 4 8 C3.34 8.66 2.68 9.32 2 10 C-1.125 3.375 -1.125 3.375 0 0 Z " fill="#0B90D5" transform="translate(61,76)"/>
<path d="M0 0 C0.66 0.66 1.32 1.32 2 2 C2.99 2 3.98 2 5 2 C6 5 6 5 5.0625 7.1875 C4.5365625 8.0846875 4.5365625 8.0846875 4 9 C0 3.375 0 3.375 0 0 Z " fill="#077EBC" transform="translate(61,83)"/>
<path d="M0 0 C1.65 0 3.3 0 5 0 C5 1.32 5 2.64 5 4 C3.35 4 1.7 4 0 4 C0 2.68 0 1.36 0 0 Z " fill="#212226" transform="translate(194,81)"/>
<path d="M0 0 C0.66 0 1.32 0 2 0 C2 0.66 2 1.32 2 2 C1.34 2 0.68 2 0 2 C0 2.66 0 3.32 0 4 C1.65 4 3.3 4 5 4 C5 4.33 5 4.66 5 5 C2.36 5 -0.28 5 -3 5 C-1.125 1.125 -1.125 1.125 0 0 Z " fill="#DBEEF8" transform="translate(23,68)"/>
<path d="M0 0 C0.66 0 1.32 0 2 0 C1.67 3.63 1.34 7.26 1 11 C0.67 11 0.34 11 0 11 C-0.19406478 9.35492782 -0.38007935 7.70890406 -0.5625 6.0625 C-0.66691406 5.14597656 -0.77132812 4.22945313 -0.87890625 3.28515625 C-0.91886719 2.53105469 -0.95882812 1.77695312 -1 1 C-0.67 0.67 -0.34 0.34 0 0 Z " fill="#018BD2" transform="translate(91,62)"/>
</svg>
