<?xml version="1.0" encoding="UTF-8"?>
<svg version="1.1" xmlns="http://www.w3.org/2000/svg" width="406" height="143">
<path d="M0 0 C6.71654452 2.92169687 12.17105235 2.45720649 19.32910156 1.60986328 C39.6582907 -0.65468975 61.29089269 -0.33415744 78.703125 11.84765625 C80.59962047 13.51776825 81.93180961 15.35366221 83.4375 17.375 C85.09698148 18.38687895 86.76330562 19.3876546 88.4375 20.375 C90.42136826 23.35080239 91.01034529 25.68743992 91.80078125 29.12109375 C92.70321268 32.3155903 94.09066697 35.21757484 95.53515625 38.19921875 C97.50215475 42.94215453 97.56818886 47.60198266 97.75 52.6875 C98.10825884 59.75559462 99.2667018 65.2042018 104.4375 70.375 C104.17910101 76.57657567 101.8472762 81.70036573 99.4375 87.375 C93.1675 87.375 86.8975 87.375 80.4375 87.375 C81.6375 81.375 81.6375 81.375 84.4375 79.375 C86.09693243 79.00734132 87.76368981 78.67037827 89.4375 78.375 C88.46167969 78.13265625 87.48585938 77.8903125 86.48046875 77.640625 C85.20816406 77.30546875 83.93585938 76.9703125 82.625 76.625 C81.36042969 76.30015625 80.09585938 75.9753125 78.79296875 75.640625 C73.21979559 73.53852011 71.91422048 69.56431911 69.4375 64.375 C68.3953443 65.56207084 67.35380907 66.74968641 66.3125 67.9375 C65.67570313 68.66195312 65.03890625 69.38640625 64.3828125 70.1328125 C63.15257881 71.5507927 61.93693205 72.98167913 60.7421875 74.4296875 C60.22914063 75.05101563 59.71609375 75.67234375 59.1875 76.3125 C58.72859375 76.87839844 58.2696875 77.44429688 57.796875 78.02734375 C56.4375 79.375 56.4375 79.375 53.4375 80.375 C53.1075 82.685 52.7775 84.995 52.4375 87.375 C44.5175 87.375 36.5975 87.375 28.4375 87.375 C28.1075 86.055 27.7775 84.735 27.4375 83.375 C29.01448212 81.00952682 30.21320156 80.44228953 32.9375 79.625 C35.4375 79.375 35.4375 79.375 38.4375 80.375 C38.27636719 79.70597656 38.11523438 79.03695312 37.94921875 78.34765625 C37.33840651 74.79935002 37.2678754 71.41260547 37.25 67.8125 C37.23582031 66.51183594 37.22164063 65.21117188 37.20703125 63.87109375 C37.41686768 60.68798174 37.74057323 59.01093763 39.4375 56.375 C38.89222656 56.5915625 38.34695313 56.808125 37.78515625 57.03125 C32.25321591 59.07381259 27.33888302 60.02377784 21.4375 59.375 C20.7775 59.045 20.1175 58.715 19.4375 58.375 C19.7984375 59.02726562 20.159375 59.67953125 20.53125 60.3515625 C20.9953125 61.22554688 21.459375 62.09953125 21.9375 63 C22.63359375 64.28777344 22.63359375 64.28777344 23.34375 65.6015625 C25.0667153 69.97051021 24.96907241 72.99471368 23.28515625 77.3671875 C18.6586885 84.83837611 18.6586885 84.83837611 14.39013672 85.86962891 C9.3673293 86.33980778 4.43759602 85.9375108 -0.5625 85.375 C1.3125 80.5 1.3125 80.5 2.4375 79.375 C4.76567964 79.00739269 7.0993385 78.67258419 9.4375 78.375 C8.94459434 74.17080463 6.67459255 72.32633278 3.625 69.5625 C2.75230469 68.75167969 1.87960938 67.94085938 0.98046875 67.10546875 C-1.33566709 65.17761222 -1.33566709 65.17761222 -3.63671875 65.38671875 C-6.03044384 66.61514156 -7.64070543 68.11460306 -9.5625 70 C-13.92903196 74.04121087 -18.52941418 76.84545822 -23.765625 79.63671875 C-26.70796392 81.23712684 -26.70796392 81.23712684 -28.62109375 84.0625 C-33.39029287 87.81198988 -38.50698981 86.90118104 -44.375 86.6875 C-46.12973633 86.65366211 -46.12973633 86.65366211 -47.91992188 86.61914062 C-50.80208769 86.56032091 -53.68163681 86.47817141 -56.5625 86.375 C-54.96417025 83.03303779 -53.98997959 81.04479775 -50.5625 79.375 C-47.5097587 79.42772437 -44.56563371 79.84239295 -41.5625 80.375 C-41.39234375 79.78332031 -41.2221875 79.19164063 -41.046875 78.58203125 C-40.80453125 77.79183594 -40.5621875 77.00164062 -40.3125 76.1875 C-40.08046875 75.41019531 -39.8484375 74.63289063 -39.609375 73.83203125 C-38.5625 71.375 -38.5625 71.375 -36.55859375 69.05859375 C-34.09469595 65.74607362 -33.50026165 62.60672754 -32.875 58.625 C-31.6551504 51.4676504 -31.6551504 51.4676504 -30.5625 50.375 C-34.82719432 50.62586437 -36.99663639 50.87493448 -40.25 53.75 C-41.013125 54.61625 -41.77625 55.4825 -42.5625 56.375 C-44.88200286 58.53920137 -45.93207618 59.36547698 -49.1484375 59.4140625 C-50.06882813 59.27742188 -50.98921875 59.14078125 -51.9375 59 C-56.15088463 58.48373548 -59.37795329 58.60640979 -63.5625 59.375 C-70.43821609 60.17749712 -75.20406959 60.2695995 -80.8125 55.875 C-82.08746534 54.73566927 -83.34732683 53.5778987 -84.5625 52.375 C-83.15265 49.1798123 -81.42934818 47.05270868 -79 44.5625 C-75.61450484 40.81625535 -75.20029248 38.38622664 -74.5625 33.375 C-73.18578021 31.48148078 -71.65865402 29.84464304 -70.046875 28.1484375 C-68.50364794 26.30468728 -67.76177428 24.74385777 -66.9375 22.5 C-65.5625 19.375 -65.5625 19.375 -63.5 18.375 C-61.5625 18.375 -61.5625 18.375 -59.5625 19.375 C-58.9025 18.055 -58.2425 16.735 -57.5625 15.375 C-56.799375 15.54 -56.03625 15.705 -55.25 15.875 C-52.52653764 16.46645396 -52.52653764 16.46645396 -49.5625 16.375 C-48.675625 15.55 -47.78875 14.725 -46.875 13.875 C-41.52803619 9.05247187 -34.8567191 6.38789083 -28.42871094 3.29589844 C-25.32554115 1.76461162 -22.33845912 0.04281588 -19.359375 -1.71484375 C-12.57013552 -5.15374114 -6.44741189 -3.12391424 0 0 Z " fill="#82603E" transform="translate(249.5625,28.625)"/>
<path d="M0 0 C3.37720295 1.35365317 6.24612583 1.89843969 9.85546875 2.14453125 C8.53546875 2.47453125 7.21546875 2.80453125 5.85546875 3.14453125 C5.73558594 4.27117188 5.61570312 5.3978125 5.4921875 6.55859375 C4.89571 11.30751238 3.81877092 15.87860608 2.66796875 20.51953125 C2.22194094 22.36050393 1.77666569 24.20165905 1.33203125 26.04296875 C0.9767334 27.50814941 0.9767334 27.50814941 0.61425781 29.00292969 C-0.76458761 34.71174012 -2.1166488 40.42658067 -3.45703125 46.14453125 C-3.72346436 47.26005371 -3.98989746 48.37557617 -4.2644043 49.52490234 C-4.509729 50.57500488 -4.75505371 51.62510742 -5.0078125 52.70703125 C-5.22735596 53.63644531 -5.44689941 54.56585938 -5.6730957 55.5234375 C-6.23362453 58.14367766 -6.23362453 58.14367766 -6.0871582 60.84399414 C-6.14453125 63.14453125 -6.14453125 63.14453125 -8.19921875 65.390625 C-13.47128449 69.48706389 -18.66858095 73.30628118 -24.5625 76.46484375 C-27.12297593 77.98608638 -27.12297593 77.98608638 -28.76806641 79.86645508 C-32.79721916 84.03750913 -35.51992017 85.61726631 -41.39453125 85.828125 C-43.64555465 85.78205142 -45.89608815 85.69921815 -48.14453125 85.58203125 C-49.30082031 85.55044922 -50.45710938 85.51886719 -51.6484375 85.48632812 C-54.4831439 85.40433249 -57.31247232 85.28964238 -60.14453125 85.14453125 C-58.5462015 81.80256904 -57.57201084 79.814329 -54.14453125 78.14453125 C-51.09178995 78.19725562 -48.14766496 78.6119242 -45.14453125 79.14453125 C-44.974375 78.55285156 -44.80421875 77.96117188 -44.62890625 77.3515625 C-44.3865625 76.56136719 -44.14421875 75.77117187 -43.89453125 74.95703125 C-43.6625 74.17972656 -43.43046875 73.40242188 -43.19140625 72.6015625 C-42.14453125 70.14453125 -42.14453125 70.14453125 -40.140625 67.828125 C-37.6767272 64.51560487 -37.0822929 61.37625879 -36.45703125 57.39453125 C-35.23718165 50.23718165 -35.23718165 50.23718165 -34.14453125 49.14453125 C-38.40922557 49.39539562 -40.57866764 49.64446573 -43.83203125 52.51953125 C-44.59515625 53.38578125 -45.35828125 54.25203125 -46.14453125 55.14453125 C-48.46403411 57.30873262 -49.51410743 58.13500823 -52.73046875 58.18359375 C-53.65085938 58.04695313 -54.57125 57.9103125 -55.51953125 57.76953125 C-59.73291588 57.25326673 -62.95998454 57.37594104 -67.14453125 58.14453125 C-74.02024734 58.94702837 -78.78610084 59.03913075 -84.39453125 54.64453125 C-85.66949659 53.50520052 -86.92935808 52.34742995 -88.14453125 51.14453125 C-86.73468125 47.94934355 -85.01137943 45.82223993 -82.58203125 43.33203125 C-79.19653609 39.5857866 -78.78232373 37.15575789 -78.14453125 32.14453125 C-76.76781146 30.25101203 -75.24068527 28.61417429 -73.62890625 26.91796875 C-72.08567919 25.07421853 -71.34380553 23.51338902 -70.51953125 21.26953125 C-69.14453125 18.14453125 -69.14453125 18.14453125 -67.08203125 17.14453125 C-65.14453125 17.14453125 -65.14453125 17.14453125 -63.14453125 18.14453125 C-62.48453125 16.82453125 -61.82453125 15.50453125 -61.14453125 14.14453125 C-60.38140625 14.30953125 -59.61828125 14.47453125 -58.83203125 14.64453125 C-56.10856889 15.23598521 -56.10856889 15.23598521 -53.14453125 15.14453125 C-52.25765625 14.31953125 -51.37078125 13.49453125 -50.45703125 12.64453125 C-45.11006744 7.82200312 -38.43875035 5.15742208 -32.01074219 2.06542969 C-28.9075724 0.53414287 -25.92049037 -1.18765287 -22.94140625 -2.9453125 C-14.95622056 -6.98998264 -7.53098616 -3.31210671 0 0 Z " fill="#BD8A5E" transform="translate(253.14453125,29.85546875)"/>
<path d="M0 0 C2 3 2 3 1.75195312 6.28442383 C1.04051055 9.79982788 0.1281061 13.05779546 -1.03125 16.44921875 C-1.42957031 17.62677734 -1.82789062 18.80433594 -2.23828125 20.01757812 C-2.86283203 21.83418945 -2.86283203 21.83418945 -3.5 23.6875 C-4.32415305 26.10765223 -5.14712201 28.52820811 -5.96875 30.94921875 C-6.51692383 32.54769653 -6.51692383 32.54769653 -7.07617188 34.1784668 C-7.81827582 36.44498245 -8.46584921 38.67777247 -9 41 C-6.69 41.33 -4.38 41.66 -2 42 C-1.375 44.3125 -1.375 44.3125 -1 47 C-3 50 -3 50 -4.9453125 50.51171875 C-5.66460937 50.56972656 -6.38390625 50.62773438 -7.125 50.6875 C-9.043125 50.8421875 -9.043125 50.8421875 -11 51 C-12.32 55.62 -13.64 60.24 -15 65 C-16.32 65.33 -17.64 65.66 -19 66 C-22.13269705 62.86730295 -22.05494397 60.02671577 -22.0625 55.75 C-22.041875 54.5125 -22.02125 53.275 -22 52 C-30.3277609 54.18812883 -37.23371904 56.61715938 -44 62 C-44.71414062 62.55171875 -45.42828125 63.1034375 -46.1640625 63.671875 C-51.42479878 68.02174175 -55.49449211 72.97701985 -59.62792969 78.35546875 C-76.42924879 100.21462439 -76.42924879 100.21462439 -88 106 C-93.20185538 106.51848559 -97.63560371 106.62018013 -102.4375 104.4375 C-107.01342528 100.08479059 -109.5416975 95.63709999 -110.03125 89.28515625 C-109.68511215 63.97382568 -90.79548218 39.25579059 -74.0625 21.75 C-67.66601452 15.53261611 -59.80082146 8.84086966 -50.5 8.5625 C-46.99845007 8.66171058 -46.04929206 8.96713863 -43 11 C-39.99749418 15.50375873 -39.51657357 19.18691857 -40.41015625 24.38671875 C-43.18491839 34.97069172 -49.7952173 45.8634782 -59 52 C-63.54054054 51.45945946 -63.54054054 51.45945946 -65 50 C-65.3515625 47.703125 -65.3515625 47.703125 -65 45 C-63.0234375 42.859375 -63.0234375 42.859375 -60.375 40.75 C-53.17519975 34.60059554 -48.49509684 28.46894663 -47 19 C-47.495 18.01 -47.495 18.01 -48 17 C-60.04561576 18.1472015 -69.44870319 29.82147547 -76.80981445 38.56811523 C-85.57303574 49.40948513 -92.9141108 61.63304122 -97 75 C-97.25394531 75.81855469 -97.50789063 76.63710937 -97.76953125 77.48046875 C-99.16602823 82.71508002 -99.4562506 87.73428227 -98 93 C-96.04391171 95.79441184 -94.8624805 96.73658231 -91.62109375 97.7265625 C-87.55988131 98.15023593 -85.68678027 96.50197969 -82.46484375 94.19140625 C-75.25646473 87.78268893 -70.11512524 79.30312743 -65.07421875 71.171875 C-52.77557013 52.36490197 -38.58627025 34.08839848 -24 17 C-22.89978516 15.69869141 -22.89978516 15.69869141 -21.77734375 14.37109375 C-7.66636424 -1.86984494 -7.66636424 -1.86984494 0 0 Z M-12 16 C-22.88016224 26.64491956 -22.88016224 26.64491956 -33 38 C-33.79664062 38.96550781 -34.59328125 39.93101563 -35.4140625 40.92578125 C-37.61777642 43.61049156 -39.81273799 46.30188088 -42 49 C-41.67 49.66 -41.34 50.32 -41 51 C-40.23816406 50.66226563 -39.47632812 50.32453125 -38.69140625 49.9765625 C-29.24776883 45.89728841 -29.24776883 45.89728841 -23.9375 45.1875 C-21.89505822 44.85656498 -21.89505822 44.85656498 -20 44 C-18.81157002 41.31324564 -17.87904561 38.78612762 -17 36 C-16.45597929 34.44951639 -15.90906603 32.90004489 -15.359375 31.3515625 C-14.82132305 29.77658519 -14.28487359 28.20105954 -13.75 26.625 C-13.46898438 25.81933594 -13.18796875 25.01367188 -12.8984375 24.18359375 C-12.63804688 23.41402344 -12.37765625 22.64445312 -12.109375 21.8515625 C-11.87186523 21.15885254 -11.63435547 20.46614258 -11.38964844 19.75244141 C-10.78530278 17.90382427 -10.78530278 17.90382427 -12 16 Z " fill="#126C9C" transform="translate(110,17)"/>
<path d="M0 0 C1.22873337 -0.00701431 2.45746674 -0.01402863 3.72343445 -0.02125549 C7.6606921 -0.03864076 11.59786839 -0.04568847 15.53515625 -0.046875 C16.54086292 -0.04753778 16.54086292 -0.04753778 17.5668869 -0.04821396 C37.71020029 -0.05517573 57.65135108 0.07488603 77.59765625 3.203125 C78.73090332 3.38004883 79.86415039 3.55697266 81.03173828 3.73925781 C96.64328076 6.27868276 111.60597477 10.20589784 126.59765625 15.203125 C126.59765625 15.863125 126.59765625 16.523125 126.59765625 17.203125 C123.41001821 17.08114087 120.22256404 16.95593091 117.03515625 16.828125 C116.01498917 16.78753464 114.99482208 16.74694427 113.94374084 16.7051239 C107.35254814 16.43200102 100.76860201 16.10752516 94.18359375 15.71557617 C70.44614894 14.3227553 46.77849939 13.84187604 23.00249481 13.88607788 C20.11105287 13.89070355 17.21963138 13.89126378 14.32818604 13.89111328 C-15.0830371 13.89985413 -44.3029505 14.71596266 -73.64936829 16.74250793 C-81.24592353 17.24730167 -88.79078389 17.366327 -96.40234375 17.203125 C-77.80485798 -1.39436077 -24.27230609 0.09344436 0 0 Z " fill="#0B8949" transform="translate(254.40234375,117.796875)"/>
<path d="M0 0 C0.09498779 0.5762915 0.18997559 1.15258301 0.2878418 1.74633789 C2.31916941 13.97408624 4.55597224 26.11379648 7.33666992 38.19555664 C8.60651885 43.798784 9.46969072 49.2773218 10 55 C4.17676862 57.54104642 -0.63041237 58.68717543 -7 58 C-7.66 57.67 -8.32 57.34 -9 57 C-8.6390625 57.65226562 -8.278125 58.30453125 -7.90625 58.9765625 C-7.4421875 59.85054687 -6.978125 60.72453125 -6.5 61.625 C-6.0359375 62.48351562 -5.571875 63.34203125 -5.09375 64.2265625 C-3.3707847 68.59551021 -3.46842759 71.61971368 -5.15234375 75.9921875 C-9.7788115 83.46337611 -9.7788115 83.46337611 -14.04736328 84.49462891 C-19.0701707 84.96480778 -23.99990398 84.5625108 -29 84 C-27.125 79.125 -27.125 79.125 -26 78 C-23.67182036 77.63239269 -21.3381615 77.29758419 -19 77 C-19.23612229 73.63132204 -20.19965196 72.81788122 -22.7578125 70.484375 C-24.44071578 69.09727895 -26.13711068 67.7407612 -27.87109375 66.41796875 C-29.5078125 65.046875 -29.5078125 65.046875 -32 62 C-32.03367344 58.89867643 -31.75343789 56.93576738 -31 54 C-30.70923584 52.64527588 -30.70923584 52.64527588 -30.41259766 51.26318359 C-29.72967048 48.10316359 -28.99476213 44.958498 -28.25 41.8125 C-27.98485596 40.6786084 -27.71971191 39.5447168 -27.4465332 38.37646484 C-26.63587872 34.91647822 -25.81894257 31.45803344 -25 28 C-24.62657471 26.41952881 -24.62657471 26.41952881 -24.24560547 24.80712891 C-20.50669798 8.99493074 -20.50669798 8.99493074 -19 3 C-17.68 3 -16.36 3 -15 3 C-15 2.34 -15 1.68 -15 1 C-9.92932037 0.28832567 -5.13401853 -0.04978442 0 0 Z " fill="#9C774D" transform="translate(278,30)"/>
<path d="M0 0 C3 1 3 1 4.3515625 3.328125 C4.98191406 4.77445313 4.98191406 4.77445313 5.625 6.25 C6.05039062 7.20390625 6.47578125 8.1578125 6.9140625 9.140625 C8.84958911 14.23704759 9.11838941 18.88294938 9.3125 24.3125 C9.67075884 31.38059462 10.8292018 36.8292018 16 42 C15.74160101 48.20157567 13.4097762 53.32536573 11 59 C4.73 59 -1.54 59 -8 59 C-6.8 53 -6.8 53 -4 51 C-2.34056757 50.63234132 -0.67381019 50.29537827 1 50 C0.02417969 49.75765625 -0.95164062 49.5153125 -1.95703125 49.265625 C-3.22933594 48.93046875 -4.50164062 48.5953125 -5.8125 48.25 C-7.07707031 47.92515625 -8.34164063 47.6003125 -9.64453125 47.265625 C-14.08925674 45.58915113 -15.12388973 43.66460952 -17.25 39.625 C-18.51848413 35.18530555 -17.43107321 31.8816979 -15.43359375 27.79614258 C-14.77488281 26.67361084 -14.11617188 25.5510791 -13.4375 24.39453125 C-12.91047485 23.48570442 -12.91047485 23.48570442 -12.37280273 22.55851746 C-11.25715817 20.63799158 -10.12925493 18.72504896 -9 16.8125 C-7.87305911 14.887991 -6.74876723 12.96199142 -5.62719727 11.03434753 C-4.61193086 9.29186833 -3.5893521 7.55365583 -2.56640625 5.81567383 C-0.91359316 3.04887941 -0.91359316 3.04887941 0 0 Z " fill="#705A3A" transform="translate(338,57)"/>
<path d="M0 0 C3.88350508 0.62503333 7.07517989 1.80426272 10.6328125 3.46875 C11.68597656 3.95730469 12.73914063 4.44585937 13.82421875 4.94921875 C14.91347656 5.46097656 16.00273437 5.97273438 17.125 6.5 C19.29366976 7.51170611 21.46291451 8.52218087 23.6328125 9.53125 C25.06971436 10.20510742 25.06971436 10.20510742 26.53564453 10.89257812 C29.05355351 12.07363712 29.05355351 12.07363712 32 13 C32 14.32 32 15.64 32 17 C31.01 17 30.02 17 29 17 C29 17.66 29 18.32 29 19 C27.54176788 19.0270043 26.08339325 19.04639787 24.625 19.0625 C23.81289063 19.07410156 23.00078125 19.08570312 22.1640625 19.09765625 C20 19 20 19 18 18 C18.3609375 18.65226562 18.721875 19.30453125 19.09375 19.9765625 C19.5578125 20.85054687 20.021875 21.72453125 20.5 22.625 C20.9640625 23.48351562 21.428125 24.34203125 21.90625 25.2265625 C23.6292153 29.59551021 23.53157241 32.61971368 21.84765625 36.9921875 C17.2211885 44.46337611 17.2211885 44.46337611 12.95263672 45.49462891 C7.9298293 45.96480778 3.00009602 45.5625108 -2 45 C-0.125 40.125 -0.125 40.125 1 39 C3.32817964 38.63239269 5.6618385 38.29758419 8 38 C7.76387771 34.63132204 6.80034804 33.81788122 4.2421875 31.484375 C2.55928422 30.09727895 0.86288932 28.7407612 -0.87109375 27.41796875 C-2.5078125 26.046875 -2.5078125 26.046875 -5 23 C-4.9694936 19.90360031 -4.76593324 17.89424075 -4 15 C-3.7628125 13.91074219 -3.525625 12.82148437 -3.28125 11.69921875 C-2.89453125 10.20841797 -2.89453125 10.20841797 -2.5 8.6875 C-2.2421875 7.68074219 -1.984375 6.67398438 -1.71875 5.63671875 C-1.20214286 3.74155668 -0.62117004 1.86351012 0 0 Z " fill="#8D6339" transform="translate(251,69)"/>
<path d="M0 0 C-1.52169986 8.36934923 -4.44164304 16.14793342 -7.32763672 24.12060547 C-8.09149431 26.25574554 -8.80541948 28.40389349 -9.5 30.5625 C-11.75738116 37.45777337 -14.42843181 44.21738488 -17 51 C-21.16988453 47.35993609 -23.65604338 42.89722916 -26.4375 38.1875 C-27.37104837 36.61691168 -28.30721902 35.04787886 -29.24609375 33.48046875 C-29.69839355 32.7229834 -30.15069336 31.96549805 -30.61669922 31.18505859 C-31.94738801 29.08310578 -33.39063713 27.14354539 -34.91015625 25.17578125 C-37 22 -37 22 -36.79150391 19.95776367 C-34.48338768 14.24870013 -27.42630061 11.47323746 -22.1875 9 C-20.76733572 8.31434748 -19.34805764 7.62685629 -17.9296875 6.9375 C-17.25260742 6.60878906 -16.57552734 6.28007813 -15.87792969 5.94140625 C-12.78871765 4.3927841 -9.83124589 2.63075102 -6.89453125 0.8125 C-4.50909296 -0.21053333 -2.56793886 -0.14192408 0 0 Z " fill="#8D6C46" transform="translate(237,26)"/>
<path d="M0 0 C6.40828261 0.36970861 11.28928517 2.28034785 17.14453125 4.85546875 C20.5217342 6.20912192 23.39065708 6.75390844 27 7 C25.68 7.33 24.36 7.66 23 8 C22.8865625 9.10085937 22.773125 10.20171875 22.65625 11.3359375 C22.00643016 16.53220812 20.76186547 21.54869547 19.5 26.625 C17.48528805 34.75731702 17.48528805 34.75731702 16 43 C12.43330196 42.39768601 9.42191371 41.43842499 6.13671875 39.93359375 C5.25048828 39.53076172 4.36425781 39.12792969 3.45117188 38.71289062 C2.53916016 38.29201172 1.62714844 37.87113281 0.6875 37.4375 C-0.24384766 37.01275391 -1.17519531 36.58800781 -2.13476562 36.15039062 C-4.4253672 35.10493657 -6.71363659 34.05468244 -9 33 C-7.28649648 25.62674242 -4.88020572 18.5685069 -2.390625 11.42578125 C-2.08382812 10.52730469 -1.77703125 9.62882812 -1.4609375 8.703125 C-1.18040527 7.89520508 -0.89987305 7.08728516 -0.61083984 6.25488281 C0.17431485 3.74588523 0.17431485 3.74588523 0 0 Z " fill="#BC8A5D" transform="translate(236,25)"/>
<path d="M0 0 C6.2189183 0.23144842 11.1153277 3.55750891 16.375 6.5625 C17.30183594 7.08263672 18.22867188 7.60277344 19.18359375 8.13867188 C21.46034654 9.41787834 23.73213523 10.70512238 26 12 C24.77580149 17.79895385 20.58805778 20.51490348 16 24 C12.977848 25.85684687 9.92667428 27.59332046 6.796875 29.26171875 C3.85453608 30.86212684 3.85453608 30.86212684 1.94140625 33.6875 C-2.82779287 37.43698988 -7.94448981 36.52618104 -13.8125 36.3125 C-14.98232422 36.28994141 -16.15214844 36.26738281 -17.35742188 36.24414062 C-20.23958769 36.18532091 -23.11913681 36.10317141 -26 36 C-24.40167025 32.65803779 -23.42747959 30.66979775 -20 29 C-16.9472587 29.05272437 -14.00313371 29.46739295 -11 30 C-10.82984375 29.40832031 -10.6596875 28.81664063 -10.484375 28.20703125 C-10.24203125 27.41683594 -9.9996875 26.62664062 -9.75 25.8125 C-9.51796875 25.03519531 -9.2859375 24.25789063 -9.046875 23.45703125 C-8 21 -8 21 -5.99609375 18.68359375 C-3.53219595 15.37107362 -2.93776165 12.23172754 -2.3125 8.25 C-1.0926504 1.0926504 -1.0926504 1.0926504 0 0 Z " fill="#8D643B" transform="translate(219,79)"/>
<path d="M0 0 C1.07354736 0.22518311 2.14709473 0.45036621 3.25317383 0.68237305 C4.41655273 0.91762695 5.57993164 1.15288086 6.77856445 1.39526367 C7.99350586 1.65887695 9.20844727 1.92249023 10.46020508 2.1940918 C11.68674805 2.44610352 12.91329102 2.69811523 14.17700195 2.95776367 C17.21243932 3.58374881 20.24364141 4.22557394 23.27270508 4.8815918 C23.87866211 6.71337891 23.87866211 6.71337891 24.27270508 8.8815918 C22.57739258 11.57299805 22.57739258 11.57299805 20.14770508 14.4440918 C19.36137695 15.39413086 18.57504883 16.34416992 17.76489258 17.32299805 C15.27270508 19.8815918 15.27270508 19.8815918 12.53051758 21.28393555 C11.78543945 21.81116211 11.04036133 22.33838867 10.27270508 22.8815918 C9.94270508 25.1915918 9.61270508 27.5015918 9.27270508 29.8815918 C1.35270508 29.8815918 -6.56729492 29.8815918 -14.72729492 29.8815918 C-15.05729492 28.5615918 -15.38729492 27.2415918 -15.72729492 25.8815918 C-14.1503128 23.51611862 -12.95159336 22.94888133 -10.22729492 22.1315918 C-7.72729492 21.8815918 -7.72729492 21.8815918 -4.72729492 22.8815918 C-4.88713867 22.21385742 -5.04698242 21.54612305 -5.21166992 20.8581543 C-5.8293117 17.29267677 -5.93447694 13.87471125 -5.97729492 10.2565918 C-6.00307617 8.94432617 -6.02885742 7.63206055 -6.05541992 6.2800293 C-5.72729492 2.8815918 -5.72729492 2.8815918 -4.58056641 1.11914062 C-2.72729492 -0.1184082 -2.72729492 -0.1184082 0 0 Z " fill="#6E5738" transform="translate(292.727294921875,86.118408203125)"/>
<path d="M0 0 C-2.64415988 5.45928552 -5.75894971 10.67114744 -8.76708984 15.93505859 C-9.86661617 17.86031998 -10.96268477 19.78752157 -12.05859375 21.71484375 C-12.76541333 22.95324584 -13.47243802 24.19153088 -14.1796875 25.4296875 C-14.81632324 26.54585449 -15.45295898 27.66202148 -16.10888672 28.81201172 C-17.9752331 31.95824863 -19.94344561 34.97646024 -22 38 C-22.66 37.34 -23.32 36.68 -24 36 C-26.70674014 35.25501421 -26.70674014 35.25501421 -29.8828125 34.7109375 C-31.63271484 34.38222656 -31.63271484 34.38222656 -33.41796875 34.046875 C-35.25294922 33.71429688 -35.25294922 33.71429688 -37.125 33.375 C-38.35605469 33.14554688 -39.58710938 32.91609375 -40.85546875 32.6796875 C-43.90242508 32.1128119 -46.95054335 31.5532396 -50 31 C-50 30.01 -50 29.02 -50 28 C-47.73120117 26.2734375 -47.73120117 26.2734375 -44.54296875 24.375 C-43.97229675 24.03121811 -43.40162476 23.68743622 -42.81365967 23.33323669 C-40.94459596 22.21117067 -39.06650995 21.10531571 -37.1875 20 C-35.90588063 19.2365146 -34.6247131 18.47227023 -33.34399414 17.70727539 C-30.15995574 15.80942261 -26.96788922 13.92555817 -23.77319336 12.04571533 C-21.18186745 10.51751807 -18.59939011 8.97452995 -16.015625 7.43359375 C-14.32371829 6.43353839 -12.63107155 5.43473338 -10.9375 4.4375 C-10.16623779 3.97923828 -9.39497559 3.52097656 -8.6003418 3.04882812 C-3.35071589 0 -3.35071589 0 0 0 Z " fill="#8D6B45" transform="translate(340,56)"/>
<path d="M0 0 C8.40193774 2.50584108 16.11941439 6.21025857 24 10 C23.24886906 15.7611014 22.0191629 21.28164995 20.62109375 26.9140625 C20.05680581 29.71775729 19.87830364 32.15336331 20 35 C19.34 35 18.68 35 18 35 C18 34.34 18 33.68 18 33 C17.35417969 32.7628125 16.70835937 32.525625 16.04296875 32.28125 C12.00603285 30.58148752 8.17912561 28.5530175 4.3125 26.5 C3.54099609 26.09652344 2.76949219 25.69304687 1.97460938 25.27734375 C1.23662109 24.88675781 0.49863281 24.49617188 -0.26171875 24.09375 C-0.93162842 23.73990234 -1.60153809 23.38605469 -2.29174805 23.02148438 C-4 22 -4 22 -6 20 C-5.78079809 13.9719474 -4.42368478 4.42368478 0 0 Z " fill="#C69C6C" transform="translate(227,58)"/>
<path d="M0 0 C0.66 0 1.32 0 2 0 C2.67031719 1.9570868 3.33614683 3.91571113 4 5.875 C4.556875 7.51082031 4.556875 7.51082031 5.125 9.1796875 C6 12 6 12 6 14 C10.95 14 15.9 14 21 14 C21 14.66 21 15.32 21 16 C18.8125 17.7265625 18.8125 17.7265625 16 19.625 C14.6078125 20.57246094 14.6078125 20.57246094 13.1875 21.5390625 C12.1046875 22.26222656 12.1046875 22.26222656 11 23 C11.64187918 28.13503344 12.68272247 32.9943454 14 38 C10.64079333 36.88026444 8.23015393 35.44248686 5.5 33.25 C2.83650502 31.22025885 2.83650502 31.22025885 -0.4375 31.3125 C-4.08594233 33.71513276 -7.57117009 36.29437243 -11 39 C-12 37 -12 37 -11.00390625 33.7421875 C-10.53110016 32.4502948 -10.05028031 31.16131362 -9.5625 29.875 C-9.31951172 29.21628906 -9.07652344 28.55757812 -8.82617188 27.87890625 C-8.22421679 26.25008662 -7.61297588 24.62470425 -7 23 C-7.74636719 22.7215625 -8.49273437 22.443125 -9.26171875 22.15625 C-11.71116099 21.1219634 -13.65979103 20.03831927 -15.8125 18.5 C-16.41707031 18.0771875 -17.02164063 17.654375 -17.64453125 17.21875 C-18.09183594 16.8165625 -18.53914062 16.414375 -19 16 C-19 15.34 -19 14.68 -19 14 C-14.05 14 -9.1 14 -4 14 C-3.525625 12.246875 -3.05125 10.49375 -2.5625 8.6875 C-1.77029018 5.75976807 -0.95928532 2.87785595 0 0 Z " fill="#B81839" transform="translate(184,0)"/>
<path d="M0 0 C1.2065625 0.9590625 1.2065625 0.9590625 2.4375 1.9375 C1.06766497 5.09865776 0.4484362 5.9302092 -2.5625 7.9375 C-3.078125 7.4425 -3.59375 6.9475 -4.125 6.4375 C-7.52631375 4.34438385 -9.63322743 4.38602315 -13.5625 4.9375 C-16.94371991 7.38348887 -18.33186783 8.83046559 -19.1875 12.9375 C-18.33868008 17.0118356 -16.88524404 18.48155875 -13.5625 20.9375 C-9.42025694 21.51741403 -8.08074511 21.28299674 -4.5625 18.9375 C-6.5425 18.6075 -8.5225 18.2775 -10.5625 17.9375 C-10.5625 15.9575 -10.5625 13.9775 -10.5625 11.9375 C-5.6125 11.9375 -0.6625 11.9375 4.4375 11.9375 C4.4375 18.07485285 3.9723319 20.30242241 0.4375 24.9375 C-2.76620682 27.94704277 -5.68860548 28.18900188 -9.9375 28.375 C-15.38399805 28.19173963 -18.32202311 27.39911379 -22.5625 23.9375 C-25.78672968 19.88151251 -26.89171644 16.03539231 -26.6875 10.875 C-25.87699738 5.61483799 -23.7585373 2.19582242 -19.5625 -1.0625 C-13.1775629 -3.95379227 -5.93423501 -3.93283028 0 0 Z " fill="#FDB71D" transform="translate(86.5625,88.0625)"/>
<path d="M0 0 C3.70690466 3.18966215 5.35775293 5.8129358 6.00390625 10.7109375 C6.3213453 17.53075713 4.57713163 20.96052731 0.125 26.125 C-3.81942233 29.38343584 -9.50334657 28.74409069 -14.3125 28.3125 C-18.04363266 26.69026841 -20.63908788 24.36782814 -23.3125 21.3125 C-25.26142318 15.46573045 -25.30594445 9.37297738 -22.625 3.8125 C-16.14294454 -3.19512752 -8.45965671 -4.30963644 0 0 Z M-17.3125 8.3125 C-18.46138518 12.26179279 -18.74379396 14.34208859 -17.0625 18.125 C-14.76610955 20.99548807 -13.09272168 22.19377061 -9.4375 22.75 C-5.19177201 22.15559808 -3.87897639 20.68558325 -1.3125 17.3125 C-0.06572994 14.41543293 -0.06572994 14.41543293 -0.3125 11.3125 C-2.55971141 7.0704186 -2.55971141 7.0704186 -6.3125 4.3125 C-11.36594865 3.75100571 -13.8846945 4.4929453 -17.3125 8.3125 Z " fill="#FDB71D" transform="translate(116.3125,87.6875)"/>
<path d="M0 0 C3.38630085 4.64048635 4.40965123 8.00270358 4.00390625 13.74609375 C2.22062438 18.37658159 -0.05231498 21.71282498 -3.99609375 24.74609375 C-9.56519028 26.09154922 -15.36602409 25.37947659 -20.99609375 24.74609375 C-19.12109375 19.87109375 -19.12109375 19.87109375 -17.99609375 18.74609375 C-15.66791411 18.37848644 -13.33425525 18.04367794 -10.99609375 17.74609375 C-11.4587936 13.45381433 -13.89768833 11.7168731 -17.05859375 8.99609375 C-17.97769531 8.196875 -18.89679688 7.39765625 -19.84375 6.57421875 C-20.55402344 5.9709375 -21.26429688 5.36765625 -21.99609375 4.74609375 C-21.66609375 3.75609375 -21.33609375 2.76609375 -20.99609375 1.74609375 C-18.22739621 0.45392802 -15.21779871 -0.07809796 -12.24609375 -0.75390625 C-11.02792969 -1.08261719 -11.02792969 -1.08261719 -9.78515625 -1.41796875 C-3.74254278 -2.81544613 -3.74254278 -2.81544613 0 0 Z " fill="#5B492C" transform="translate(269.99609375,89.25390625)"/>
<path d="M0 0 C2.31 0 4.62 0 7 0 C8.98 5.28 10.96 10.56 13 16 C15.10850329 12.83724506 16.28830876 9.86528462 17.625 6.3125 C18.07101563 5.13300781 18.51703125 3.95351562 18.9765625 2.73828125 C19.31429687 1.83464844 19.65203125 0.93101563 20 0 C22.31 0 24.62 0 27 0 C25.10229365 6.80941689 22.81009268 13.4302967 20.375 20.0625 C20.06167725 20.92012939 19.74835449 21.77775879 19.42553711 22.66137695 C19.12784424 23.46534912 18.83015137 24.26932129 18.5234375 25.09765625 C18.25450684 25.82476807 17.98557617 26.55187988 17.70849609 27.30102539 C17 29 17 29 16 30 C14.00041636 30.04080783 11.99954746 30.04254356 10 30 C8.57180601 26.05043587 7.14775072 22.09941203 5.72753906 18.14697266 C5.24365357 16.80216068 4.75863256 15.45775672 4.27246094 14.11376953 C3.57449334 12.18367547 2.88060102 10.25215863 2.1875 8.3203125 C1.76855469 7.15773926 1.34960938 5.99516602 0.91796875 4.79736328 C0 2 0 2 0 0 Z " fill="#FDB71D" transform="translate(120,86)"/>
<path d="M0 0 C9.11588896 2.65189497 17.4774059 6.8805831 26 11 C25.44392959 16.01741692 24.31880666 20.25835268 22.4375 24.9375 C21.98246094 26.08089844 21.52742188 27.22429687 21.05859375 28.40234375 C20.70925781 29.25957031 20.35992187 30.11679688 20 31 C15.83011547 27.35993609 13.34395662 22.89722916 10.5625 18.1875 C7.89359337 13.69736998 5.24890095 9.26205541 2.15234375 5.05078125 C0 2 0 2 0 0 Z " fill="#6B5435" transform="translate(200,46)"/>
<path d="M0 0 C3.43284952 1.14428317 3.6368219 1.54740897 5.1875 4.625 C7.00925454 8.5804048 7.84242017 11.61941513 7 16 C5.64233258 16.9554744 4.27411686 17.89867407 2.86279297 18.77294922 C-0.91083274 21.25869533 -4.29046167 24.28872732 -7.75 27.1875 C-9.26417757 28.45355603 -10.77973559 29.71796346 -12.296875 30.98046875 C-13.29219238 31.81421021 -13.29219238 31.81421021 -14.30761719 32.66479492 C-16 34 -16 34 -18 35 C-16.66751287 30.56155374 -14.90747266 26.82150507 -12.55859375 22.83203125 C-12.23085464 22.27053879 -11.90311554 21.70904633 -11.56544495 21.13053894 C-10.52803218 19.35472847 -9.48331986 17.58337014 -8.4375 15.8125 C-7.05763794 13.46689292 -5.68238995 11.11870942 -4.30859375 8.76953125 C-3.69814209 7.73417236 -3.08769043 6.69881348 -2.45874023 5.63208008 C-0.9031188 3.01482571 -0.9031188 3.01482571 0 0 Z " fill="#584527" transform="translate(338,57)"/>
<path d="M0 0 C2.9375 0.75 2.9375 0.75 4.9375 2.75 C5.26765665 5.85347254 5.44281294 7.90781176 3.8125 10.625 C1.05659116 12.27854531 -0.91325452 12.14365568 -4.0625 11.75 C-6 10.6875 -6 10.6875 -7.0625 8.75 C-6.9375 5.1875 -6.9375 5.1875 -6.0625 1.75 C-3.0625 -0.25 -3.0625 -0.25 0 0 Z " fill="#FDB71D" transform="translate(56.0625,105.25)"/>
<path d="M0 0 C-0.33 1.65 -0.66 3.3 -1 5 C-5.95 5 -10.9 5 -16 5 C-13.63746991 2.63746991 -11.68772729 1.962152 -8.5625 0.8125 C-7.59441406 0.44769531 -6.62632812 0.08289063 -5.62890625 -0.29296875 C-3 -1 -3 -1 0 0 Z " fill="#219156" transform="translate(174,130)"/>
<path d="M0 0 C6.17222879 1.24028238 12.06682122 2.89603589 18 5 C18 5.66 18 6.32 18 7 C12.84828377 7.09038099 8.08086796 6.84681133 3 6 C3 5.01 3 4.02 3 3 C2.16666667 0.83333333 2.16666667 0.83333333 0 0 Z " fill="#26945A" transform="translate(363,128)"/>
<path d="M0 0 C0.33 0.99 0.66 1.98 1 3 C8.59 3 16.18 3 24 3 C24 3.66 24 4.32 24 5 C16.08 5 8.16 5 0 5 C-0.33 3.68 -0.66 2.36 -1 1 C-0.67 0.67 -0.34 0.34 0 0 Z " fill="#83694E" transform="translate(278,111)"/>
<path d="M0 0 C0.66 0 1.32 0 2 0 C2.66 2.64 3.32 5.28 4 8 C3.01 7.67 2.02 7.34 1 7 C0.731875 7.969375 0.46375 8.93875 0.1875 9.9375 C-0.204375 10.948125 -0.59625 11.95875 -1 13 C-1.99 13.33 -2.98 13.66 -4 14 C-3.52188823 12.22888156 -3.0424722 10.45811517 -2.5625 8.6875 C-2.29566406 7.70136719 -2.02882812 6.71523437 -1.75390625 5.69921875 C-1.21920575 3.78482474 -0.62855462 1.88566385 0 0 Z " fill="#C33B56" transform="translate(184,0)"/>
<path d="M0 0 C0.33 0.66 0.66 1.32 1 2 C1.62044189 1.96970703 2.24088379 1.93941406 2.88012695 1.90820312 C5.69088218 1.77138831 8.50168985 1.63568164 11.3125 1.5 C12.77719727 1.42845703 12.77719727 1.42845703 14.27148438 1.35546875 C15.20927734 1.31035156 16.14707031 1.26523438 17.11328125 1.21875 C17.97735596 1.17685547 18.84143066 1.13496094 19.73168945 1.09179688 C21.48662304 1.02077599 23.24362992 1 25 1 C24.67 1.66 24.34 2.32 24 3 C15.75 3 7.5 3 -1 3 C-0.67 2.01 -0.34 1.02 0 0 Z " fill="#9A7652" transform="translate(194,112)"/>
<path d="M0 0 C0.33 0.99 0.66 1.98 1 3 C-0.11375 3.309375 -0.11375 3.309375 -1.25 3.625 C-4.79231177 5.39615589 -6.02446841 7.63427951 -8 11 C-8.66 10.67 -9.32 10.34 -10 10 C-9.43457996 8.67968405 -8.84693528 7.3688699 -8.25 6.0625 C-7.92515625 5.33160156 -7.6003125 4.60070313 -7.265625 3.84765625 C-6 2 -6 2 -3.984375 1.18359375 C-2 1 -2 1 0 2 C0 1.34 0 0.68 0 0 Z " fill="#C49770" transform="translate(190,46)"/>
<path d="M0 0 C4.95 0 9.9 0 15 0 C15 0.33 15 0.66 15 1 C11.7 1 8.4 1 5 1 C5 1.99 5 2.98 5 4 C2.525 3.01 2.525 3.01 0 2 C0 1.34 0 0.68 0 0 Z " fill="#C5435D" transform="translate(165,14)"/>
<path d="M0 0 C0.33 0.66 0.66 1.32 1 2 C1.66 2 2.32 2 3 2 C3.33 3.65 3.66 5.3 4 7 C1.5625 6.1875 1.5625 6.1875 -1 5 C-1.33 4.01 -1.66 3.02 -2 2 C-1.34 2 -0.68 2 0 2 C0 1.34 0 0.68 0 0 Z " fill="#BE2D49" transform="translate(194,31)"/>
<path d="M0 0 C0.99 0.66 1.98 1.32 3 2 C1.87926138 2.83905565 0.75325453 3.67107831 -0.375 4.5 C-1.00148437 4.9640625 -1.62796875 5.428125 -2.2734375 5.90625 C-4 7 -4 7 -6 7 C-4.60667426 3.63279613 -3.0210714 2.0140476 0 0 Z " fill="#BE2A48" transform="translate(183,28)"/>
</svg>
