<?xml version="1.0" encoding="UTF-8"?>
<svg version="1.1" xmlns="http://www.w3.org/2000/svg" width="960" height="208">
<path d="M0 0 C16.44665884 16.12266041 24.05751133 36.61744845 24.62280273 59.2902832 C24.70870956 82.35373869 15.77889194 102.5784254 0.21264648 119.2199707 C-18.32502185 136.9649098 -43.50272255 143.3003715 -68.49438477 142.9543457 C-93.39118299 142.1343305 -115.63427616 132.03096196 -132.68579102 113.8527832 C-139.91863889 105.71771946 -144.86769988 95.91206755 -148.41235352 85.6809082 C-148.73204102 84.78114258 -149.05172852 83.88137695 -149.38110352 82.9543457 C-155.62139698 61.51778204 -152.04713789 37.70063623 -141.54125977 18.37231445 C-129.88647774 -2.19650113 -111.38571527 -14.65143648 -89.06469727 -21.3190918 C-58.10751259 -29.14302182 -23.47654545 -22.15945919 0 0 Z M-91.41235352 32.6809082 C-99.14682148 44.88012269 -101.35249396 57.67724308 -98.28735352 71.8059082 C-95.30867235 82.40447142 -89.62183917 90.16492927 -80.31079102 95.99731445 C-71.86544943 100.16194166 -60.54564086 100.21834082 -51.49829102 97.95043945 C-49.3015901 97.02571141 -47.40591761 95.98124591 -45.41235352 94.6809082 C-44.50163086 94.18977539 -44.50163086 94.18977539 -43.57250977 93.6887207 C-36.35047056 89.35865781 -31.99151435 81.32695813 -29.47485352 73.4934082 C-26.64233615 61.08344148 -27.36554292 47.50919072 -33.76782227 36.30981445 C-35.20121732 34.27692978 -36.70037407 32.48364318 -38.41235352 30.6809082 C-38.93700195 30.12790039 -39.46165039 29.57489258 -40.00219727 29.00512695 C-47.33195674 22.05479032 -55.52333958 20.06215858 -65.44165039 20.21264648 C-76.13040115 20.69551105 -84.50360285 24.41460148 -91.41235352 32.6809082 Z " fill="#74B608" transform="translate(519.412353515625,51.319091796875)"/>
<path d="M0 0 C0.67854034 0.00370605 1.35708069 0.00741211 2.05618286 0.01123047 C24.87417374 0.18842891 44.38683082 7.0391584 60.625 23.4375 C68.89620088 32.23215799 72.35330695 38.55061219 72.00390625 50.76171875 C71.31598452 57.43526877 68.41016625 60.65233375 63.8125 65.25 C58.0322908 69.21681023 52.72327842 71.1846872 45.625 70.4375 C37.10099294 68.72343336 31.51069888 64.15853277 26.25 57.375 C19.8112928 50.16978003 10.70025454 46.34206859 1.1796875 45.4765625 C-8.49542851 45.32862495 -17.07313196 47.71420883 -24.34375 54.19140625 C-32.88095191 63.14461588 -34.72238573 74.00229464 -34.5859375 85.99609375 C-34.01230529 95.35479701 -31.39068643 104.11689244 -25.375 111.4375 C-17.99599934 117.79499966 -10.2250768 121.00600411 -0.5625 120.875 C0.23357666 120.86597656 1.02965332 120.85695313 1.84985352 120.84765625 C15.15357576 120.45664982 24.34543961 113.31411319 33.9375 104.5625 C39.39166473 99.73512436 44.57975324 98.89481028 51.74609375 99.0703125 C57.71513065 99.83162793 62.59289215 102.07909841 66.546875 106.66796875 C71.45830669 113.83632024 72.39471632 119.80568122 71.625 128.4375 C68.03454174 141.09062099 54.93097308 150.06391292 44.19921875 156.48828125 C21.96773785 168.24604068 -5.36641179 169.8806095 -29.37646484 162.8515625 C-51.10461366 156.11640802 -68.07487823 142.21093391 -79.125 122.28125 C-88.89160499 102.55270792 -91.15108302 78.27479873 -84.76953125 57.078125 C-80.77341121 46.64567717 -75.95329359 36.75322589 -68.375 28.4375 C-67.65957031 27.63054688 -66.94414063 26.82359375 -66.20703125 25.9921875 C-48.75322456 7.37099732 -25.14238808 -0.19972852 0 0 Z " fill="#74B708" transform="translate(128.375,27.5625)"/>
<path d="M0 0 C9.08072841 6.80743049 17.71249527 15.10957759 22.16552734 25.72021484 C23.05879098 32.657091 23.22593661 39.92232493 19.48974609 46.04443359 C15.1354056 51.55479368 10.03705159 55.11818318 3.16552734 56.72021484 C-3.56136751 57.47970297 -8.91678343 56.02176413 -14.83447266 52.72021484 C-18.31343158 49.92379452 -21.07475391 46.79429997 -23.64697266 43.15771484 C-29.88501987 36.20674795 -38.74889319 32.94576642 -47.83447266 31.72021484 C-57.20411051 31.41259335 -65.78287611 33.99806703 -73.14697266 39.84521484 C-80.07865715 46.38480406 -83.41068874 55.54507785 -84.05322266 64.90771484 C-84.37151055 77.00265468 -82.47470265 88.02299986 -74.83447266 97.72021484 C-67.58961673 104.94978627 -59.55229313 107.01443646 -49.52197266 107.22021484 C-36.53792854 107.11157946 -28.19156982 101.82994596 -18.84228516 93.34130859 C-11.9065414 87.29730332 -6.98614093 85.33032828 2.09521484 85.45068359 C9.67312603 86.11592007 13.91827375 90.00540424 18.72021484 95.62255859 C21.48923365 99.64137779 22.45694963 103.17781468 22.47802734 108.03271484 C22.49478516 108.91572266 22.51154297 109.79873047 22.52880859 110.70849609 C21.55557095 118.77695007 18.04844928 123.67109189 12.29052734 129.22021484 C11.62359863 129.8716748 10.95666992 130.52313477 10.26953125 131.19433594 C-8.0340796 148.59427931 -30.98535082 153.61651275 -55.53369141 153.00146484 C-78.83812598 152.00037941 -100.68335585 142.71994965 -116.83447266 125.72021484 C-131.77223923 108.63791743 -138.892349 86.781859 -137.61572266 64.14990234 C-136.11047861 43.95267258 -129.24333569 26.26604426 -114.83447266 11.72021484 C-114.00947266 10.83333984 -113.18447266 9.94646484 -112.33447266 9.03271484 C-83.3513474 -17.77667602 -32.8395689 -22.9099042 0 0 Z " fill="#74B708" transform="translate(706.83447265625,41.27978515625)"/>
<path d="M0 0 C4.5636616 4.95783583 6.2266634 9.09391127 6.47265625 15.8359375 C6.2244267 21.82654404 4.63832054 25.34780062 0.72265625 29.8984375 C-4.90343104 34.73948935 -9.54563081 35.88152821 -16.87890625 35.69140625 C-22.09148677 34.87982726 -25.72780064 32.20538623 -29.96484375 29.2109375 C-40.36062741 22.6026421 -50.34622652 17.99244582 -62.96484375 19.2109375 C-68.37591044 20.39169573 -68.37591044 20.39169573 -72.96484375 23.2109375 C-73.57084626 27.29912979 -73.57084626 27.29912979 -72.96484375 31.2109375 C-68.66982184 34.56343957 -64.5225551 36.15492971 -59.28515625 37.359375 C-58.55473114 37.53924957 -57.82430603 37.71912415 -57.07174683 37.90444946 C-54.74701306 38.47620973 -52.41905011 39.03270255 -50.08984375 39.5859375 C-40.98393663 41.75677956 -32.00035467 44.00024454 -23.2109375 47.25390625 C-22.5686319 47.48906952 -21.92632629 47.72423279 -21.26455688 47.96652222 C-15.03764623 50.36291406 -10.00672213 53.90503801 -4.96484375 58.2109375 C-4.2996875 58.75363281 -3.63453125 59.29632813 -2.94921875 59.85546875 C3.30133415 65.44020189 7.97356558 73.85975759 9.03515625 82.2109375 C9.6288805 92.94845259 10.19817496 104.11519577 6.03515625 114.2109375 C5.54208984 115.47744141 5.54208984 115.47744141 5.0390625 116.76953125 C0.3077625 127.52546239 -8.52586164 135.23013042 -19.30859375 139.55078125 C-45.16991405 149.05134543 -75.56786011 147.67018634 -100.96484375 137.2109375 C-110.7311193 132.40996791 -121.6865416 126.07906761 -126.96484375 116.2109375 C-128.92041886 110.34421218 -128.97036412 103.61588046 -126.46484375 97.8984375 C-123.72788673 93.1478621 -119.20456843 89.24689597 -113.94921875 87.56640625 C-104.91915341 85.94881581 -98.49229057 88.43835883 -91.07470703 93.43994141 C-80.176616 100.76750873 -70.72134126 103.517579 -57.52734375 103.6484375 C-56.10518555 103.6640271 -56.10518555 103.6640271 -54.65429688 103.67993164 C-49.18025302 103.60941491 -44.09335603 103.33944978 -39.96484375 99.2109375 C-39.54791522 95.79493157 -39.54791522 95.79493157 -39.96484375 92.2109375 C-42.80706884 89.45932928 -45.66295163 88.53054571 -49.4453125 87.5625 C-50.51869873 87.28220947 -51.59208496 87.00191895 -52.69799805 86.71313477 C-53.83793213 86.42365967 -54.97786621 86.13418457 -56.15234375 85.8359375 C-58.51717618 85.21318473 -60.88175973 84.58948612 -63.24609375 83.96484375 C-66.36475365 83.14898627 -69.48375556 82.33485685 -72.60546875 81.53076172 C-88.84369493 77.31113877 -104.66097856 71.15024114 -113.8359375 56.15234375 C-120.91799218 42.54868476 -122.55722351 26.82720115 -118.33984375 11.9609375 C-116.31063549 6.45003507 -113.64683599 1.77516749 -109.96484375 -2.7890625 C-109.50980469 -3.39105469 -109.05476562 -3.99304688 -108.5859375 -4.61328125 C-98.30461624 -16.55894172 -80.74133677 -20.14992188 -65.90234375 -21.6015625 C-41.11224851 -22.812721 -18.40284023 -17.53506402 0 0 Z " fill="#74B708" transform="translate(876.96484375,48.7890625)"/>
<path d="M0 0 C5.78676507 3.31749398 9.98131293 7.85555517 13.0625 13.75 C13.625 16 13.625 16 13.625 20 C14.96691406 19.00419922 14.96691406 19.00419922 16.3359375 17.98828125 C32.46333485 6.15241925 48.29384853 -1.00416442 68.859375 1.37109375 C79.24068336 3.731815 85.8402467 9.12710696 91.4375 17.8125 C94.12858174 25.03592993 94.49130492 32.76909441 91.625 40 C87.85097722 46.39992418 82.8457731 51.63409196 75.8515625 54.46875 C69.27712714 56.03738721 62.17124484 55.39581088 55.625 54 C47.18397952 53.04470826 40.74533531 55.73785512 33.4375 59.75 C22.59880739 68.42095409 17.46233689 80.39835557 15.625 94 C15.08063405 101.04534809 15.1097181 108.12502134 15.0625 115.1875 C15.03851912 117.99326325 15.01015127 120.79873372 14.97071838 123.60432434 C14.94682014 125.33508588 14.93159168 127.06600006 14.92710876 128.79692078 C14.81157549 137.84934976 13.87356617 147.00220527 7.625 154 C-0.96977916 160.93322256 -8.58824723 161.78899968 -19.375 161 C-26.51302821 159.16292607 -32.14445281 153.6277876 -35.9289856 147.47257996 C-37.77456778 143.04044451 -37.9339762 139.2180681 -38.05419922 134.4621582 C-38.1038297 133.07938045 -38.1038297 133.07938045 -38.15446281 131.66866779 C-38.4833849 121.64963594 -38.52023406 111.6288848 -38.5078125 101.60546875 C-38.50848922 99.63357023 -38.50946227 97.6616718 -38.51071167 95.68977356 C-38.51216966 91.59826853 -38.51009505 87.50678562 -38.50537109 83.4152832 C-38.4996559 78.21711321 -38.50297631 73.01899468 -38.50894356 67.82082653 C-38.51258479 63.76351037 -38.51139466 59.70620609 -38.50881577 55.64888954 C-38.5081573 53.73347276 -38.50893625 51.81805483 -38.51129532 49.90263939 C-38.54630745 13.53105058 -38.54630745 13.53105058 -31.578125 6.078125 C-22.70669154 -2.24314205 -11.45098774 -5.17479751 0 0 Z " fill="#74B608" transform="translate(264.375,32)"/>
<path d="M0 0 C2.625 0.125 2.625 0.125 5.625 1.125 C6.285 0.795 6.945 0.465 7.625 0.125 C16.01597744 -0.28101504 16.01597744 -0.28101504 19.625 2.125 C20.615 1.465 21.605 0.805 22.625 0.125 C29.55283505 -0.42482818 29.55283505 -0.42482818 33.0625 1.375 C36.54729504 5.27797045 35.80832929 10.74521287 35.8125 15.6875 C35.82474609 16.45513672 35.83699219 17.22277344 35.84960938 18.01367188 C35.85979815 21.90917874 35.83392006 23.8116199 33.625 27.125 C31.0625 27.375 31.0625 27.375 28.625 27.125 C27.11078999 25.61078999 27.41190144 24.20027232 27.30859375 22.08984375 C27.26669922 21.28095703 27.22480469 20.47207031 27.18164062 19.63867188 C27.14232422 18.78853516 27.10300781 17.93839844 27.0625 17.0625 C27.01931641 16.20849609 26.97613281 15.35449219 26.93164062 14.47460938 C26.82523298 12.35827963 26.72458269 10.24166187 26.625 8.125 C25.305 7.795 23.985 7.465 22.625 7.125 C20.14947124 10.83829314 20.21781446 13.93907681 20.0625 18.25 C19.74558024 26.00441976 19.74558024 26.00441976 18.625 27.125 C16.1875 27.375 16.1875 27.375 13.625 27.125 C11.6493438 24.16151571 11.36123141 23.44479627 11.2109375 20.11328125 C11.17226563 19.35595703 11.13359375 18.59863281 11.09375 17.81835938 C11.0628125 17.03267578 11.031875 16.24699219 11 15.4375 C10.96132813 14.64021484 10.92265625 13.84292969 10.8828125 13.02148438 C10.78867506 11.05636525 10.70575368 9.0907146 10.625 7.125 C8.975 7.455 7.325 7.785 5.625 8.125 C5.57601562 9.24519531 5.52703125 10.36539063 5.4765625 11.51953125 C5.40152144 12.99221203 5.32597418 14.46486707 5.25 15.9375 C5.20359375 17.04448242 5.20359375 17.04448242 5.15625 18.17382812 C4.95153852 21.94393115 4.76066173 23.92150741 2.625 27.125 C0.0625 27.375 0.0625 27.375 -2.375 27.125 C-4.12045605 25.37954395 -3.5052316 22.96375783 -3.5078125 20.59375 C-3.50910156 19.47355469 -3.51039063 18.35335937 -3.51171875 17.19921875 C-3.50785156 16.01972656 -3.50398437 14.84023438 -3.5 13.625 C-3.50386719 12.44550781 -3.50773438 11.26601563 -3.51171875 10.05078125 C-3.51042969 8.93058594 -3.50914062 7.81039062 -3.5078125 6.65625 C-3.50668457 5.62048828 -3.50555664 4.58472656 -3.50439453 3.51757812 C-3.33052848 0.30269644 -3.21434189 0.16917589 0 0 Z " fill="#75B608" transform="translate(918.375,35.875)"/>
<path d="M0 0 C2.5 0.125 2.5 0.125 3.5 1.125 C3.64115161 3.79558851 3.54247107 6.44932238 3.5 9.125 C5.15 9.455 6.8 9.785 8.5 10.125 C8.83 11.115 9.16 12.105 9.5 13.125 C9.17 13.785 8.84 14.445 8.5 15.125 C6.85 15.125 5.2 15.125 3.5 15.125 C3.83 19.745 4.16 24.365 4.5 29.125 C6.81 29.785 9.12 30.445 11.5 31.125 C10.625 35 10.625 35 9.5 36.125 C7.3203125 36.328125 7.3203125 36.328125 4.625 36.375 C3.74070312 36.40078125 2.85640625 36.4265625 1.9453125 36.453125 C-1.01456831 36.0559525 -1.68563256 35.44218695 -3.5 33.125 C-3.84057617 31.13208008 -3.84057617 31.13208008 -3.79296875 28.89453125 C-3.78330078 28.09208984 -3.77363281 27.28964844 -3.76367188 26.46289062 C-3.73853516 25.62951172 -3.71339844 24.79613281 -3.6875 23.9375 C-3.67396484 23.09251953 -3.66042969 22.24753906 -3.64648438 21.37695312 C-3.61115799 19.29269616 -3.55735139 17.20876723 -3.5 15.125 C-4.82 14.795 -6.14 14.465 -7.5 14.125 C-7.5 12.805 -7.5 11.485 -7.5 10.125 C-6.18 9.795 -4.86 9.465 -3.5 9.125 C-3.520625 7.825625 -3.54125 6.52625 -3.5625 5.1875 C-3.58399454 3.83334367 -3.57148199 2.47743917 -3.5 1.125 C-2.5 0.125 -2.5 0.125 0 0 Z " fill="#74B708" transform="translate(902.5,26.875)"/>
</svg>
