<?xml version="1.0" encoding="UTF-8"?>
<svg version="1.1" xmlns="http://www.w3.org/2000/svg" width="500" height="65">
<path d="M0 0 C5.64455502 5.0739306 8.55858147 12.12970171 9.0625 19.5625 C8.90184201 27.43474137 6.18553097 33.48661615 0.7421875 39.14453125 C-5.51310737 44.75403657 -11.36072411 45.59355466 -19.7109375 45.31640625 C-26.9500954 44.39727721 -32.16729028 41.61218926 -36.6875 35.875 C-41.74950759 28.57629138 -41.94699801 21.56484082 -41.1875 12.875 C-39.45962576 5.71997714 -33.92937206 1.10053261 -28.1875 -3.125 C-19.02702433 -7.90437861 -8.18572443 -5.45714962 0 0 Z M-30.4375 9.3125 C-33.76164956 14.18000471 -34.79031778 17.94729186 -34.1875 23.875 C-32.21717286 30.06914222 -28.87430906 33.80069255 -23.1875 36.875 C-18.63003846 38.39415385 -14.46973876 38.86961038 -10.02734375 36.93359375 C-4.94857984 33.90532144 -1.10534394 30.62853181 0.8125 24.875 C1.624543 19.18041994 1.28089502 14.87239388 -1.8125 9.9375 C-4.57014412 6.31609264 -6.70028568 4.14496632 -11.1875 2.875 C-19.60964848 1.89304547 -24.53962341 2.9231337 -30.4375 9.3125 Z " fill="#000000" transform="translate(161.1875,20.125)"/>
<path d="M0 0 C7.06220783 3.96501075 11.16795085 9.28157915 13.4296875 17.046875 C14.82137978 23.72962378 13.83315091 29.96094802 10.84375 36.03515625 C7.08315342 41.65615378 2.51436489 46.30573758 -4.15625 48.03515625 C-13.04275384 49.14995064 -20.88323176 48.59687608 -28.15625 43.03515625 C-33.61248159 37.39705027 -36.43577972 31.69009509 -36.53125 23.78515625 C-36.38632098 16.65142799 -35.19021994 11.40477146 -30.35546875 6.03515625 C-21.77409519 -1.96301717 -11.05301405 -4.86966808 0 0 Z M-25.40625 12.47265625 C-28.73039956 17.34016096 -29.75906778 21.10744811 -29.15625 27.03515625 C-27.18592286 33.22929847 -23.84305906 36.9608488 -18.15625 40.03515625 C-13.82771689 41.47800062 -9.5843854 41.9076895 -5.25390625 40.3515625 C-0.03644564 37.60012266 3.94916438 33.71891311 5.84375 28.03515625 C6.6269204 21.73622863 6.16248282 16.93683873 2.37890625 11.73046875 C-0.94609037 8.05858953 -3.90266649 6.35006748 -8.83984375 5.66015625 C-16.29820141 5.33631983 -20.27986671 6.91907436 -25.40625 12.47265625 Z " fill="#000000" transform="translate(88.15625,16.96484375)"/>
<path d="M0 0 C1.546875 0.8353125 1.546875 0.8353125 3.125 1.6875 C6.73506912 4.59125125 8.96998237 7.85014094 11 12 C11 12.66 11 13.32 11 14 C3.5340751 14.36717663 3.5340751 14.36717663 1 12.625 C0 11 0 11 0 9 C-0.78375 8.690625 -1.5675 8.38125 -2.375 8.0625 C-5 7 -5 7 -7 6 C-12.25575165 5.4761424 -16.64526095 5.33494628 -21.4375 7.6875 C-25.45262695 11.31090725 -28.5112328 14.45992902 -29.2734375 19.98046875 C-29.51817081 25.29871194 -28.71040875 28.89183677 -25.6171875 33.26953125 C-21.91105162 37.23527568 -17.78800107 38.74457128 -12.5 39.5 C-8.11348915 38.87335559 -4.6647446 37.49371127 -1 35 C-0.525625 34.2575 -0.05125 33.515 0.4375 32.75 C2 31 2 31 4.171875 30.75 C6.46135484 30.75 8.71745495 30.82773245 11 31 C8.68497273 38.08977103 4.38159984 42.76084626 -2.30078125 46.17578125 C-8.91300063 48.19485258 -18.1675121 48.32515926 -24.5625 45.4375 C-29.81804033 42.1927751 -34.33304038 37.01861469 -36.52734375 31.2109375 C-38.08112324 23.94284502 -38.42001593 15.34346047 -34.46484375 8.8125 C-25.53184201 -2.24060081 -13.12844438 -7.20777338 0 0 Z " fill="#000000" transform="translate(37,18)"/>
<path d="M0 0 C6.001875 -0.0928125 6.001875 -0.0928125 12.125 -0.1875 C13.37555176 -0.21481201 14.62610352 -0.24212402 15.91455078 -0.27026367 C26.21335456 -0.34741759 26.21335456 -0.34741759 31 3 C34.41475315 6.75622846 34.49505222 10.61353625 34.37109375 15.484375 C33.79921934 19.36108154 32.22302022 21.80440843 30 25 C30.70576172 25.70382813 30.70576172 25.70382813 31.42578125 26.421875 C33.72912482 30.1941002 33.81752822 33.90537729 34.1875 38.25 C34.3102832 39.51070312 34.3102832 39.51070312 34.43554688 40.796875 C34.63516482 42.86350783 34.81912511 44.93164248 35 47 C33.35 47 31.7 47 30 47 C29.95101563 46.11957031 29.90203125 45.23914062 29.8515625 44.33203125 C29.77679688 43.17058594 29.70203125 42.00914063 29.625 40.8125 C29.55539062 39.66394531 29.48578125 38.51539063 29.4140625 37.33203125 C28.9957068 33.96545186 28.49424416 30.49424416 26 28 C24.36743242 27.84285346 22.72864662 27.74914586 21.08984375 27.68359375 C19.60581055 27.62075195 19.60581055 27.62075195 18.09179688 27.55664062 C17.05087891 27.51732422 16.00996094 27.47800781 14.9375 27.4375 C13.89271484 27.39431641 12.84792969 27.35113281 11.77148438 27.30664062 C9.18116028 27.20018895 6.59059825 27.09955692 4 27 C4 33.6 4 40.2 4 47 C2.68 47 1.36 47 0 47 C0 31.49 0 15.98 0 0 Z M4 4 C4 10.27 4 16.54 4 23 C7.031875 23.061875 10.06375 23.12375 13.1875 23.1875 C14.13391357 23.21481201 15.08032715 23.24212402 16.05541992 23.27026367 C20.84936401 23.3175874 24.15522761 23.20273273 28 20 C30.46205478 16.30691783 30.57042512 13.28683122 30 9 C28.25746655 5.76386646 27.52814056 5.17604685 24 4 C22.44578271 3.91893314 20.88832973 3.89243102 19.33203125 3.90234375 C18.43935547 3.90556641 17.54667969 3.90878906 16.62695312 3.91210938 C15.69818359 3.92048828 14.76941406 3.92886719 13.8125 3.9375 C12.40194336 3.94426758 12.40194336 3.94426758 10.96289062 3.95117188 C8.64189992 3.96295355 6.32094193 3.98088886 4 4 Z " fill="#000000" transform="translate(276,17)"/>
<path d="M0 0 C4.14373284 4.47086964 5.13115932 6.96667147 5 13 C3.68 13 2.36 13 1 13 C0.731875 11.906875 0.46375 10.81375 0.1875 9.6875 C-1.04988333 5.64643713 -1.04988333 5.64643713 -4 3 C-8.70404921 1.15198067 -13.64512501 1.57346528 -18.375 3.0625 C-21.29929063 4.84117473 -21.29929063 4.84117473 -22.1875 8.375 C-22.34595631 12.07528148 -22.34595631 12.07528148 -19.953125 14.59765625 C-16.48863055 17.41599499 -13.90516428 18.1222454 -9.5625 19.0625 C-2.92334834 20.51627993 2.11043211 22.16564816 6 28 C6.59022577 32.52250916 6.52729459 36.69563971 4.8125 40.9375 C1.64545707 44.54137644 -0.97628655 45.88248998 -5.77734375 46.43359375 C-7.16395744 46.45071244 -8.55085296 46.4516626 -9.9375 46.4375 C-10.97293945 46.4674707 -10.97293945 46.4674707 -12.02929688 46.49804688 C-18.06489032 46.49232593 -21.50296736 44.32482349 -25.8125 40.3125 C-27.65347937 36.72743492 -27.75334693 32.9804703 -28 29 C-26.68 29 -25.36 29 -24 29 C-23.51171875 30.98567708 -23.0234375 32.97135417 -22.53515625 34.95703125 C-22.08989295 36.65683202 -21.55566015 38.33301954 -21 40 C-15.27809919 42.04353601 -9.91110314 42.73062715 -4 41 C-0.83015739 38.99820005 -0.83015739 38.99820005 1 36 C1.66721536 32.91440699 1.66721536 32.91440699 1 30 C-1.11867688 27.33467339 -3.02858325 26.45400263 -6.2734375 25.5703125 C-7.5109375 25.21259766 -7.5109375 25.21259766 -8.7734375 24.84765625 C-10.4985529 24.36845753 -12.22511597 23.89443824 -13.953125 23.42578125 C-19.17101998 21.90592711 -22.59143232 20.48817378 -26 16 C-27.56456473 11.67488116 -27.32396223 7.92073477 -25.8125 3.625 C-19.81382072 -5.0627424 -8.61366596 -4.89796692 0 0 Z " fill="#000000" transform="translate(233,19)"/>
<path d="M0 0 C2.64 0 5.28 0 8 0 C8 1.98 8 3.96 8 6 C8.54527344 5.65066406 9.09054688 5.30132812 9.65234375 4.94140625 C15.25119443 1.56295447 19.47051512 0.31092785 26 0 C26 2.64 26 5.28 26 8 C24.783125 8.268125 23.56625 8.53625 22.3125 8.8125 C17.24122276 10.11833153 14.14143224 11.48802818 10.90625 15.7734375 C7.88133329 21.23509267 8.32306227 27.35008479 8.25 33.4375 C8.22035156 34.64599609 8.19070312 35.85449219 8.16015625 37.09960938 C8.08979587 40.06647208 8.03692979 43.03256424 8 46 C5.36 46 2.72 46 0 46 C0 30.82 0 15.64 0 0 Z " fill="#000000" transform="translate(175,17)"/>
<path d="M0 0 C2.64 0 5.28 0 8 0 C8 20.79 8 41.58 8 63 C5.36 63 2.72 63 0 63 C0 42.21 0 21.42 0 0 Z " fill="#000000" transform="translate(107,0)"/>
<path d="M0 0 C10.56 0 21.12 0 32 0 C32 1.32 32 2.64 32 4 C22.76 4 13.52 4 4 4 C4 9.61 4 15.22 4 21 C12.91 21 21.82 21 31 21 C31 22.32 31 23.64 31 25 C22.09 25 13.18 25 4 25 C4 31.27 4 37.54 4 44 C13.24 44 22.48 44 32 44 C32 44.99 32 45.98 32 47 C21.44 47 10.88 47 0 47 C0 31.49 0 15.98 0 0 Z " fill="#000000" transform="translate(315,17)"/>
<path d="M0 0 C10.23 0 20.46 0 31 0 C31 1.32 31 2.64 31 4 C21.76 4 12.52 4 3 4 C3 9.61 3 15.22 3 21 C11.91 21 20.82 21 30 21 C30 22.32 30 23.64 30 25 C21.09 25 12.18 25 3 25 C3 31.27 3 37.54 3 44 C12.24 44 21.48 44 31 44 C31 44.99 31 45.98 31 47 C20.77 47 10.54 47 0 47 C0 31.49 0 15.98 0 0 Z " fill="#000000" transform="translate(351,17)"/>
<path d="M0 0 C11.22 0 22.44 0 34 0 C34 1.32 34 2.64 34 4 C29.05 4 24.1 4 19 4 C19 18.19 19 32.38 19 47 C17.68 47 16.36 47 15 47 C15 32.81 15 18.62 15 4 C10.05 4 5.1 4 0 4 C0 2.68 0 1.36 0 0 Z " fill="#000000" transform="translate(385,17)"/>
<path d="M0 0 C11.22 0 22.44 0 34 0 C34 1.32 34 2.64 34 4 C29.05 4 24.1 4 19 4 C19 18.19 19 32.38 19 47 C17.68 47 16.36 47 15 47 C15 32.81 15 18.62 15 4 C10.05 4 5.1 4 0 4 C0 2.68 0 1.36 0 0 Z " fill="#000000" transform="translate(240,17)"/>
<path d="M0 0 C4.0743356 0.84881992 5.54405875 2.30225596 8 5.625 C8.70960213 9.40954468 8.27801176 11.09214413 6.5 14.5 C3.47084317 17.07478331 1.79349229 17.37045844 -2.09375 17.109375 C-4 16.625 -4 16.625 -6.5 14.5 C-8.27801176 11.09214413 -8.70960213 9.40954468 -8 5.625 C-5.54405875 2.30225596 -4.0743356 0.84881992 0 0 Z " fill="#3AC4F2" transform="translate(483,15.375)"/>
<path d="M0 0 C4.0743356 0.84881992 5.54405875 2.30225596 8 5.625 C8.71588388 9.44304737 8.29055839 11.09037255 6.4375 14.5 C4 16.625 4 16.625 0.5625 17.25 C-3.91145674 16.46509531 -5.36788535 15.29400829 -8 11.625 C-8.625 8.625 -8.625 8.625 -8 5.625 C-5.54405875 2.30225596 -4.0743356 0.84881992 0 0 Z " fill="#FFF100" transform="translate(460,15.375)"/>
<path d="M0 0 C2.4375 1.5 2.4375 1.5 4 4 C4.80414661 8.04560357 4.63828902 10.97873756 2.4375 14.5 C-0.94888329 16.58392818 -3.09385318 16.55802097 -7 16 C-9.72235378 14.065696 -10.75092091 12.69386319 -11.875 9.5625 C-12.02583739 6.47033348 -11.46741381 4.71471554 -10 2 C-6.2794164 -0.48038907 -4.40203429 -0.46337203 0 0 Z " fill="#EF4035" transform="translate(441,16)"/>
<path d="M0 0 C2.375 1.625 2.375 1.625 4 4 C4.55802097 7.90614682 4.58392818 10.05111671 2.5 13.4375 C-0.53186317 15.33241448 -2.56080456 15.64036692 -6.09375 15.44921875 C-8 15 -8 15 -10.5 12.875 C-12.25584708 9.50962644 -12.63656938 7.73984509 -12 4 C-8.20909306 -0.67545189 -5.81912245 -1.51297184 0 0 Z " fill="#E4158F" transform="translate(464,49)"/>
<path d="M0 0 C3.02706748 2.15081111 3.87395791 3.25950274 4.5 6.9375 C3.86162709 10.84753406 3.02791041 12.42627616 0 15 C-2.8229596 15.71730941 -5.1770404 15.71730941 -8 15 C-11.02791041 12.42627616 -11.86162709 10.84753406 -12.5 6.9375 C-11.88967138 3.35181933 -10.80986461 2.23136307 -8 0 C-5.02898609 -1.48550695 -3.16565278 -0.82306972 0 0 Z " fill="#652D90" transform="translate(487,49)"/>
<path d="M0 0 C1.875 1.0625 1.875 1.0625 3 3 C3.75 9.75 3.75 9.75 1.5 13.5 C-2.25648836 15.75389302 -4.64579381 15.48380069 -9 15 C-11.73883355 13.40970955 -11.94967699 12.16534703 -12.875 9.125 C-13.02602779 5.34930535 -12.35110647 3.91861492 -10 1 C-6.62152517 -1.56298091 -3.97719014 -1.10007387 0 0 Z " fill="#272873" transform="translate(442,49)"/>
<path d="M0 0 C2.4375 0.1875 2.4375 0.1875 3.4375 1.1875 C3.5625 4.1875 3.5625 4.1875 3.4375 7.1875 C2.4375 8.1875 2.4375 8.1875 -0.625 8.25 C-1.594375 8.229375 -2.56375 8.20875 -3.5625 8.1875 C-4.1875 5.3125 -4.1875 5.3125 -4.5625 2.1875 C-2.5625 0.1875 -2.5625 0.1875 0 0 Z " fill="#000000" transform="translate(496.5625,15.8125)"/>
</svg>
