<?xml version="1.0" encoding="UTF-8"?>
<svg version="1.1" xmlns="http://www.w3.org/2000/svg" width="541" height="315">
<path d="M0 0 C7.51912058 2.41315028 14.84538659 5.2212254 22.1875 8.125 C23.41114258 8.60710938 24.63478516 9.08921875 25.89550781 9.5859375 C34.59102144 13.01798635 43.25681154 16.52086104 51.89526367 20.09423828 C53.51357824 20.76271731 55.13368251 21.42688629 56.75585938 22.0859375 C58.220738 22.68259825 59.68071895 23.29146978 61.13476562 23.9140625 C66.1873003 25.98739408 70.69160607 27.24831697 76.05371094 25.22509766 C78.36432647 24.15021292 80.61762213 22.99494711 82.875 21.8125 C109.97138499 8.35132392 140.67093493 6.15697913 169.5625 15.1875 C175.98232906 17.44031407 182.07126147 20.26492373 188.10375977 23.40893555 C193.13049359 25.93778521 197.25104166 27.10095379 202.88964844 25.44506836 C205.08642458 24.63796405 207.22624818 23.7399392 209.375 22.8125 C211.13208183 22.08157439 212.88995753 21.3525555 214.6484375 20.625 C215.63553711 20.21378906 216.62263672 19.80257813 217.63964844 19.37890625 C224.39337162 16.60754411 231.20222513 13.97351791 238 11.3125 C240.77155755 10.22709567 243.54228972 9.13961904 246.3125 8.05078125 C246.96916656 7.79388016 247.62583313 7.53697906 248.30239868 7.27229309 C253.47517544 5.2379626 258.5715569 3.0469499 263.64453125 0.77416992 C266 0 266 0 269 1 C264.79507244 8.8046004 260.44410006 16.51963049 256.02783203 24.20605469 C255.02284141 25.96013334 254.02500638 27.7183056 253.02734375 29.4765625 C249.22059509 36.18188917 245.34330211 42.83333983 241.32055664 49.41186523 C239.16457847 52.96327251 237.13380957 56.56467753 235.15625 60.21875 C231.93795386 66.15861631 228.54666923 71.98804187 225.125 77.8125 C223.88496156 79.93072322 222.64537538 82.04921128 221.40625 84.16796875 C220.81714844 85.17520996 220.22804688 86.18245117 219.62109375 87.22021484 C215.71172961 93.92383232 211.88465229 100.67436608 208.05859375 107.42578125 C204.5739687 113.56149126 201.02670003 119.64950269 197.375 125.6875 C194.32877246 130.72593475 191.43595722 135.81451051 188.65234375 141.00390625 C186.13462349 145.56913424 183.46699286 150.0439703 180.81274414 154.53076172 C178.17078488 159.00009673 175.56579564 163.486485 173 168 C170.15177082 173.00856269 167.24803385 177.9797095 164.3125 182.9375 C160.28707042 189.74299188 156.37917648 196.61023787 152.5 203.5 C151.39740661 205.44937216 150.29454487 207.39859258 149.19140625 209.34765625 C147.14073747 212.97139003 145.10921316 216.60484675 143.08984375 220.24609375 C142.20648467 221.81032272 141.32241477 223.37415058 140.4375 224.9375 C140.04433594 225.659375 139.65117187 226.38125 139.24609375 227.125 C138.12109375 229.08984375 138.12109375 229.08984375 136 232 C134.68 232 133.36 232 132 232 C131.61070312 231.25878906 131.22140625 230.51757812 130.8203125 229.75390625 C127.15098787 222.84644491 123.31266595 216.0699273 119.32006836 209.34472656 C115.19662707 202.37907505 111.19138033 195.34723381 107.1875 188.3125 C102.27686908 179.68796227 97.31979676 171.09486008 92.25 162.5625 C85.49675356 151.19612043 78.94146125 139.72103617 72.42382812 128.21826172 C64.80447721 114.72730664 64.80447721 114.72730664 56.62084961 101.57519531 C55.06879676 99.10930384 53.66447265 96.61476624 52.2890625 94.046875 C48.70912217 87.43222467 44.98733491 80.90161216 41.25 74.375 C40.8996167 73.76227234 40.5492334 73.14954468 40.18823242 72.51824951 C35.6093954 64.51205662 30.99343633 56.52938945 26.296875 48.59155273 C23.25996017 43.45714035 20.29618935 38.28397028 17.35546875 33.09375 C15.41584688 29.69654247 13.42324291 26.33224112 11.42578125 22.96875 C10.7905957 21.89439697 10.15541016 20.82004395 9.50097656 19.71313477 C8.22624633 17.55909754 6.9458016 15.40843004 5.65917969 13.26147461 C5.07168945 12.26639893 4.48419922 11.27132324 3.87890625 10.24609375 C3.08335327 8.91082642 3.08335327 8.91082642 2.27172852 7.54858398 C0.99882716 4.99764959 0.41382145 2.80836726 0 0 Z M87 67 C93.91267447 80.26538369 101.36034425 93.16723387 109.25 105.875 C112.2301204 110.68164581 115.00875695 115.55869124 117.6796875 120.54296875 C119.39304086 123.73142812 121.18926967 126.86604365 123 130 C123.33 130 123.66 130 124 130 C124 113.83 124 97.66 124 81 C119.194375 79.06125 114.38875 77.1225 109.4375 75.125 C107.93501709 74.51672363 106.43253418 73.90844727 104.88452148 73.28173828 C103.68384033 72.79946777 102.48315918 72.31719727 101.24609375 71.8203125 C100.02591553 71.32805176 98.8057373 70.83579102 97.54858398 70.32861328 C94.05146433 69.01926858 90.60125497 67.97353051 87 67 Z M168.75 71.125 C160.64068172 74.88881861 152.42684454 77.8399333 144 81 C144 97.5 144 114 144 131 C146.33675153 127.8843313 148.26349301 124.9485727 150.1875 121.58984375 C151.10402344 119.99487061 151.10402344 119.99487061 152.0390625 118.36767578 C152.68617188 117.23571777 153.33328125 116.10375977 154 114.9375 C154.67419104 113.76269268 155.34867278 112.58805213 156.0234375 111.41357422 C157.37860393 109.05444558 158.73267821 106.69469575 160.0859375 104.33447266 C162.71283106 99.75818282 165.35474493 95.19069235 168 90.625 C168.43997314 89.86380859 168.87994629 89.10261719 169.33325195 88.31835938 C171.28259802 84.94836648 173.24084219 81.58467424 175.23046875 78.23828125 C175.87628906 77.14902344 176.52210938 76.05976562 177.1875 74.9375 C177.73792969 74.01839844 178.28835938 73.09929687 178.85546875 72.15234375 C180.15650222 70.11197896 180.15650222 70.11197896 180 68 C175.54900544 68 172.67926751 69.29134183 168.75 71.125 Z " fill="#E30715" transform="translate(137,3)"/>
<path d="M0 0 C1.96696335 -0.01418472 1.96696335 -0.01418472 3.97366333 -0.02865601 C5.39634505 -0.02328712 6.819024 -0.01713438 8.24169922 -0.01025391 C9.70710393 -0.01227592 11.17250766 -0.01518843 12.63790894 -0.01895142 C15.70271424 -0.023366 18.76725659 -0.01697003 21.83203125 -0.00292969 C25.76091915 0.01419231 29.68919357 0.00429703 33.61805916 -0.01364708 C36.64123161 -0.02448272 39.66425833 -0.02104019 42.68743515 -0.0132637 C44.13632149 -0.01126264 45.58522106 -0.01371772 47.03409195 -0.02070236 C49.05657958 -0.02831562 51.07911364 -0.01465531 53.1015625 0 C54.82767258 0.00358017 54.82767258 0.00358017 56.58865356 0.00723267 C59.42138672 0.38818359 59.42138672 0.38818359 61.31246948 1.72103882 C62.81186159 3.97522302 62.62636711 5.71195376 62.12451172 8.31396484 C60.95628523 11.76023297 59.02542213 14.67808268 57.08544922 17.73974609 C55.4855241 20.28610578 54.03243887 22.86489943 52.60888672 25.51318359 C50.07462116 30.195921 47.51395687 34.86252665 44.92138672 39.51318359 C44.56584717 40.15787598 44.21030762 40.80256836 43.84399414 41.46679688 C43.11876026 42.76365095 42.37406604 44.0497941 41.61132812 45.32495117 C40.36111268 47.42188734 40.36111268 47.42188734 39.27441406 49.86352539 C37.87213914 52.54387977 36.70258162 54.38979057 34.42138672 56.38818359 C29.91692725 57.48826766 25.64845371 57.2423639 21.04638672 56.95068359 C19.226875 56.88977539 19.226875 56.88977539 17.37060547 56.82763672 C14.38342731 56.72179182 11.40447434 56.57411011 8.42138672 56.38818359 C10.63593285 50.85181827 13.56606428 45.6229414 16.42138672 40.38818359 C-1.89361328 39.89318359 -1.89361328 39.89318359 -20.57861328 39.38818359 C-21.56861328 41.86318359 -21.56861328 41.86318359 -22.57861328 44.38818359 C-24.44340994 48.83801274 -26.30163198 52.80871171 -29.57861328 56.38818359 C-33.79666885 57.436115 -37.32864111 57.00441948 -41.57861328 56.38818359 C-34.66337339 43.67425191 -27.664111 31.00795073 -20.57861328 18.38818359 C-19.84263916 17.07430664 -19.84263916 17.07430664 -19.09179688 15.73388672 C-17.89389775 13.60963007 -16.67918217 11.49656153 -15.45361328 9.38818359 C-14.49068359 7.71755859 -14.49068359 7.71755859 -13.50830078 6.01318359 C-9.80083272 0.96982623 -6.1008031 0.01263636 0 0 Z M-6.57861328 14.38818359 C-7.88196656 16.14260172 -7.88196656 16.14260172 -8.81689453 17.86865234 C-9.16171875 18.47515625 -9.50654297 19.08166016 -9.86181641 19.70654297 C-10.20148438 20.32335937 -10.54115234 20.94017578 -10.89111328 21.57568359 C-11.25011719 22.20410156 -11.60912109 22.83251953 -11.97900391 23.47998047 C-13.93771546 26.73349862 -13.93771546 26.73349862 -14.57861328 30.38818359 C-2.03861328 30.38818359 10.50138672 30.38818359 23.42138672 30.38818359 C25.23638672 27.10880859 27.05138672 23.82943359 28.92138672 20.45068359 C29.49566406 19.41564697 30.06994141 18.38061035 30.66162109 17.31420898 C31.10828125 16.50459717 31.55494141 15.69498535 32.01513672 14.86083984 C32.70639648 13.61185913 32.70639648 13.61185913 33.41162109 12.33764648 C34.4980424 10.60610095 34.4980424 10.60610095 34.42138672 9.38818359 C29.38607709 9.26431139 24.35165974 9.17371846 19.31518555 9.11352539 C17.60311427 9.08842645 15.89114968 9.0543393 14.17944336 9.01098633 C11.71425027 8.9501262 9.25047686 8.92192927 6.78466797 8.89990234 C6.02301834 8.87409592 5.26136871 8.84828949 4.47663879 8.82170105 C-1.00434246 8.81882764 -3.22123769 10.127197 -6.57861328 14.38818359 Z " fill="#161616" transform="translate(126.57861328125,247.61181640625)"/>
<path d="M0 0 C1.53264671 0.00985293 3.06531752 0.01644736 4.59799194 0.01992798 C7.80472113 0.03518673 11.00965764 0.07623176 14.21582031 0.13818359 C18.32626059 0.21746765 22.4355378 0.25342308 26.54665565 0.27280235 C30.4687613 0.29274274 34.3905834 0.33250409 38.3125 0.375 C39.06095814 0.3817915 39.80941628 0.38858299 40.58055496 0.39558029 C42.69678758 0.41873144 44.8122859 0.45576666 46.92822266 0.49755859 C48.13225739 0.51724701 49.33629211 0.53693542 50.57681274 0.55722046 C53.5234375 0.8515625 53.5234375 0.8515625 56.5234375 2.8515625 C57.65001122 8.85995567 55.43823769 12.21110346 52.22265625 17.203125 C50.59230166 19.74422939 49.13688594 22.31638978 47.7109375 24.9765625 C31.54997109 54.8382957 31.54997109 54.8382957 27.5234375 56.8515625 C25.18494216 56.943769 22.84372708 56.96905452 20.50341797 56.96508789 C19.78136169 56.96523392 19.05930542 56.96537994 18.31536865 56.9655304 C15.92375709 56.96483257 13.53222299 56.95704625 11.140625 56.94921875 C9.48438561 56.94735411 7.82814566 56.94593042 6.17190552 56.94493103 C1.80876142 56.94110949 -2.5543495 56.93128228 -6.91748047 56.92022705 C-11.36815949 56.91000514 -15.81884387 56.90543174 -20.26953125 56.90039062 C-29.00522358 56.8896597 -37.74088891 56.87258762 -46.4765625 56.8515625 C-44.93770133 51.99000524 -42.87783849 47.8732537 -40.2265625 43.5390625 C-35.09099792 34.99073891 -30.22024926 26.30540399 -25.38769531 17.58276367 C-24.82276367 16.56674072 -24.25783203 15.55071777 -23.67578125 14.50390625 C-23.17908936 13.60663818 -22.68239746 12.70937012 -22.1706543 11.78491211 C-21.611604 10.81690674 -21.05255371 9.84890137 -20.4765625 8.8515625 C-20.09639984 7.81101715 -20.09639984 7.81101715 -19.70855713 6.74945068 C-15.99602096 -1.7094003 -7.97126157 -0.19533747 0 0 Z M2.51953125 14.5703125 C1.79585294 16.30757085 1.1223986 18.06745979 0.5234375 19.8515625 C0.00136719 20.78226562 -0.52070312 21.71296875 -1.05859375 22.671875 C-1.46464844 23.43242187 -1.87070312 24.19296875 -2.2890625 24.9765625 C-4.10558135 28.35286554 -5.95491842 31.70563199 -7.85546875 35.03515625 C-8.4736145 36.12062744 -8.4736145 36.12062744 -9.10424805 37.22802734 C-9.92650759 38.66911405 -10.75211784 40.1082948 -11.58129883 41.54541016 C-13.72986999 44.97922064 -13.72986999 44.97922064 -14.4765625 48.8515625 C-9.58367085 48.9754573 -4.69169823 49.06603759 0.20239258 49.1262207 C1.86596589 49.15131597 3.52942946 49.18540046 5.19262695 49.22875977 C7.58832903 49.2896371 9.98257001 49.31782019 12.37890625 49.33984375 C13.1186821 49.36565018 13.85845795 49.3914566 14.62065125 49.41804504 C18.50393224 49.42013906 20.28976041 49.0367065 23.36694336 46.59863281 C25.21702102 44.24189401 26.77163048 42.04956801 28.171875 39.41015625 C28.61684326 38.58435059 29.06181152 37.75854492 29.52026367 36.90771484 C30.20245972 35.61148193 30.20245972 35.61148193 30.8984375 34.2890625 C31.85934893 32.49798473 32.82158673 30.70761791 33.78515625 28.91796875 C34.24970215 28.05187988 34.71424805 27.18579102 35.19287109 26.29345703 C37.4701687 22.11409361 39.91587228 18.04111999 42.37890625 13.96875 C43.68195449 11.95945774 43.68195449 11.95945774 43.5234375 9.8515625 C38.36428824 9.60356316 33.20862962 9.42257858 28.04492188 9.30224609 C26.29072641 9.25207999 24.53694666 9.1839224 22.78417969 9.09716797 C11.04227051 7.93952711 11.04227051 7.93952711 2.51953125 14.5703125 Z " fill="#131313" transform="translate(49.4765625,247.1484375)"/>
<path d="M0 0 C0.65392731 -0.00014603 1.30785461 -0.00029205 1.9815979 -0.0004425 C4.14051646 0.00025351 6.29934848 0.00803131 8.45825195 0.01586914 C9.95612033 0.01773443 11.45398932 0.01915781 12.95185852 0.02015686 C16.89248339 0.02397333 20.83307135 0.03379619 24.77368164 0.04486084 C28.79548646 0.05509367 32.81729724 0.05965849 36.83911133 0.06469727 C44.72910222 0.07541923 52.61906312 0.09248522 60.5090332 0.11352539 C59.31003622 3.19666049 58.03202843 6.17632031 56.5090332 9.11352539 C54.53326294 9.15110962 54.53326294 9.15110962 52.51757812 9.18945312 C47.63661759 9.28353421 42.75579913 9.38375331 37.875 9.48583984 C35.76142701 9.52918603 33.64781906 9.57086133 31.53417969 9.61083984 C28.49834657 9.66854988 25.46268932 9.7322424 22.42700195 9.79711914 C21.48003952 9.81383163 20.53307709 9.83054413 19.55741882 9.84776306 C18.67673233 9.86770828 17.79604584 9.8876535 16.88867188 9.90820312 C16.11367844 9.92374741 15.338685 9.93929169 14.54020691 9.95530701 C12.30570827 10.04707916 12.30570827 10.04707916 9.5090332 11.11352539 C7.5290332 14.74352539 5.5490332 18.37352539 3.5090332 22.11352539 C17.0390332 22.11352539 30.5690332 22.11352539 44.5090332 22.11352539 C43.15183251 28.89952886 43.15183251 28.89952886 40.5090332 31.11352539 C37.35099246 31.60670728 34.24100883 31.42945515 31.0559082 31.30102539 C29.13796815 31.27652925 27.2199957 31.25447108 25.30200195 31.23461914 C22.28073903 31.18309525 19.26352138 31.11369329 16.24389648 31.00073242 C4.59569809 30.09462016 4.59569809 30.09462016 -5.41088867 34.74633789 C-7.87474784 38.86517597 -9.4909668 42.27710846 -9.4909668 47.11352539 C4.3690332 47.44352539 18.2290332 47.77352539 32.5090332 48.11352539 C31.5090332 53.11352539 31.5090332 53.11352539 29.5090332 56.11352539 C26.81433105 56.49447632 26.81433105 56.49447632 23.34692383 56.50170898 C22.0521814 56.51116547 20.75743896 56.52062195 19.42346191 56.53036499 C18.00406591 56.52499547 16.58467269 56.51884257 15.1652832 56.51196289 C13.71561537 56.51398293 12.26594853 56.51689379 10.81628418 56.5206604 C7.77643164 56.5250871 4.73684334 56.51864191 1.69702148 56.50463867 C-2.20402814 56.48754621 -6.10445864 56.4973856 -10.00548553 56.51535606 C-12.99945765 56.52618481 -15.99328242 56.52275184 -18.98725891 56.51497269 C-20.42580742 56.51296814 -21.86436921 56.51543888 -23.30290222 56.52241135 C-25.31155144 56.53000998 -27.32024741 56.51637938 -29.32885742 56.50170898 C-30.47310181 56.4993222 -31.61734619 56.49693542 -32.79626465 56.49447632 C-33.68551636 56.36876251 -34.57476807 56.24304871 -35.4909668 56.11352539 C-37.62134491 52.91795821 -37.7619413 51.84162421 -37.10131836 48.16967773 C-35.84711506 43.94451765 -33.55591043 40.22548917 -31.3659668 36.42602539 C-30.86750244 35.54188965 -30.36903809 34.65775391 -29.85546875 33.74682617 C-28.4125818 31.19533704 -26.95474486 28.65307328 -25.4909668 26.11352539 C-25.12567871 25.47560059 -24.76039063 24.83767578 -24.3840332 24.18041992 C-22.45043981 20.80614816 -20.47861613 17.45616374 -18.4909668 14.11352539 C-17.94569336 13.17637695 -17.40041992 12.23922852 -16.83862305 11.27368164 C-16.31139648 10.37520508 -15.78416992 9.47672852 -15.2409668 8.55102539 C-14.78206055 7.76598633 -14.3231543 6.98094727 -13.8503418 6.17211914 C-10.09904247 0.49127217 -6.64838109 -0.01247351 0 0 Z " fill="#121212" transform="translate(325.490966796875,247.886474609375)"/>
<path d="M0 0 C0.98089096 -0.00043808 0.98089096 -0.00043808 1.9815979 -0.00088501 C4.14061809 0.00050708 6.29929213 0.01606221 8.45825195 0.03173828 C9.95611889 0.03546885 11.45398827 0.03831562 12.95185852 0.04031372 C16.89253487 0.04794675 20.83306359 0.06759234 24.77368164 0.08972168 C28.79547122 0.11018726 32.81728468 0.11931696 36.83911133 0.12939453 C44.729153 0.1508386 52.61907473 0.18497049 60.5090332 0.22705078 C59.95174408 3.57078554 59.15729432 6.26018078 57.5090332 9.22705078 C56.95415222 9.23069641 56.39927124 9.23434204 55.82757568 9.23809814 C50.05218626 9.27990918 44.2775926 9.34924419 38.50268555 9.43457031 C36.34749307 9.46279577 34.19219677 9.48400244 32.03686523 9.49804688 C28.9385049 9.51945425 25.84139493 9.56609398 22.7434082 9.61767578 C21.77973328 9.61890442 20.81605835 9.62013306 19.82318115 9.62139893 C14.66810024 9.68027245 14.66810024 9.68027245 10.11938477 11.82763672 C8.08600238 14.85736414 6.31935521 18.05898727 4.5090332 21.22705078 C24.8040332 21.72205078 24.8040332 21.72205078 45.5090332 22.22705078 C44.15422521 29.00109077 44.15422521 29.00109077 41.5090332 31.22705078 C38.32395803 31.78792592 35.17557721 31.68766862 31.95043945 31.62548828 C30.01879761 31.63022389 28.08715691 31.63544727 26.15551758 31.64111328 C23.10933112 31.62636058 20.06359923 31.60195945 17.01757812 31.56689453 C14.07796509 31.54026372 11.14010386 31.5498153 8.20043945 31.56298828 C6.83466515 31.53052505 6.83466515 31.53052505 5.44129944 31.49740601 C2.98806163 31.51659813 0.87861783 31.58936783 -1.4909668 32.22705078 C-4.11952342 34.9754749 -4.11952342 34.9754749 -5.4909668 38.22705078 C-5.90862305 38.99791016 -6.3262793 39.76876953 -6.7565918 40.56298828 C-7.08143555 41.23587891 -7.4062793 41.90876953 -7.7409668 42.60205078 C-8.07612305 43.29041016 -8.4112793 43.97876953 -8.7565918 44.68798828 C-8.99893555 45.19587891 -9.2412793 45.70376953 -9.4909668 46.22705078 C-7.31313998 48.40487759 -2.23993602 47.48794994 0.79418945 47.54345703 C1.72500839 47.56423813 2.65582733 47.58501923 3.61485291 47.60643005 C6.60033503 47.67203009 9.58590804 47.7308588 12.5715332 47.78955078 C14.59042297 47.83272608 16.6093034 47.87634003 18.62817383 47.92041016 C23.58836617 48.02772207 28.54865029 48.12895966 33.5090332 48.22705078 C31.6340332 53.97705078 31.6340332 53.97705078 30.5090332 56.22705078 C22.21629603 56.27336983 13.92361282 56.30891772 5.63077831 56.33067513 C1.78017295 56.34111703 -2.07034398 56.35528357 -5.92089844 56.37792969 C-9.63617002 56.39964369 -13.35135649 56.41161635 -17.06668663 56.41680527 C-18.48488391 56.42050363 -19.90307648 56.42772553 -21.32123756 56.43851089 C-23.30590912 56.4530058 -25.29066615 56.45386753 -27.27539062 56.45410156 C-28.97082756 56.4607634 -28.97082756 56.4607634 -30.70051575 56.46755981 C-33.4909668 56.22705078 -33.4909668 56.22705078 -36.4909668 54.22705078 C-37.85124376 47.13282858 -34.03452745 42.08309747 -30.4909668 36.16455078 C-29.89662842 35.14611084 -29.30229004 34.1276709 -28.68994141 33.07836914 C-27.50526731 31.04885612 -26.31519569 29.02248281 -25.11938477 26.99951172 C-23.37519471 24.02994317 -21.69082792 21.03186824 -20.01904297 18.02124023 C-9.94972614 -0.03733481 -9.94972614 -0.03733481 0 0 Z " fill="#0A0A0A" transform="translate(478.490966796875,247.77294921875)"/>
<path d="M0 0 C1.44155274 0.00171249 2.88310858 0.00164401 4.32466125 -0.00012207 C7.33661945 0.00152692 10.34782947 0.02015172 13.35961914 0.05175781 C17.22015436 0.09154242 21.07971581 0.09578838 24.94041729 0.08829498 C27.91301905 0.085227 30.88540177 0.09733769 33.85795021 0.11442566 C35.28170206 0.12145408 36.70547872 0.12458038 38.12924767 0.12373352 C40.11577549 0.1255301 42.10224746 0.14916903 44.08862305 0.17382812 C45.218582 0.18224731 46.34854095 0.1906665 47.51274109 0.19934082 C50.30078125 0.59375 50.30078125 0.59375 52.16511536 1.9407959 C53.96314893 4.55782173 53.67892974 6.4991062 53.30078125 9.59375 C51.98046875 12.1640625 51.98046875 12.1640625 50.17578125 14.71875 C47.56937911 18.58124956 45.319193 22.3932715 43.30078125 26.59375 C40.87277661 31.59828084 38.08595554 36.19571805 35.0390625 40.84375 C32.67513275 44.58353999 30.61411865 48.46115777 28.5625 52.37890625 C27.30078125 54.59375 27.30078125 54.59375 25.30078125 56.59375 C22.69921875 56.7890625 22.69921875 56.7890625 19.67578125 56.71875 C18.67289062 56.70070313 17.67 56.68265625 16.63671875 56.6640625 C15.48042969 56.62925781 15.48042969 56.62925781 14.30078125 56.59375 C14.97634989 53.2276134 16.25617162 50.56144161 17.890625 47.55078125 C18.42333008 46.56674316 18.95603516 45.58270508 19.50488281 44.56884766 C20.0769043 43.52519043 20.64892578 42.4815332 21.23828125 41.40625 C21.81932617 40.33938965 22.40037109 39.2725293 22.99902344 38.17333984 C27.33936816 30.2453732 31.83224814 22.41962742 36.47265625 14.6640625 C37.46272305 13.001258 38.43531593 11.32468064 39.30078125 9.59375 C34.42475886 9.51394666 29.55332293 9.4934276 24.67675781 9.52661133 C23.02013397 9.52968394 21.36339845 9.51686941 19.70703125 9.48754883 C10.3798153 9.00564178 10.3798153 9.00564178 2.05126953 12.29272461 C0.43996636 14.65462344 -0.62008747 16.94843069 -1.69921875 19.59375 C-2.66042823 21.33538497 -3.6374939 23.06834775 -4.62890625 24.79296875 C-5.61453778 26.62031872 -6.59621621 28.44980564 -7.57421875 30.28125 C-8.61874541 32.21671084 -9.66432013 34.15160643 -10.7109375 36.0859375 C-11.2167334 37.02147461 -11.7225293 37.95701172 -12.24365234 38.92089844 C-14.25059272 42.60623612 -16.30404229 46.26327011 -18.38671875 49.90625 C-19.32064453 51.54013672 -19.32064453 51.54013672 -20.2734375 53.20703125 C-21.69921875 55.59375 -21.69921875 55.59375 -22.69921875 56.59375 C-24.62589382 56.68123207 -26.55573736 56.70072334 -28.484375 56.69140625 C-30.23911133 56.68657227 -30.23911133 56.68657227 -32.02929688 56.68164062 C-33.8768457 56.66907227 -33.8768457 56.66907227 -35.76171875 56.65625 C-37.61506836 56.64948242 -37.61506836 56.64948242 -39.50585938 56.64257812 C-42.57035992 56.63074608 -45.63476596 56.61426173 -48.69921875 56.59375 C-47.25812115 52.05224061 -45.52571046 48.42577679 -42.94921875 44.40625 C-39.80729697 39.43711634 -36.90390451 34.389528 -34.12890625 29.20703125 C-32.2575689 25.786472 -30.23522075 22.46894077 -28.19921875 19.14453125 C-26.09270137 15.56235457 -24.23383343 11.85843493 -22.38671875 8.13671875 C-16.48355856 -0.75901571 -10.01928702 -0.12576635 0 0 Z " fill="#171717" transform="translate(250.69921875,247.40625)"/>
<path d="M0 0 C1.24106003 0.00007553 2.48212006 0.00015106 3.76078796 0.00022888 C5.11502116 0.00533548 6.46925395 0.01055148 7.82348633 0.01586914 C9.20925343 0.01773456 10.59502119 0.01915788 11.98078918 0.02015686 C15.62549668 0.02397229 19.27016423 0.03379426 22.91485596 0.04486084 C26.63504496 0.05509589 30.35524042 0.05965897 34.07543945 0.06469727 C41.37298369 0.07541741 48.67049503 0.09248214 55.96801758 0.11352539 C55.38123427 3.63422524 54.61151837 5.82652382 52.96801758 9.11352539 C37.12801758 9.44352539 21.28801758 9.77352539 4.96801758 10.11352539 C8.16028558 13.30579339 11.29940622 16.36798798 14.65551758 19.36352539 C15.51532227 20.13567383 16.37512695 20.90782227 17.26098633 21.70336914 C19.08830491 23.33028915 20.92450346 24.94728226 22.76879883 26.55493164 C23.65954102 27.33739258 24.5502832 28.11985352 25.46801758 28.92602539 C26.28270508 29.6337207 27.09739258 30.34141602 27.93676758 31.07055664 C31.14727616 34.29958739 32.26349391 36.95567657 32.34301758 41.48852539 C32.20208435 47.21041457 29.80717831 50.33552081 25.75483704 54.25311279 C22.26644521 56.58187797 20.23690653 56.59812421 16.06640625 56.56762695 C15.0558165 56.56850311 15.0558165 56.56850311 14.02481079 56.56939697 C11.81133402 56.56662365 9.59922603 56.53557079 7.38598633 56.50415039 C5.84614294 56.49668524 4.30629002 56.4909936 2.76643372 56.48699951 C-1.27634141 56.47176451 -5.31853702 56.43250189 -9.36108398 56.38818359 C-13.49023602 56.34718435 -17.61948216 56.32897861 -21.7487793 56.30883789 C-29.84344558 56.26600487 -37.9376418 56.19778024 -46.03198242 56.11352539 C-44.71198242 53.47352539 -43.39198242 50.83352539 -42.03198242 48.11352539 C-16.78698242 47.61852539 -16.78698242 47.61852539 8.96801758 47.11352539 C-0.85530711 38.13279601 -0.85530711 38.13279601 -11.01245117 29.52368164 C-17.06678014 24.6178027 -17.06678014 24.6178027 -18.03198242 20.11352539 C-18.50296197 14.273379 -18.03430332 10.31754828 -15.03198242 5.11352539 C-10.00229547 1.13168989 -6.31539828 -0.01281014 0 0 Z " fill="#131313" transform="translate(405.031982421875,247.886474609375)"/>
<path d="M0 0 C8.58 0 17.16 0 26 0 C24.34953732 4.12615671 22.59262691 7.61629028 20.375 11.4375 C19.65355906 12.68614778 18.93220738 13.93484715 18.2109375 15.18359375 C17.84323242 15.81765137 17.47552734 16.45170898 17.09667969 17.10498047 C15.38498525 20.06272139 13.69330778 23.0316917 12 26 C11.67193359 26.57314941 11.34386719 27.14629883 11.00585938 27.73681641 C9.30357754 30.71081271 7.60986643 33.68923554 5.9296875 36.67578125 C5.58550781 37.28486328 5.24132812 37.89394531 4.88671875 38.52148438 C3.94044693 40.19664124 2.99744497 41.87364403 2.0546875 43.55078125 C1.72839355 44.08598389 1.40209961 44.62118652 1.06591797 45.17260742 C-0.0729237 47.06224458 -0.0729237 47.06224458 -1.12451172 49.3996582 C-2.53806488 52.07300316 -3.74776863 53.97101949 -6 56 C-10.33936277 57.10116114 -14.43405123 56.85572292 -18.875 56.5625 C-20.0403125 56.52189453 -21.205625 56.48128906 -22.40625 56.43945312 C-25.27511602 56.3336343 -28.13539942 56.18599238 -31 56 C-29.76026834 51.95547228 -28.28540907 48.46763201 -26.12890625 44.83203125 C-25.55962402 43.86515381 -24.9903418 42.89827637 -24.40380859 41.90209961 C-23.49236084 40.3727478 -23.49236084 40.3727478 -22.5625 38.8125 C-21.29527105 36.66424054 -20.02834794 34.51580064 -18.76171875 32.3671875 C-18.12927246 31.29823242 -17.49682617 30.22927734 -16.84521484 29.12792969 C-14.16210774 24.5796407 -11.51611284 20.01026196 -8.875 15.4375 C-8.43873291 14.68380127 -8.00246582 13.93010254 -7.55297852 13.15356445 C-5.02078574 8.77707559 -2.50869648 4.39021884 0 0 Z " fill="#101010" transform="translate(200,248)"/>
<path d="M0 0 C0.65407333 -0.00043808 1.30814667 -0.00087616 1.98204041 -0.00132751 C4.13579556 0.0007562 6.2887643 0.02406602 8.44238281 0.04760742 C9.9388181 0.0532049 11.4352589 0.05747428 12.93170166 0.06047058 C16.86422997 0.07190753 20.7964242 0.10136449 24.7288208 0.13458252 C28.74397259 0.16530839 32.75917852 0.17898128 36.77441406 0.1940918 C44.64826504 0.22623557 52.52184483 0.27741768 60.39550781 0.34057617 C59.83821869 3.68431093 59.04376893 6.37370617 57.39550781 9.34057617 C56.84284744 9.3442218 56.29018707 9.34786743 55.72077942 9.35162354 C49.96145788 9.39347859 44.20293104 9.46284467 38.4440918 9.5480957 C36.2957352 9.57629744 34.147275 9.59751592 31.9987793 9.61157227 C28.90782662 9.6330124 25.81811859 9.67966928 22.72753906 9.73120117 C21.2897686 9.73304413 21.2897686 9.73304413 19.82295227 9.73492432 C15.39948864 9.83178072 13.04028488 9.9228347 9.24975586 12.37866211 C8.637854 13.02609375 8.02595215 13.67352539 7.39550781 14.34057617 C7.70800781 12.46557617 7.70800781 12.46557617 8.39550781 10.34057617 C11.552764 8.23573871 12.26925392 8.09337027 15.86694336 8.11352539 C17.21800423 8.11375198 17.21800423 8.11375198 18.59635925 8.11398315 C19.56519547 8.12430573 20.53403168 8.1346283 21.53222656 8.14526367 C23.02409233 8.14950851 23.02409233 8.14950851 24.5460968 8.15383911 C27.72518912 8.16504128 30.90400053 8.19014603 34.08300781 8.21557617 C36.23730062 8.22560592 38.39159784 8.23473178 40.54589844 8.24291992 C45.82919753 8.26498071 51.11233261 8.29845861 56.39550781 8.34057617 C57.05550781 6.36057617 57.71550781 4.38057617 58.39550781 2.34057617 C49.87623223 2.37864927 41.35748331 2.43803345 32.83857441 2.52447891 C28.88268205 2.56395474 24.9270123 2.59614244 20.97094727 2.61157227 C17.15163878 2.62673857 13.33294231 2.66118248 9.51390648 2.70888519 C8.05835483 2.72369948 6.6027158 2.73161722 5.147089 2.73246002 C3.10464187 2.73483153 1.06388364 2.76192015 -0.97827148 2.79467773 C-2.13965134 2.80356018 -3.30103119 2.81244263 -4.49760437 2.82159424 C-8.20437551 3.44078211 -9.9020746 4.79360309 -12.60449219 7.34057617 C-10.02475408 1.10620907 -6.5190129 -0.03676135 0 0 Z " fill="#5B5B5B" transform="translate(478.6044921875,247.659423828125)"/>
<path d="M0 0 C0.33 0.66 0.66 1.32 1 2 C-0.485 4.475 -0.485 4.475 -2 7 C18.295 7.495 18.295 7.495 39 8 C38.67 9.65 38.34 11.3 38 13 C37.505 11.515 37.505 11.515 37 10 C23.14 10 9.28 10 -5 10 C-2.75 3.25 -2.75 3.25 0 0 Z " fill="#535353" transform="translate(485,262)"/>
<path d="M0 0 C0.33 0.99 0.66 1.98 1 3 C14.53 3 28.06 3 42 3 C40.875 8.625 40.875 8.625 38 11 C38.66 9.02 39.32 7.04 40 5 C26.14 5 12.28 5 -2 5 C-1.34 3.35 -0.68 1.7 0 0 Z " fill="#515151" transform="translate(328,267)"/>
<path d="M0 0 C0.99 0 1.98 0 3 0 C3 17.82 3 35.64 3 54 C-0.47638099 50.52361901 -2.17689548 48.413832 -4 44 C-3.67 43.34 -3.34 42.68 -3 42 C-1.68 43.98 -0.36 45.96 1 48 C1.33 32.49 1.66 16.98 2 1 C1.34 0.67 0.68 0.34 0 0 Z " fill="#EE6D75" transform="translate(259,83)"/>
<path d="M0 0 C8.58 0 17.16 0 26 0 C24 5 24 5 22 6 C22.33 4.68 22.66 3.36 23 2 C15.41 2.33 7.82 2.66 0 3 C0 2.01 0 1.02 0 0 Z " fill="#565656" transform="translate(200,248)"/>
<path d="M0 0 C6.27444779 2.02392461 12.42984439 4.26976993 18.5625 6.6875 C19.78936523 7.16799805 19.78936523 7.16799805 21.04101562 7.65820312 C23.02813622 8.43678254 25.01418427 9.21809845 27 10 C23.48604716 11.24540698 21.63330973 10.76387905 18.234375 9.34765625 C17.34492188 8.98349609 16.45546875 8.61933594 15.5390625 8.24414062 C14.61867187 7.85419922 13.69828125 7.46425781 12.75 7.0625 C11.34621094 6.48338867 11.34621094 6.48338867 9.9140625 5.89257812 C7.60502173 4.93833169 5.30081138 3.97388338 3 3 C3.33 4.65 3.66 6.3 4 8 C1.10067643 5.60490662 0.49831724 3.68754757 0 0 Z " fill="#EF8186" transform="translate(137,3)"/>
<path d="M0 0 C0.66 0.33 1.32 0.66 2 1 C0.38405168 3.04119788 -1.2856382 5.04072937 -3 7 C-3.66 7 -4.32 7 -5 7 C-5.33 10.63 -5.66 14.26 -6 18 C-6.33 18 -6.66 18 -7 18 C-7.31378179 12.03814602 -6.89026484 8.26441096 -4 3 C-1.8125 1.0625 -1.8125 1.0625 0 0 Z " fill="#696969" transform="translate(394,250)"/>
<path d="M0 0 C3.09592835 3.5087188 4.74194623 6.49197399 6 11 C3.72028081 8.82883887 1.69395913 6.66193578 0 4 C0 2.68 0 1.36 0 0 Z " fill="#EF7D83" transform="translate(226,74)"/>
<path d="M0 0 C4.75 0.75 4.75 0.75 7 3 C5.68 3 4.36 3 3 3 C3 3.99 3 4.98 3 6 C0 2.25 0 2.25 0 0 Z " fill="#EF8085" transform="translate(222,68)"/>
</svg>
