<?xml version="1.0" encoding="UTF-8"?>
<svg version="1.1" xmlns="http://www.w3.org/2000/svg" width="521" height="316">
<path d="M0 0 C2.02969821 0.26510635 2.02969821 0.26510635 4.0625 0.3125 C8 1 8 1 9.9375 3.1875 C11.08137521 6.21540497 11.79347217 8.76439734 12 12 C11.66742188 12.63292969 11.33484375 13.26585938 10.9921875 13.91796875 C9.8210506 16.37551193 9.91482825 17.58607843 10.3125 20.25 C10.99524877 24.9141714 10.99524877 24.9141714 11.12109375 27.1875 C11.4576554 32.57248647 13.19598903 34.39620014 17 38 C17 40.25 17 40.25 16 42 C15.01 42.33 14.02 42.66 13 43 C13.20625 44.19625 13.4125 45.3925 13.625 46.625 C14.14523537 50.61112776 13.34869799 53.2067869 12 57 C12.185625 57.886875 12.37125 58.77375 12.5625 59.6875 C13 62 13 62 12.0625 63.6875 C8.89999053 65.70000603 5.65797214 66.22043217 2 67 C2 67.66 2 68.32 2 69 C2.556875 69.11029541 3.11375 69.22059082 3.6875 69.33422852 C9.00912718 70.44383722 13.95828908 71.91726513 19 73.9375 C19.75345703 74.23833496 20.50691406 74.53916992 21.28320312 74.84912109 C22.94874272 75.52128052 24.6120652 76.19895296 26.2734375 76.88134766 C28.17117774 77.65995133 30.0725171 78.42981616 31.9765625 79.19287109 C47.73773268 85.54523495 64.56613539 92.86134324 76 106 C76 106.66 76 107.32 76 108 C76.556875 108.23976563 77.11375 108.47953125 77.6875 108.7265625 C80.50976041 110.28071266 82.62708607 112.1974174 85 114.375 C85.845625 115.14585937 86.69125 115.91671875 87.5625 116.7109375 C88.366875 117.46632813 89.17125 118.22171875 90 119 C90.65613281 119.60457031 91.31226563 120.20914063 91.98828125 120.83203125 C94.72477059 123.78106345 96.94012776 126.98269297 99.1875 130.3125 C99.86329102 131.2705957 99.86329102 131.2705957 100.55273438 132.24804688 C103.3665966 136.41188798 105.33905064 139.8165478 105 145 C103.15030933 148.14371296 100.73887138 150.53953575 98.125 153.0625 C97.3719458 153.80201904 96.6188916 154.54153809 95.84301758 155.3034668 C87.01803826 163.52816743 76.71535316 168.83059102 66.08740234 174.35791016 C61.29225076 176.9082968 56.64450663 179.68695549 52 182.5 C51.21842529 182.96833252 50.43685059 183.43666504 49.6315918 183.91918945 C44.9870116 186.72262047 40.48741892 189.67465815 36.04907227 192.79541016 C33.00860256 194.58281365 30.49279017 194.85137063 27 195 C27 196.32 27 197.64 27 199 C25.02 199 23.04 199 21 199 C21.4366311 187.37351242 22.03342972 175.77727372 22.97265625 164.1796875 C23.06050385 163.09198059 23.14835144 162.00427368 23.23886108 160.88360596 C23.60191391 156.42758954 23.9698978 151.97202901 24.34594727 147.51708984 C26.87040498 118.68984128 26.87040498 118.68984128 24 90 C23.67 89.67 23.34 89.34 23 89 C23.1611731 89.87075165 23.32234619 90.7415033 23.48840332 91.63864136 C26.91040085 114.12229188 23.33174779 138.79646505 21.68218994 161.36352539 C21.37279425 165.62852164 21.07568692 169.89437517 20.77734375 174.16015625 C20.19647655 182.44095682 19.60271843 190.72076122 19 199 C16.69 199 14.38 199 12 199 C12.26315403 193.34391215 12.52980433 187.68800338 12.79956055 182.03222656 C12.8906686 180.11202348 12.98085561 178.19177645 13.07006836 176.27148438 C13.19917881 173.49597023 13.33170721 170.7206361 13.46484375 167.9453125 C13.50343002 167.1001004 13.5420163 166.25488831 13.58177185 165.38406372 C13.86531036 159.56589784 14.37004891 153.79066544 15 148 C14.01 148 13.02 148 12 148 C10.98712336 158.9303682 10.69018953 169.8437115 10.4375 180.8125 C10.39419001 182.58399198 10.35057233 184.35547646 10.30664062 186.12695312 C10.20088611 190.41789076 10.09927321 194.70890773 10 199 C7.03 199 4.06 199 1 199 C0.97495118 193.84456725 0.95697808 188.68917129 0.94506836 183.53369141 C0.94009412 181.78628928 0.93331234 180.03889119 0.92456055 178.29150391 C0.87342268 167.80523267 1.04250548 157.45147904 2 147 C0.35 146.67 -1.3 146.34 -3 146 C-3.03758423 147.60887085 -3.03758423 147.60887085 -3.07592773 149.25024414 C-3.17148942 153.30403696 -3.27132022 157.35771615 -3.37231445 161.41137695 C-3.41511049 163.15190945 -3.45681261 164.89246925 -3.49731445 166.63305664 C-3.74982356 177.4473047 -4.16821698 188.2133561 -5 199 C-7.97 199 -10.94 199 -14 199 C-14.11799213 185.81654448 -13.77835102 172.70917846 -13.125 159.54296875 C-13.03488537 157.65637747 -12.94521354 155.769765 -12.85595703 153.88313293 C-12.62308346 148.98148754 -12.38513077 144.08010347 -12.14575195 139.17877197 C-11.76145325 131.29179756 -11.38512203 123.40443898 -11.00872803 115.51708412 C-10.8773517 112.77947337 -10.74379184 110.04197607 -10.60986328 107.30448914 C-10.52892831 105.62771814 -10.44803416 103.95094518 -10.3671875 102.27416992 C-10.31108307 101.14505692 -10.31108307 101.14505692 -10.25384521 99.99313354 C-10.06263559 95.99126251 -9.9629691 92.00635473 -10 88 C-10.99 88 -11.98 88 -13 88 C-13.69325293 91.22084589 -14.171574 94.33885235 -14.38600159 97.6254425 C-14.44627533 98.52421616 -14.50654907 99.42298981 -14.56864929 100.34899902 C-14.63050919 101.32220093 -14.69236908 102.29540283 -14.75610352 103.2980957 C-14.85873505 104.85000862 -14.85873505 104.85000862 -14.96343994 106.43327332 C-15.18842479 109.84724335 -15.40868583 113.26150085 -15.62890625 116.67578125 C-15.78412786 119.04520035 -15.9396443 121.41460015 -16.09544373 123.78398132 C-16.50444273 130.01609643 -16.90943527 136.24846568 -17.31359863 142.480896 C-17.72683214 148.84223981 -18.14384785 155.20333555 -18.56054688 161.56445312 C-19.37740321 174.04272864 -20.19002787 186.52127587 -21 199 C-24.63 199 -28.26 199 -32 199 C-32.17961672 187.63175848 -31.47002719 176.40576208 -30.6875 165.0703125 C-30.55253397 163.06544939 -30.41802056 161.06055577 -30.28393555 159.05563354 C-29.9324814 153.81391674 -29.57628281 148.57253476 -29.21862793 143.33123779 C-28.645306 134.92331637 -28.07755201 126.51502314 -27.51309204 118.10650253 C-27.31583064 115.18218777 -27.11546515 112.25809745 -26.91479492 109.33401489 C-26.79334578 107.53664895 -26.67200225 105.73927587 -26.55078125 103.94189453 C-26.49467682 103.13656784 -26.43857239 102.33124115 -26.38076782 101.50151062 C-26.07961145 96.98864068 -25.94706173 92.52298391 -26 88 C-27.485 88.495 -27.485 88.495 -29 89 C-31.97 125.3 -34.94 161.6 -38 199 C-40.64 199 -43.28 199 -46 199 C-46.23098604 196.70886818 -46.43414498 194.41959789 -46.625 192.125 C-46.74101562 190.84882813 -46.85703125 189.57265625 -46.9765625 188.2578125 C-47.15576804 183.70522549 -46.61184205 179.28827329 -46.0546875 174.77978516 C-44.98315105 165.61333492 -44.48568993 156.48410154 -44.1484375 147.265625 C-44.08456141 145.64660595 -44.02014745 144.02760803 -43.95523071 142.40863037 C-43.78840767 138.20935429 -43.62938821 134.00981886 -43.47198486 129.81018066 C-43.34185655 126.37508798 -43.20596617 122.94023398 -43.06982994 119.50537491 C-42.9066007 115.38386658 -42.74590871 111.26226093 -42.5859375 107.140625 C-42.54065477 105.97642406 -42.54065477 105.97642406 -42.49445724 104.78870392 C-42.40950057 102.58867709 -42.32626249 100.38859261 -42.24365234 98.18847656 C-42.19639008 96.94148987 -42.14912781 95.69450317 -42.10043335 94.409729 C-42.00796852 91.2705326 -41.98125185 88.14029666 -42 85 C-44.32654046 93.53064836 -45.37328434 101.92578866 -46.00390625 110.71875 C-46.08752914 111.84618622 -46.17115204 112.97362244 -46.25730896 114.13522339 C-47.21814477 127.4544745 -47.89443852 140.78848081 -48.5625 154.125 C-49.0346168 163.41703437 -49.51119847 172.70882739 -50 182 C-50.04727234 182.90633179 -50.09454468 183.81266357 -50.14324951 184.74645996 C-50.26588506 187.05787957 -50.39496548 189.36880851 -50.52734375 191.6796875 C-50.62970337 193.51249268 -50.62970337 193.51249268 -50.73413086 195.38232422 C-51 198 -51 198 -52 199 C-54.33297433 199.04092937 -56.66705225 199.04241723 -59 199 C-58.90803345 197.82089302 -58.90803345 197.82089302 -58.81420898 196.6179657 C-58.10667192 187.18401152 -57.6163007 177.74945664 -57.18405151 168.29953957 C-57.05943177 165.57751302 -56.93246804 162.85560413 -56.80493164 160.13371277 C-56.44327691 152.40577619 -56.08603591 144.67763674 -55.72949219 136.94946289 C-55.50991324 132.19347883 -55.28796042 127.43760995 -55.06466675 122.68179893 C-54.9404098 120.01937867 -54.81892472 117.3568413 -54.69750977 114.69429016 C-54.3139585 106.44175216 -53.87763722 98.21840658 -53 90 C-55.64093889 93.7954548 -56.35205739 96.22540341 -56.22265625 100.828125 C-56.20259521 102.00084961 -56.18253418 103.17357422 -56.16186523 104.38183594 C-56.11267944 106.29657715 -56.11267944 106.29657715 -56.0625 108.25 C-55.85458619 121.44758648 -56.2622284 134.56967132 -56.9375 147.75 C-56.9813382 148.62918091 -57.02517639 149.50836182 -57.07034302 150.41418457 C-57.53297337 159.62715289 -58.03746579 168.82289048 -59 178 C-62.67230705 174.92000054 -63.56802365 172.7517398 -64 168 C-65.313702 168.6433848 -66.62592898 169.28978215 -67.9375 169.9375 C-69.03384766 170.47697266 -69.03384766 170.47697266 -70.15234375 171.02734375 C-71.96249027 171.86371827 -71.96249027 171.86371827 -73 173 C-76.97568187 173.40800554 -79.16864498 173.63226029 -82.4140625 171.1640625 C-83.14367187 170.32617188 -83.87328125 169.48828125 -84.625 168.625 C-88.35545913 164.60540194 -92.10176539 161.20641468 -96.5 157.9375 C-108.44557297 148.90876754 -118.0204455 140.49368341 -121 125 C-121.13386978 122.30826117 -121.09468252 119.69845168 -121 117 C-117.37 115.35 -113.74 113.7 -110 112 C-110.33 111.01 -110.66 110.02 -111 109 C-118.71084286 110.16543495 -125.18468881 115.16832197 -129.96875 121.21484375 C-131.74366203 124.28732404 -131.55242756 126.56267293 -131 130 C-125.77458522 146.59837637 -109.32823684 156.91997347 -95.28662109 165.56494141 C-92.94631024 167.03369511 -90.65465814 168.56166742 -88.36328125 170.10546875 C-80.31855987 175.42480439 -74.32003112 179.27555681 -64.40625 178.875 C-63.6121875 178.91625 -62.818125 178.9575 -62 179 C-59.53172478 182.70241282 -59.76240974 184.6591111 -59.8125 189.0625 C-59.81894531 190.31160156 -59.82539063 191.56070313 -59.83203125 192.84765625 C-60 196 -60 196 -61 198 C-64.3 198 -67.6 198 -71 198 C-70.57682292 196.046875 -70.15364583 194.09375 -69.73046875 192.140625 C-69.79119409 189.75570908 -69.79119409 189.75570908 -72.1862793 188.06933594 C-74.82374872 186.12962307 -77.47056775 184.41274543 -80.2890625 182.75 C-81.30379639 182.14792725 -82.31853027 181.54585449 -83.36401367 180.92553711 C-84.44013916 180.29010986 -85.51626465 179.65468262 -86.625 179 C-88.88475446 177.64820451 -91.14386304 176.29532876 -93.40234375 174.94140625 C-96.529752 173.0694709 -99.65829397 171.2006637 -102.80126953 169.35498047 C-117.35487951 160.80035805 -133.99698815 150.19216799 -139 133 C-139.83108536 127.50411294 -139.77922493 122.92950934 -137.6875 117.75 C-129.81006457 109.6893684 -119.59775348 104.13816174 -110.04980469 98.2734375 C-108.09369132 97.05820557 -106.1577329 95.81690089 -104.2265625 94.5625 C-100.20056608 91.9569207 -96.11735594 89.45833202 -92 87 C-91.1558252 86.49082031 -90.31165039 85.98164062 -89.44189453 85.45703125 C-77.53847453 78.39491962 -66.85555588 73.68421737 -52.98046875 72.25048828 C-46.46649933 71.54540233 -43.08200475 70.1561608 -38 66 C-37.34 66 -36.68 66 -36 66 C-37.0031875 61.76431945 -38.72072425 58.94534769 -41.33203125 55.55859375 C-45.38055985 49.85283063 -47.31173309 44.14415907 -49.125 37.4375 C-49.61613281 35.8297168 -49.61613281 35.8297168 -50.1171875 34.18945312 C-52.04832822 27.26529726 -52.40714387 22.45339833 -49 16 C-47.5 13.6953125 -47.5 13.6953125 -46 12.125 C-45.505 11.59132813 -45.01 11.05765625 -44.5 10.5078125 C-44.005 10.01023437 -43.51 9.51265625 -43 9 C-42.51660156 8.50242187 -42.03320312 8.00484375 -41.53515625 7.4921875 C-35.66264191 1.78404379 -29.98265323 -0.59187853 -22 -1.9375 C-21.25290771 -2.06576172 -20.50581543 -2.19402344 -19.73608398 -2.32617188 C-12.75930849 -3.34385634 -6.32811673 -3.29615294 0 0 Z M-16 32 C-16.89187632 35.13289375 -16.89187632 35.13289375 -17 38 C-21.75 36.125 -21.75 36.125 -24 35 C-24 36.98 -24 38.96 -24 41 C-24.99 41 -25.98 41 -27 41 C-27.33 40.34 -27.66 39.68 -28 39 C-28.99 39 -29.98 39 -31 39 C-30.38722388 41.96175123 -29.74627478 43.38058783 -28 46 C-27.7652005 51.56810231 -29.4157389 56.7545826 -31.4765625 61.859375 C-32.1712277 64.70024464 -32.02902032 66.25160395 -31 69 C-28.57030718 71.12173463 -28.57030718 71.12173463 -25.5625 72.8125 C-24.07943359 73.71935547 -24.07943359 73.71935547 -22.56640625 74.64453125 C-20.18897929 76.15567392 -20.18897929 76.15567392 -18 76 C-17.11383973 72.01195218 -17.11383973 72.01195218 -17 68 C-19.360962 65.7110076 -19.360962 65.7110076 -22 64 C-22 62.68 -22 61.36 -22 60 C-19.23382437 58.61691219 -16.98982 58.88789804 -13.8984375 58.90234375 C-12.08085937 58.90717773 -12.08085937 58.90717773 -10.2265625 58.91210938 C-8.95554687 58.92048828 -7.68453125 58.92886719 -6.375 58.9375 C-5.09625 58.94201172 -3.8175 58.94652344 -2.5 58.95117188 C0.66671292 58.96298797 3.83333356 58.97946185 7 59 C6.65195312 58.38640625 6.30390625 57.7728125 5.9453125 57.140625 C5.63335937 56.43421875 5.32140625 55.7278125 5 55 C5.875 52.75 5.875 52.75 7 51 C5.68 51.33 4.36 51.66 3 52 C4.26941497 48.08597051 5.51167694 46.20927127 9 44 C8.505 42.515 8.505 42.515 8 41 C8.99 40.34 9.98 39.68 11 39 C10.505 37.515 10.505 37.515 10 36 C9.08476562 35.96261719 8.16953125 35.92523438 7.2265625 35.88671875 C6.03804687 35.82097656 4.84953125 35.75523438 3.625 35.6875 C2.44164062 35.62949219 1.25828125 35.57148437 0.0390625 35.51171875 C-1.46527344 35.25841797 -1.46527344 35.25841797 -3 35 C-3.66 34.01 -4.32 33.02 -5 32 C-4.4225 31.66226563 -3.845 31.32453125 -3.25 30.9765625 C-2.5075 30.53054687 -1.765 30.08453125 -1 29.625 C0.11375 28.96371094 0.11375 28.96371094 1.25 28.2890625 C1.8275 27.86367188 2.405 27.43828125 3 27 C3 26.34 3 25.68 3 25 C-4.60831963 23.9951276 -10.44137614 26.70514212 -16 32 Z M30 85 C32.43912067 87.79805482 34.95269782 89.0394503 38.3125 90.5625 C44.07147186 93.34052166 49.04575459 96.70167128 54.1027832 100.57250977 C57.61148673 103.2095494 60.7628205 104.84789681 65 106 C60.7894358 101.52256905 55.88953786 98.46883817 50.75439453 95.14697266 C48.91492403 93.94437978 47.09575314 92.71464263 45.27734375 91.48046875 C44.03932967 90.65324585 42.80105365 89.82641481 41.5625 89 C40.98387207 88.60208252 40.40524414 88.20416504 39.80908203 87.79418945 C36.40583941 85.55255929 34.09208954 84.51047901 30 85 Z M-81 88 C-83.17626995 88.90336767 -83.17626995 88.90336767 -85.5703125 90.30859375 C-86.46621094 90.80810547 -87.36210937 91.30761719 -88.28515625 91.82226562 C-89.22230469 92.35529297 -90.15945312 92.88832031 -91.125 93.4375 C-92.06988281 93.96666016 -93.01476562 94.49582031 -93.98828125 95.04101562 C-96.32962905 96.35358939 -98.6665287 97.67348945 -101 99 C-100.01 99.495 -100.01 99.495 -99 100 C-91.94809593 97.11414387 -85.36385331 93.16098101 -79 89 C-79.66 88.67 -80.32 88.34 -81 88 Z M-64 89 C-67.30023577 92.30023577 -66.16120995 100.94171291 -66.16796875 105.50390625 C-66.17129715 106.30424789 -66.17462555 107.10458954 -66.17805481 107.92918396 C-66.18309394 109.61757844 -66.18546407 111.30598278 -66.18530273 112.99438477 C-66.18747299 115.53093668 -66.20561603 118.06704136 -66.22460938 120.60351562 C-66.25688948 130.26945469 -65.72740603 139.46256555 -64 149 C-63.67 149 -63.34 149 -63 149 C-63 129.2 -63 109.4 -63 89 C-63.33 89 -63.66 89 -64 89 Z M0 89 C-0.84327749 97.35748222 -1.12190678 105.60197746 -1 114 C0.65 114 2.3 114 4 114 C5.75099193 100.88102947 5.75099193 100.88102947 1 89 C0.67 89 0.34 89 0 89 Z M14 91 C12.76078789 92.01636977 12.76078789 92.01636977 12.88647461 94.13305664 C12.89171143 95.04949951 12.89694824 95.96594238 12.90234375 96.91015625 C12.90556641 97.89951172 12.90878906 98.88886719 12.91210938 99.90820312 C12.92048828 100.94912109 12.92886719 101.99003906 12.9375 103.0625 C12.94201172 104.10728516 12.94652344 105.15207031 12.95117188 106.22851562 C12.96300087 108.8190666 12.97948311 111.40950559 13 114 C13.99 114 14.98 114 16 114 C16 106.41 16 98.82 16 91 C15.34 91 14.68 91 14 91 Z M-72 93 C-72.33 93.66 -72.66 94.32 -73 95 C-72.34 95 -71.68 95 -71 95 C-71.33 94.34 -71.66 93.68 -72 93 Z M-86.625 101.8125 C-87.71296875 102.45509766 -88.8009375 103.09769531 -89.921875 103.75976562 C-91.46488281 104.69272461 -91.46488281 104.69272461 -93.0390625 105.64453125 C-93.98990723 106.21534424 -94.94075195 106.78615723 -95.92041016 107.37426758 C-96.6066748 107.91075928 -97.29293945 108.44725098 -98 109 C-98 109.99 -98 110.98 -98 112 C-92.56371874 111.62765197 -89.07718555 108.40135303 -84.9375 105.1875 C-84.23044922 104.65318359 -83.52339844 104.11886719 -82.79492188 103.56835938 C-79.30075778 100.90098341 -76.00656061 98.22521957 -73 95 C-77.7332536 95 -82.67776866 99.42202279 -86.625 101.8125 Z M31 96 C32.03127194 98.84972779 32.79350821 99.87637008 35.43359375 101.45703125 C36.92052734 102.12798828 36.92052734 102.12798828 38.4375 102.8125 C43.88865584 105.37388648 48.77344382 108.35432018 53.72265625 111.77734375 C54.47417969 112.18082031 55.22570312 112.58429688 56 113 C56.99 112.67 57.98 112.34 59 112 C55.46521149 109.69758891 51.92104446 107.41002991 48.375 105.125 C47.37597656 104.47402344 46.37695312 103.82304688 45.34765625 103.15234375 C44.37441406 102.52714844 43.40117187 101.90195313 42.3984375 101.2578125 C41.50817871 100.6817627 40.61791992 100.10571289 39.70068359 99.51220703 C36.86629756 97.92513533 34.10620117 96.92906916 31 96 Z M-78.01171875 108.84375 C-78.76904297 109.43027344 -79.52636719 110.01679688 -80.30664062 110.62109375 C-81.48516602 111.55115234 -81.48516602 111.55115234 -82.6875 112.5 C-83.48478516 113.12003906 -84.28207031 113.74007812 -85.10351562 114.37890625 C-87.07412133 115.91291069 -89.03925469 117.45342535 -91 119 C-90.67 119.66 -90.34 120.32 -90 121 C-87.58166743 119.56524299 -85.16531836 118.12731547 -82.75 116.6875 C-82.06808594 116.28337891 -81.38617188 115.87925781 -80.68359375 115.46289062 C-75.60799597 112.55265499 -75.60799597 112.55265499 -71 109 C-71 108.01 -71 107.02 -71 106 C-74.56850836 106 -75.26292789 106.69431955 -78.01171875 108.84375 Z M-22 107 C-22 107.66 -22 108.32 -22 109 C-21.34 109 -20.68 109 -20 109 C-20 108.34 -20 107.68 -20 107 C-20.66 107 -21.32 107 -22 107 Z M36 110 C37.70627508 115.11882523 40.00091923 117.93903535 44.796875 120.484375 C46.25867188 121.11085938 46.25867188 121.11085938 47.75 121.75 C48.73484375 122.17796875 49.7196875 122.6059375 50.734375 123.046875 C51.48203125 123.36140625 52.2296875 123.6759375 53 124 C53 122.68 53 121.36 53 120 C51.54854433 118.53073847 51.54854433 118.53073847 49.53515625 117.421875 C48.81779297 116.98359375 48.10042969 116.5453125 47.36132812 116.09375 C46.60271484 115.6503125 45.84410156 115.206875 45.0625 114.75 C44.30775391 114.29109375 43.55300781 113.8321875 42.77539062 113.359375 C39.5873221 111.08929091 39.5873221 111.08929091 36 110 Z M32 116 C32 122.93 32 129.86 32 137 C32.33 137 32.66 137 33 137 C33.88021369 130.28837062 34.11381955 123.76594019 34 117 C33.34 116.67 32.68 116.34 32 116 Z M-1 118 C-1 118.33 -1 118.66 -1 119 C4.94 119 10.88 119 17 119 C17 118.67 17 118.34 17 118 C11.06 118 5.12 118 -1 118 Z M-83.75 122.6875 C-84.4409375 123.02716797 -85.131875 123.36683594 -85.84375 123.71679688 C-90.57239895 126.09445401 -94.76043438 128.83142413 -99 132 C-96.54525329 142.36448612 -88.05667473 150.46424827 -81 158 C-80.45214844 158.64710938 -79.90429688 159.29421875 -79.33984375 159.9609375 C-77.74919782 161.85619436 -77.74919782 161.85619436 -75 164 C-72.69 164 -70.38 164 -68 164 C-69.65 149.15 -71.3 134.3 -73 119 C-77.13600124 119 -80.14409558 120.85493726 -83.75 122.6875 Z M-1 122 C-1 122.33 -1 122.66 -1 123 C4.94 123 10.88 123 17 123 C17 122.67 17 122.34 17 122 C11.06 122 5.12 122 -1 122 Z M68 122 C66.3122919 123.76401402 66.3122919 123.76401402 64.8125 126 C64.28269531 126.7425 63.75289062 127.485 63.20703125 128.25 C62.80871094 128.8275 62.41039062 129.405 62 130 C63.46976464 133.45007911 65.40918519 135.56493084 68.125 138.125 C69.45394723 139.37827763 70.75547173 140.66285567 72 142 C72 144 72 144 70.70703125 145.3046875 C70.08183594 145.82289063 69.45664062 146.34109375 68.8125 146.875 C64.99378268 150.11922002 61.29485598 153.46512797 57.625 156.875 C52.76497431 161.38182614 47.86815563 165.84122263 42.92578125 170.2578125 C41.58511243 171.47066908 40.27836105 172.72163895 39 174 C36.6171875 174.6328125 36.6171875 174.6328125 33.875 175.125 C32.50988281 175.37636719 32.50988281 175.37636719 31.1171875 175.6328125 C30.41851562 175.75398438 29.71984375 175.87515625 29 176 C29 178.31 29 180.62 29 183 C49.06347928 172.92406767 69.10472608 158.89527392 85 143 C84.68418829 139.20597067 83.52864699 136.93907288 81.1640625 134.01171875 C80.59429687 133.30595703 80.02453125 132.60019531 79.4375 131.87304688 C78.839375 131.15181641 78.24125 130.43058594 77.625 129.6875 C77.03460938 128.94693359 76.44421875 128.20636719 75.8359375 127.44335938 C74.97742188 126.39438477 74.97742188 126.39438477 74.1015625 125.32421875 C73.57900879 124.68572998 73.05645508 124.04724121 72.51806641 123.3894043 C70.97414608 121.66242251 70.97414608 121.66242251 68 122 Z M39 127 C38.80365967 127.97759277 38.60731934 128.95518555 38.4050293 129.96240234 C37.66612776 133.63492182 36.92098291 137.30615257 36.17407227 140.97705078 C35.85339218 142.55744207 35.5343424 144.13816517 35.21704102 145.71923828 C33.50073263 154.26564318 31.78085239 162.72061472 29 171 C37.49110377 167.81398375 43.97578368 162.34414263 50.57421875 156.23828125 C53.38578971 153.64402978 56.28574783 151.16775289 59.2109375 148.703125 C61.3805253 146.63775321 63.17140859 144.36830782 65 142 C61.9846212 140.05391086 58.96177141 138.11973531 55.9375 136.1875 C55.08994141 135.64029297 54.24238281 135.09308594 53.36914062 134.52929688 C52.53447266 133.99755859 51.69980469 133.46582031 50.83984375 132.91796875 C50.08050537 132.43094482 49.32116699 131.9439209 48.53881836 131.44213867 C45.44342289 129.68384451 42.29104491 128.35617083 39 127 Z M31 138 C32 142 32 142 32 142 Z " fill="#151312" transform="translate(281,20)"/>
<path d="M0 0 C6.27 0 12.54 0 19 0 C19.495 14.355 19.495 14.355 20 29 C22.97 25.535 22.97 25.535 26 22 C28.51708984 21.20532227 28.51708984 21.20532227 30.9609375 21.31640625 C31.84394531 21.33896484 32.72695313 21.36152344 33.63671875 21.38476562 C34.99216797 21.47274414 34.99216797 21.47274414 36.375 21.5625 C37.30183594 21.59408203 38.22867188 21.62566406 39.18359375 21.65820312 C41.45904237 21.74030694 43.72783746 21.85500225 46 22 C44.40281083 25.32985225 42.54090578 27.9551144 40.1875 30.8125 C36.93989589 34.76364697 33.94503704 38.82143959 31 43 C31.78503906 43.90621094 32.57007813 44.81242187 33.37890625 45.74609375 C50 64.99101388 50 64.99101388 50 68 C32.05308924 69.75516909 32.05308924 69.75516909 27.12207031 66.92041016 C24.0062655 64.11378443 21.89489363 60.70556977 20 57 C19.67 60.63 19.34 64.26 19 68 C12.73 68 6.46 68 0 68 C0 45.56 0 23.12 0 0 Z " fill="#E32834" transform="translate(373,235)"/>
<path d="M0 0 C6.29992096 3.87899063 10.637574 9.36655701 12.5 16.5 C13.28532299 24.37149327 13.61301744 32.07632175 8.5 38.5 C2.68850049 44.98054347 -3.39899601 47.95346386 -12 48.875 C-20.5614746 47.95769915 -26.74871447 45.0059791 -32.5 38.5 C-36.99295683 32.00728782 -38.08208924 25.21712744 -36.9375 17.5 C-35.33873019 10.56133904 -31.46918154 5.75707317 -25.8125 1.5625 C-18.82861439 -2.78595708 -7.65401042 -3.42694352 0 0 Z M-16.25 18.125 C-18.76782524 20.3373088 -18.76782524 20.3373088 -19 23.5625 C-18.6845711 26.42201873 -18.6845711 26.42201873 -17.4375 28.375 C-14.35928089 30.16235303 -11.97093932 29.93386742 -8.5 29.5 C-6.31452316 28.05851025 -6.31452316 28.05851025 -5.5 25.5 C-5.49331283 21.87942732 -5.49331283 21.87942732 -6.5 18.5 C-10.35660823 15.92892785 -12.23571589 15.75292302 -16.25 18.125 Z " fill="#E42834" transform="translate(306.5,255.5)"/>
<path d="M0 0 C5.14312203 3.9235214 8.89665945 9.23372291 10.125 15.62109375 C11.01442041 24.00357654 10.24763017 30.73941656 5.125 37.62109375 C-0.59532964 43.38419221 -6.12301754 46.18109537 -14.25 46.93359375 C-22.93105053 46.18522733 -28.99889743 43.0821477 -34.875 36.62109375 C-39.27025005 30.65066738 -40.36228026 24.93029761 -39.875 17.62109375 C-38.32194146 9.71331863 -34.39339163 4.2175714 -28.1328125 -0.765625 C-19.73496202 -5.90164943 -8.25667668 -4.7937613 0 0 Z M-19.6875 15.87109375 C-21.07059099 17.90933311 -21.65763554 19.15762983 -21.875 21.62109375 C-21.15087495 24.30705505 -21.15087495 24.30705505 -19.875 26.62109375 C-16.7917365 28.1627255 -14.26621901 27.9185691 -10.875 27.62109375 C-8.68952316 26.179604 -8.68952316 26.179604 -7.875 23.62109375 C-7.86831283 20.00052107 -7.86831283 20.00052107 -8.875 16.62109375 C-12.5057635 14.20058475 -15.86233933 13.23305191 -19.6875 15.87109375 Z " fill="#E42834" transform="translate(95.875,257.37890625)"/>
<path d="M0 0 C6.53662704 5.21757674 10.84396595 11.2041241 12.0546875 19.54296875 C12.44733429 26.52471946 10.34122811 32.77816537 6.26953125 38.4375 C1.18612559 44.06169349 -5.65070176 47.41422009 -13.2578125 47.890625 C-20.12619749 47.50053417 -27.48321546 44.3016391 -32.2578125 39.390625 C-37.70060414 31.88546501 -39.13904957 25.66879247 -38.2578125 16.390625 C-36.13908263 8.31137194 -31.13737683 2.84504325 -24.1953125 -1.546875 C-16.8347822 -4.21132036 -6.76275893 -4.12150974 0 0 Z M-18.6953125 16.953125 C-20.59222785 19.41685616 -20.59222785 19.41685616 -20.1953125 23.015625 C-19.582728 26.64579424 -19.582728 26.64579424 -16.2578125 28.390625 C-12.18290498 28.73020063 -10.72779979 28.70394986 -7.2578125 26.390625 C-6.36219135 23.22150402 -5.96866037 21.21359646 -7.0703125 18.078125 C-8.16468575 16.23964678 -8.16468575 16.23964678 -10.2578125 15.390625 C-13.82281726 15.00312448 -15.64261256 14.99626606 -18.6953125 16.953125 Z " fill="#E42834" transform="translate(148.2578125,256.609375)"/>
<path d="M0 0 C0.69029297 -0.01611328 1.38058594 -0.03222656 2.09179688 -0.04882812 C9.0028268 -0.05537886 14.16547009 2.54103496 19.0625 7.3125 C22.68477868 12.56735499 24.34675119 16.92521985 25.0625 23.3125 C3.21783981 29.3125 3.21783981 29.3125 -3.9375 29.3125 C-3.6075 29.9725 -3.2775 30.6325 -2.9375 31.3125 C2.00178888 31.6492697 2.84742722 31.47380459 7.0625 28.3125 C11.6825 31.2825 16.3025 34.2525 21.0625 37.3125 C18.07480619 43.28788761 13.76131115 47.20405971 7.5625 49.75 C-0.76646958 51.0885844 -7.98825096 50.623679 -15.14453125 45.8359375 C-20.9801052 41.093857 -24.40161775 36.58424708 -25.34765625 29.04296875 C-25.72444927 20.12553384 -24.34969526 13.13676816 -18.22265625 6.4375 C-12.6106795 1.32900475 -7.56130314 -0.03510354 0 0 Z M-5.9375 19.3125 C-5.9375 19.9725 -5.9375 20.6325 -5.9375 21.3125 C-0.35249433 21.11351292 -0.35249433 21.11351292 4.0625 18.3125 C2.9581608 16.98829751 2.9581608 16.98829751 0.1875 17.125 C-3.10320758 17.05906487 -3.10320758 17.05906487 -5.9375 19.3125 Z " fill="#E32834" transform="translate(442.9375,253.6875)"/>
<path d="M0 0 C1.16015625 0.00322266 2.3203125 0.00644531 3.515625 0.00976562 C5.32546875 0.02233398 5.32546875 0.02233398 7.171875 0.03515625 C9.00492188 0.04192383 9.00492188 0.04192383 10.875 0.04882812 C13.89064592 0.06060799 16.90626665 0.07854324 19.921875 0.09765625 C19.921875 5.70765625 19.921875 11.31765625 19.921875 17.09765625 C14.971875 17.42765625 10.021875 17.75765625 4.921875 18.09765625 C4.261875 21.39765625 3.601875 24.69765625 2.921875 28.09765625 C6.221875 28.09765625 9.521875 28.09765625 12.921875 28.09765625 C12.921875 33.37765625 12.921875 38.65765625 12.921875 44.09765625 C9.621875 44.09765625 6.321875 44.09765625 2.921875 44.09765625 C2.921875 52.01765625 2.921875 59.93765625 2.921875 68.09765625 C-3.018125 68.09765625 -8.958125 68.09765625 -15.078125 68.09765625 C-15.19119643 60.10020083 -15.28287971 52.10336926 -15.33718586 44.10532856 C-15.36325341 40.39128682 -15.39859709 36.67782139 -15.45532227 32.96411133 C-15.50974714 29.37845912 -15.53956692 25.79336034 -15.55251122 22.20732689 C-15.56173264 20.84094723 -15.57974081 19.47459706 -15.60677528 18.10845375 C-15.83582179 6.05178508 -15.83582179 6.05178508 -12.79760742 2.78198242 C-8.36696485 0.03783994 -5.17621688 -0.02537361 0 0 Z " fill="#E42834" transform="translate(40.078125,234.90234375)"/>
<path d="M0 0 C6.27 0 12.54 0 19 0 C19 4.95 19 9.9 19 15 C20.98 15 22.96 15 25 15 C26 16 26 16 26.09765625 19.59765625 C26.0909822 21.08596867 26.07902183 22.57426432 26.0625 24.0625 C26.05798828 24.82111328 26.05347656 25.57972656 26.04882812 26.36132812 C26.0370068 28.24091871 26.01907078 30.12046899 26 32 C23.69 32 21.38 32 19 32 C19.33 36.29 19.66 40.58 20 45 C22.97 45.66 25.94 46.32 29 47 C29 52.28 29 57.56 29 63 C25.27005704 63.10802731 21.54324779 63.18733597 17.8125 63.25 C16.22985352 63.30027344 16.22985352 63.30027344 14.61523438 63.3515625 C6.78242429 63.45039922 6.78242429 63.45039922 2.82421875 61.171875 C-0.09973686 57.69067732 -0.12084741 54.84016139 -0.09765625 50.45703125 C-0.09443359 49.38388672 -0.09121094 48.31074219 -0.08789062 47.20507812 C-0.07951172 46.08552734 -0.07113281 44.96597656 -0.0625 43.8125 C-0.05798828 42.68134766 -0.05347656 41.55019531 -0.04882812 40.38476562 C-0.03703498 37.58979073 -0.0205765 34.7949218 0 32 C-2.31 32 -4.62 32 -7 32 C-7 26.39 -7 20.78 -7 15 C-4.69 15 -2.38 15 0 15 C0 10.05 0 5.1 0 0 Z " fill="#E32834" transform="translate(169,240)"/>
<path d="M0 0 C6.27 0 12.54 0 19 0 C19.33 16.17 19.66 32.34 20 49 C24.54601728 51.27300864 31.08679597 50.68734156 36 51 C36 56.28 36 61.56 36 67 C31.6577671 67.06896488 27.31744238 67.12866492 22.97509766 67.16479492 C21.49879509 67.17985923 20.02253712 67.20031482 18.54638672 67.22631836 C16.42143742 67.26280739 14.29708099 67.27974933 12.171875 67.29296875 C10.2552002 67.31653442 10.2552002 67.31653442 8.29980469 67.34057617 C4.79317016 66.97865288 3.42506952 66.5075923 1 64 C-0.07619365 60.77141906 -0.12052496 58.45460721 -0.11352539 55.05981445 C-0.11344986 53.83877518 -0.11337433 52.6177359 -0.11329651 51.35969543 C-0.10813522 50.04087875 -0.10297394 48.72206207 -0.09765625 47.36328125 C-0.0957908 45.99993441 -0.0943675 44.63658689 -0.09336853 43.27323914 C-0.08955332 39.68771509 -0.07973155 36.10223165 -0.06866455 32.51672363 C-0.05842901 28.8568578 -0.05386632 25.1969854 -0.04882812 21.53710938 C-0.03810838 14.35805227 -0.02051965 7.179037 0 0 Z " fill="#E42934" transform="translate(231,236)"/>
<path d="M0 0 C1.70328319 1.6292274 3.38161281 3.28641357 5 5 C3.6693679 8.9918963 1.16271836 10.19541979 -2.25 12.3125 C-3.11044922 12.88967773 -3.11044922 12.88967773 -3.98828125 13.47851562 C-5.703125 14.55078125 -5.703125 14.55078125 -9 16 C-11.68359375 15.20703125 -11.68359375 15.20703125 -14 14 C-17.72471396 14.30514002 -17.72471396 14.30514002 -21 15 C-22.12319413 19.59854277 -22.12319413 19.59854277 -21 24 C-17.88109857 25.55945072 -15.34501482 24.64552918 -12 24 C-7.33849802 24 -5.00426939 25.55766211 -1.25 28 C-0.64800781 28.3815625 -0.04601562 28.763125 0.57421875 29.15625 C2.05458854 30.09616733 3.52799967 31.04702869 5 32 C3.10777797 37.65745571 -0.0040825 39.98788945 -5 43 C-12.47009837 45.9346815 -19.40707455 45.80052035 -26.83203125 43.02734375 C-33.27355387 39.97487447 -37.19323387 35.29111123 -40.11328125 28.83984375 C-42.36177599 21.63871743 -42.05036976 14.46214588 -39 7.5625 C-34.79053174 0.20788926 -28.32800855 -3.47771184 -20.375 -5.75 C-12.85334638 -6.30715953 -5.86705588 -4.88921323 0 0 Z " fill="#E32834" transform="translate(365,259)"/>
<path d="M0 0 C1.11826172 0.00322266 2.23652344 0.00644531 3.38867188 0.00976562 C4.55591797 0.01814453 5.72316406 0.02652344 6.92578125 0.03515625 C8.10462891 0.03966797 9.28347656 0.04417969 10.49804688 0.04882812 C13.41147992 0.0606234 16.32488692 0.07855898 19.23828125 0.09765625 C19.23828125 5.70765625 19.23828125 11.31765625 19.23828125 17.09765625 C15.27828125 17.42765625 11.31828125 17.75765625 7.23828125 18.09765625 C6.90828125 28.32765625 6.57828125 38.55765625 6.23828125 49.09765625 C0.29828125 49.09765625 -5.64171875 49.09765625 -11.76171875 49.09765625 C-11.83579816 42.74392255 -11.89028755 36.39043945 -11.92651367 30.03637695 C-11.94161319 27.87422304 -11.96209446 25.71209982 -11.98803711 23.55004883 C-12.02436892 20.44474725 -12.04143337 17.33985011 -12.0546875 14.234375 C-12.07017136 13.26553879 -12.08565521 12.29670258 -12.10160828 11.29850769 C-12.10183487 10.39780045 -12.10206146 9.4970932 -12.10229492 8.5690918 C-12.10895676 7.77633347 -12.11561859 6.98357513 -12.1224823 6.16679382 C-11.66552515 3.54594367 -10.8480637 2.7042051 -8.76171875 1.09765625 C-5.58384334 0.03836445 -3.33582932 -0.01693314 0 0 Z " fill="#E42834" transform="translate(483.76171875,253.90234375)"/>
<path d="M0 0 C3.0625 0.1875 3.0625 0.1875 5.0625 2.1875 C5.3125 5.1875 5.3125 5.1875 5.0625 8.1875 C3.0625 10.1875 3.0625 10.1875 0.0625 10.5 C-0.9275 10.396875 -1.9175 10.29375 -2.9375 10.1875 C-4.9375 7.1875 -4.9375 7.1875 -4.625 4.0625 C-3.71016322 0.23681893 -3.71016322 0.23681893 0 0 Z M-2.9375 3.1875 C-1.9375 7.1875 -1.9375 7.1875 -1.9375 7.1875 Z " fill="#E12833" transform="translate(499.9375,292.8125)"/>
</svg>
