<?xml version="1.0" encoding="UTF-8"?>
<svg version="1.1" xmlns="http://www.w3.org/2000/svg" width="768" height="178">
<path d="M0 0 C253.44 0 506.88 0 768 0 C768 58.74 768 117.48 768 178 C514.56 178 261.12 178 0 178 C0 119.26 0 60.52 0 0 Z " fill="#FCFCFC" transform="translate(0,0)"/>
<path d="M0 0 C82.37578125 0 82.37578125 0 97.375 13.6875 C106.25300821 23.15861106 108.18007032 33.35729894 108.1875 45.75 C108.19974609 46.80960938 108.21199219 47.86921875 108.22460938 48.9609375 C108.24804201 61.55207161 104.89150681 70.20210753 96.5625 79.8125 C84.62857143 90 84.62857143 90 79 90 C79.32613281 90.71285156 79.65226563 91.42570312 79.98828125 92.16015625 C80.42527344 93.11792969 80.86226562 94.07570313 81.3125 95.0625 C81.95638672 96.47208984 81.95638672 96.47208984 82.61328125 97.91015625 C83.81014735 100.5769762 84.97215058 103.25572294 86.1184082 105.94458008 C87.18115861 108.42236898 88.26013542 110.89283485 89.33984375 113.36328125 C89.76330078 114.33330078 90.18675781 115.30332031 90.62304688 116.30273438 C91.49442524 118.29797071 92.36680974 120.29276796 93.24023438 122.28710938 C95.94206475 128.48204973 98.5293593 134.70942626 101 141 C101.2570874 141.64880127 101.5141748 142.29760254 101.77905273 142.96606445 C102.4416144 144.6418478 103.09608935 146.32082203 103.75 148 C104.17796875 149.093125 104.6059375 150.18625 105.046875 151.3125 C106 154 106 154 106 156 C100.39 156 94.78 156 89 156 C87.03574142 151.09804497 85.07390006 146.19551048 83.140625 141.28125 C78.99135786 130.76766886 74.61690518 120.38745886 69.94335938 110.09619141 C69.26882962 108.59735276 68.60460626 107.09385877 67.94726562 105.58740234 C67.42422852 104.38978271 67.42422852 104.38978271 66.890625 103.16796875 C66.57641602 102.44246826 66.26220703 101.71696777 65.93847656 100.96948242 C64.94319479 98.76005599 64.94319479 98.76005599 63 96 C60.90752575 95.52482134 60.90752575 95.52482134 58.45849609 95.56762695 C57.50450928 95.54768677 56.55052246 95.52774658 55.56762695 95.50720215 C54.56304443 95.50095825 53.55846191 95.49471436 52.5234375 95.48828125 C51.60151611 95.47164429 50.67959473 95.45500732 49.72973633 95.43786621 C46.27839078 95.37993301 42.82665143 95.34778152 39.375 95.3125 C31.66125 95.209375 23.9475 95.10625 16 95 C16 115.13 16 135.26 16 156 C10.72 156 5.44 156 0 156 C0 104.52 0 53.04 0 0 Z " fill="#070707" transform="translate(504,11)"/>
<path d="M0 0 C0.63421875 0.53496094 1.2684375 1.06992187 1.921875 1.62109375 C2.55609375 2.14574219 3.1903125 2.67039062 3.84375 3.2109375 C13.95092481 12.38946164 17.31483382 26.52673663 18.03637695 39.71374512 C18.1950881 44.33782279 18.20706533 48.95959649 18.18261719 53.5859375 C18.17192027 55.98593583 18.18256232 58.38518081 18.1953125 60.78515625 C18.21439355 79.84052244 16.36686946 97.62735004 3.21875 112.5546875 C-4.19307308 119.79522895 -15.22455216 123.66828794 -25.515625 123.93359375 C-36.61649933 123.79821723 -46.1356051 120.45061032 -54.078125 112.62109375 C-70.45033512 95.59858556 -69.66747041 69.43298144 -69.296875 47.546875 C-68.85125854 30.90978449 -66.13854236 15.16257057 -54.19921875 2.65234375 C-39.4342099 -10.98578575 -16.25928277 -12.2555872 0 0 Z " fill="#FBFBFB" transform="translate(320.078125,30.37890625)"/>
<path d="M0 0 C4.62 0 9.24 0 14 0 C16.88881947 6.36443039 19.52849504 12.7755702 22 19.3125 C22.52436646 20.69127319 22.52436646 20.69127319 23.05932617 22.09790039 C25.23731064 27.86333278 27.29239402 33.63832797 29.11328125 39.52734375 C29.98808066 42.12184191 29.98808066 42.12184191 31.46484375 44.92578125 C32.99570555 47.99140018 34.13892274 51.01066207 35.25 54.25 C37.17855328 59.75850248 39.23002374 65.19751507 41.375 70.625 C43.9253071 77.09639556 46.2968335 83.61123522 48.5625 90.1875 C51.02209023 97.32611099 53.68789271 104.32170696 56.54296875 111.3125 C58.36596908 115.92620593 59.98234949 120.59778957 61.59863281 125.28686523 C63.96027956 132.05543103 66.63324216 138.68953752 69.37255859 145.31323242 C69.69949707 146.11220947 70.02643555 146.91118652 70.36328125 147.734375 C70.65501221 148.43788086 70.94674316 149.14138672 71.24731445 149.86621094 C72 152 72 152 73 157 C67.72 157 62.44 157 57 157 C51.82231573 144.81721349 47.11384008 132.52680673 43 119.9453125 C40.35408929 112.15227863 37.24077195 104.56180121 34 97 C16.18 96.67 -1.64 96.34 -20 96 C-20.33 97.98 -20.66 99.96 -21 102 C-21.428382 103.40747302 -21.8990051 104.80303643 -22.41796875 106.1796875 C-22.69987061 106.93564209 -22.98177246 107.69159668 -23.2722168 108.47045898 C-23.57426025 109.26395752 -23.87630371 110.05745605 -24.1875 110.875 C-24.49921143 111.70781494 -24.81092285 112.54062988 -25.13208008 113.39868164 C-26.08242297 115.9346182 -27.04006804 118.46767949 -28 121 C-29.06400767 123.81193312 -30.12650203 126.62442995 -31.1875 129.4375 C-31.43443604 130.08960449 -31.68137207 130.74170898 -31.93579102 131.41357422 C-33.43929726 135.41177586 -34.81717174 139.43402809 -36.125 143.5 C-37.67889165 148.27919616 -39.6186693 152.57752871 -42 157 C-46.95 157 -51.9 157 -57 157 C-54.87974755 146.39873774 -50.75218725 136.12714084 -47 126 C-46.43326454 124.45975651 -45.86689064 122.91937996 -45.30078125 121.37890625 C-43.53786706 116.58444734 -41.77350596 111.79055258 -40 107 C-39.73638672 106.28585938 -39.47277344 105.57171875 -39.20117188 104.8359375 C-37.76604433 100.97241346 -36.25159213 97.16310381 -34.625 93.375 C-30.59774188 83.77246863 -27.23342621 73.93500901 -24.08984375 64.01171875 C-23.18806655 61.51971079 -22.19367372 59.17010764 -21.09765625 56.76171875 C-18.93780496 51.9743063 -17.1933203 47.09335026 -15.5 42.125 C-14.88715031 40.35141332 -14.27387309 38.57797431 -13.66015625 36.8046875 C-13.37156738 35.96776367 -13.08297852 35.13083984 -12.78564453 34.26855469 C-10.27166248 27.00941199 -7.56687042 19.81953234 -4.875 12.625 C-4.62097412 11.94598633 -4.36694824 11.26697266 -4.10522461 10.56738281 C-2.77604282 7.0270018 -1.40471895 3.51179738 0 0 Z " fill="#080808" transform="translate(688,10)"/>
<path d="M0 0 C0.92490234 -0.01160156 1.84980469 -0.02320313 2.80273438 -0.03515625 C18.14123225 0.02933638 32.03583311 7.32777122 42.77734375 18.09375 C49.27153947 25.36460526 53.13492953 33.11929427 56.0625 42.375 C56.33658691 43.23246826 56.61067383 44.08993652 56.89306641 44.97338867 C59.64911931 55.05244344 59.44930506 65.0257537 59.34375 75.40478516 C59.31249547 78.50044878 59.30275404 81.59560002 59.296875 84.69140625 C59.28770525 86.69271444 59.27732957 88.69401753 59.265625 90.6953125 C59.26137512 91.6039505 59.25712524 92.5125885 59.25274658 93.44876099 C59.01674798 115.0198739 54.15257523 133.74353196 38.4375 149.25 C34.65426125 152.27813203 30.41942686 154.47828572 26.125 156.6875 C25.46870605 157.02571777 24.81241211 157.36393555 24.13623047 157.71240234 C12.27659265 163.4942322 -2.8373138 164.62589531 -15.6171875 161.46484375 C-18.54214613 160.28346435 -21.20524761 158.94760939 -23.9375 157.375 C-24.79214844 156.94058594 -25.64679688 156.50617188 -26.52734375 156.05859375 C-40.54115922 148.47947321 -48.93161012 136.49612676 -53.76171875 121.70703125 C-54.16234437 120.26540993 -54.55312525 118.82103906 -54.9375 117.375 C-55.33026123 116.00239014 -55.33026123 116.00239014 -55.73095703 114.60205078 C-58.4071527 104.05506641 -58.46189163 93.62760221 -58.43847656 82.79980469 C-58.43750592 79.64424825 -58.47921941 76.491144 -58.5234375 73.3359375 C-58.64438019 52.70044434 -54.9473425 32.96511881 -40.15234375 17.5546875 C-39.42144531 16.83539062 -38.69054687 16.11609375 -37.9375 15.375 C-37.36128906 14.80007812 -36.78507812 14.22515625 -36.19140625 13.6328125 C-26.03992365 4.23599647 -13.62062109 -0.17013961 0 0 Z M-22.9375 22.375 C-23.68902344 22.88417969 -24.44054687 23.39335937 -25.21484375 23.91796875 C-34.14628218 30.83410825 -39.50716856 41.98528812 -41.375 53 C-41.57759567 54.79002254 -41.76558277 56.58177102 -41.9375 58.375 C-42.10354736 59.28668945 -42.26959473 60.19837891 -42.44067383 61.13769531 C-45.95262041 84.02143569 -44.71312836 113.80273538 -30.9140625 133.22265625 C-23.39567265 142.08052935 -14.39944553 146.29290978 -2.8828125 147.765625 C8.42912293 148.18569687 19.39932467 144.7132191 28.0625 137.375 C40.10406438 126.06470471 43.6750197 110.46423511 44.18847656 94.44458008 C44.2676156 90.5520302 44.29340821 86.66013243 44.30273438 82.7668457 C44.31238161 80.34225367 44.34345358 77.91853263 44.375 75.49414062 C44.48916691 58.70968049 43.08662376 40.90930047 30.9296875 28.15234375 C22.56195027 20.18723823 12.57254768 15.88560286 0.9375 15.1875 C-8.06268149 15.62299265 -15.46521937 17.20188264 -22.9375 22.375 Z " fill="#080808" transform="translate(293.9375,6.625)"/>
<path d="M0 0 C32.34 0 64.68 0 98 0 C98 5.28 98 10.56 98 16 C70.94 16 43.88 16 16 16 C16 37.12 16 58.24 16 80 C36.79 80 57.58 80 79 80 C79 85.28 79 90.56 79 96 C58.21 96 37.42 96 16 96 C16 116.13 16 136.26 16 157 C10.72 157 5.44 157 0 157 C0 105.19 0 53.38 0 0 Z " fill="#101010" transform="translate(385,10)"/>
<path d="M0 0 C11.446875 -0.12375 11.446875 -0.12375 23.125 -0.25 C26.69272217 -0.30462402 26.69272217 -0.30462402 30.33251953 -0.36035156 C45.56943378 -0.49751991 59.44119809 -0.25193106 71 11 C77.57371972 17.74671235 78.43843184 25.04008047 78.35546875 34.0612793 C78.04572762 43.77826853 75.03661745 51.33085657 67.9375 58.125 C61.15682902 63.70477461 51.69493505 66.13639825 43.02612305 66.11352539 C41.56523254 66.11334412 41.56523254 66.11334412 40.0748291 66.11315918 C39.06400269 66.10804321 38.05317627 66.10292725 37.01171875 66.09765625 C35.60388123 66.09614563 35.60388123 66.09614563 34.16760254 66.09460449 C30.67422253 66.08938734 27.18085999 66.07542608 23.6875 66.0625 C15.870625 66.041875 8.05375 66.02125 0 66 C0 44.22 0 22.44 0 0 Z " fill="#F8F8F8" transform="translate(519,25)"/>
<path d="M0 0 C0 25.08 0 50.16 0 76 C-25.41 76 -50.82 76 -77 76 C-70.24947564 68.12438824 -70.24947564 68.12438824 -67.67242432 65.53871155 C-67.08649002 64.94851227 -66.50055573 64.35831299 -65.89686584 63.75022888 C-65.27637863 63.13019485 -64.65589142 62.51016083 -64.01660156 61.87133789 C-63.01061165 60.86031006 -63.01061165 60.86031006 -61.98429871 59.82885742 C-59.7890262 57.624162 -57.59007386 55.42318474 -55.390625 53.22265625 C-53.85692129 51.68573704 -52.32329205 50.14874351 -50.78973389 48.61167908 C-47.58734512 45.40332305 -44.38291685 42.19701998 -41.17724609 38.99194336 C-37.06057946 34.87537893 -32.9508678 30.75194463 -28.84283829 26.62676334 C-25.68422167 23.45706555 -22.52110851 20.29188526 -19.35668182 17.12798882 C-17.83835169 15.6084754 -16.32165022 14.08733284 -14.80658722 12.56456184 C-12.69768478 10.44592568 -10.58261846 8.33364352 -8.46582031 6.22290039 C-7.83723618 5.58869675 -7.20865204 4.9544931 -6.5610199 4.30107117 C-2.22832377 0 -2.22832377 0 0 0 Z " fill="#0E0E0E" transform="translate(170,93)"/>
<path d="M0 0 C3.27613555 1.63806778 4.80194327 2.55220826 7.25238037 5.00514221 C7.87211227 5.62067963 8.49184418 6.23621704 9.13035583 6.8704071 C9.79857864 7.54424942 10.46680145 8.21809174 11.15527344 8.91235352 C11.86786819 9.62304993 12.58046295 10.33374634 13.31465149 11.065979 C15.66780653 13.4154303 18.01368618 15.77200247 20.359375 18.12890625 C21.98997151 19.76069461 23.62093756 21.39211376 25.2522583 23.0231781 C28.66818695 26.44067078 32.08072863 29.86149799 35.49072266 33.28491211 C39.87305122 37.68426397 44.26196767 42.07697047 48.65319443 46.4674387 C52.01965296 49.83416839 55.38350472 53.20349216 58.74646759 56.5737133 C60.36468331 58.1951219 61.98351487 59.8159161 63.60295868 61.4360981 C65.85860857 63.6939031 68.11094217 65.95496193 70.36230469 68.21704102 C71.03862442 68.89290756 71.71494415 69.56877411 72.41175842 70.26512146 C77 74.88552458 77 74.88552458 77 76 C51.59 76 26.18 76 0 76 C0 50.92 0 25.84 0 0 Z " fill="#0E0E0E" transform="translate(8,93)"/>
<path d="M0 0 C25.08 0 50.16 0 76 0 C76 25.08 76 50.16 76 76 C72.74323787 74.37161894 71.22123578 73.47171979 68.7855835 71.03955078 C68.17426575 70.43387268 67.562948 69.82819458 66.93310547 69.2041626 C65.94479736 68.2097818 65.94479736 68.2097818 64.93652344 67.1953125 C64.23368225 66.49597595 63.53084106 65.7966394 62.80670166 65.07611084 C60.48587014 62.76407946 58.17242748 60.44481196 55.859375 58.125 C54.25112697 56.5180988 52.64258211 54.91149463 51.03375244 53.30517578 C47.66474503 49.93911706 44.29938255 46.56946647 40.93652344 43.19726562 C36.61644274 38.86577232 32.28742229 34.54334261 27.95565414 30.22354126 C24.63390061 26.90899752 21.31690416 23.58972631 18.0013504 20.26898193 C16.40634417 18.67263772 14.80984043 17.07778835 13.2118454 15.48443604 C10.98499994 13.26264328 8.76462248 11.0345864 6.54589844 8.8046875 C5.87892944 8.14176697 5.21196045 7.47884644 4.52478027 6.7958374 C3.92474182 6.1901593 3.32470337 5.5844812 2.70648193 4.96044922 C1.91784571 4.17068192 1.91784571 4.17068192 1.11327744 3.36495972 C0 2 0 2 0 0 Z " fill="#0E0E0E" transform="translate(94,7)"/>
<path d="M0 0 C25.08 0 50.16 0 76 0 C74.37161894 3.25676213 73.47171979 4.77876422 71.03955078 7.2144165 C70.43387268 7.82573425 69.82819458 8.437052 69.2041626 9.06689453 C68.54124207 9.7257666 67.87832153 10.38463867 67.1953125 11.06347656 C66.49597595 11.76631775 65.7966394 12.46915894 65.07611084 13.19329834 C62.76407946 15.51412986 60.44481196 17.82757252 58.125 20.140625 C56.5180988 21.74887303 54.91149463 23.35741789 53.30517578 24.96624756 C49.93911706 28.33525497 46.56946647 31.70061745 43.19726562 35.06347656 C38.86577232 39.38355726 34.54334261 43.71257771 30.22354126 48.04434586 C26.90899752 51.36609939 23.58972631 54.68309584 20.26898193 57.9986496 C18.67263772 59.59365583 17.07778835 61.19015957 15.48443604 62.7881546 C13.26264328 65.01500006 11.0345864 67.23537752 8.8046875 69.45410156 C8.14176697 70.12107056 7.47884644 70.78803955 6.7958374 71.47521973 C6.1901593 72.07525818 5.5844812 72.67529663 4.96044922 73.29351807 C4.43393768 73.81927555 3.90742615 74.34503304 3.36495972 74.88672256 C2 76 2 76 0 76 C0 50.92 0 25.84 0 0 Z " fill="#0E0E0E" transform="translate(8,7)"/>
<path d="M0 0 C3.75799726 1.87899863 5.66552032 3.41260748 8.58496094 6.32617188 C9.48559265 7.22049927 10.38622437 8.11482666 11.31414795 9.03625488 C12.28781273 10.0134985 13.26121561 10.99100311 14.234375 11.96875 C15.23727681 12.97030424 16.24047532 13.97156145 17.24395752 14.97253418 C19.34185055 17.06748299 21.43609383 19.16599615 23.52783203 21.26708984 C26.21349788 23.96417928 28.90808178 26.65215186 31.60543442 29.3375473 C33.67646736 31.40136783 35.74273116 33.46991001 37.80756378 35.53993225 C38.79969595 36.53340111 39.79332289 37.52537947 40.78844452 38.51585388 C42.1746643 39.89701561 43.55382699 41.28524951 44.93261719 42.67382812 C45.71997253 43.46277466 46.50732788 44.25172119 47.31854248 45.0645752 C49 47 49 47 49 49 C32.83 49 16.66 49 0 49 C0 32.83 0 16.66 0 0 Z " fill="#F3F3F3" transform="translate(16,112)"/>
<path d="M0 0 C16.17 0 32.34 0 49 0 C49 16.17 49 32.34 49 49 C45.24200274 47.12100137 43.33447968 45.58739252 40.41503906 42.67382812 C39.51440735 41.77950073 38.61377563 40.88517334 37.68585205 39.96374512 C36.71218727 38.9865015 35.73878439 38.00899689 34.765625 37.03125 C33.76272319 36.02969576 32.75952468 35.02843855 31.75604248 34.02746582 C29.65814945 31.93251701 27.56390617 29.83400385 25.47216797 27.73291016 C22.78650212 25.03582072 20.09191822 22.34784814 17.39456558 19.6624527 C15.32353264 17.59863217 13.25726884 15.53008999 11.19243622 13.46006775 C10.20030405 12.46659889 9.20667711 11.47462053 8.21155548 10.48414612 C6.8253357 9.10298439 5.44617301 7.71475049 4.06738281 6.32617188 C3.28002747 5.53722534 2.49267212 4.74827881 1.68145752 3.9354248 C0 2 0 2 0 0 Z " fill="#F4F4F4" transform="translate(113,15)"/>
<path d="M0 0 C16.17 0 32.34 0 49 0 C47.12100137 3.75799726 45.58739252 5.66552032 42.67382812 8.58496094 C41.77950073 9.48559265 40.88517334 10.38622437 39.96374512 11.31414795 C38.9865015 12.28781273 38.00899689 13.26121561 37.03125 14.234375 C36.02969576 15.23727681 35.02843855 16.24047532 34.02746582 17.24395752 C31.93251701 19.34185055 29.83400385 21.43609383 27.73291016 23.52783203 C25.03582072 26.21349788 22.34784814 28.90808178 19.6624527 31.60543442 C17.59863217 33.67646736 15.53008999 35.74273116 13.46006775 37.80756378 C12.46659889 38.79969595 11.47462053 39.79332289 10.48414612 40.78844452 C9.10298439 42.1746643 7.71475049 43.55382699 6.32617188 44.93261719 C5.53722534 45.71997253 4.74827881 46.50732788 3.9354248 47.31854248 C2 49 2 49 0 49 C0 32.83 0 16.66 0 0 Z " fill="#F4F4F4" transform="translate(16,15)"/>
<path d="M0 0 C0 16.17 0 32.34 0 49 C-16.17 49 -32.34 49 -49 49 C-49 48.34 -49 47.68 -49 47 C-47.59467245 45.83460642 -46.185497 44.67360107 -44.75932312 43.53381348 C-42.90652509 41.91850668 -41.37530263 40.20996127 -39.78833008 38.33398438 C-36.01620639 33.96687066 -32.02523245 29.86373148 -27.94921875 25.78125 C-27.2092012 25.03790405 -26.46918365 24.29455811 -25.70674133 23.52868652 C-24.15760633 21.97452774 -22.60714976 20.4216852 -21.05541992 18.87011719 C-18.67143184 16.48391693 -16.29558529 14.08979741 -13.91992188 11.6953125 C-12.40934283 10.18180379 -10.89829223 8.66876554 -9.38671875 7.15625 C-8.67529221 6.43763794 -7.96386566 5.71902588 -7.23088074 4.9786377 C-6.57292007 4.32375366 -5.91495941 3.66886963 -5.23706055 2.99414062 C-4.65860886 2.41426392 -4.08015717 1.83438721 -3.48417664 1.23693848 C-2 0 -2 0 0 0 Z " fill="#FDFDFD" transform="translate(162,112)"/>
<path d="M0 0 C2.78167102 3.04659207 3.84843042 6.2792564 5.07421875 10.1640625 C6.16934369 13.51874902 7.38401111 16.82233482 8.625 20.125 C8.8717749 20.78435547 9.1185498 21.44371094 9.37280273 22.12304688 C10.99940758 26.43680491 12.68121591 30.72618831 14.390625 35.0078125 C14.80103027 36.04019043 15.21143555 37.07256836 15.63427734 38.13623047 C16.45149149 40.1871453 17.27459276 42.23572563 18.10400391 44.28173828 C18.47960449 45.2251709 18.85520508 46.16860352 19.2421875 47.140625 C19.5810498 47.98141602 19.91991211 48.82220703 20.26904297 49.68847656 C21 52 21 52 21 56 C7.47 56 -6.06 56 -20 56 C-18.87504817 49.25028902 -18.87504817 49.25028902 -17.58203125 45.8203125 C-17.30020996 45.06451904 -17.01838867 44.30872559 -16.72802734 43.5300293 C-16.42590332 42.73636963 -16.1237793 41.94270996 -15.8125 41.125 C-15.50006348 40.29073486 -15.18762695 39.45646973 -14.86572266 38.59692383 C-13.9155846 36.06266052 -12.95839655 33.53114987 -12 31 C-11.20445938 28.88770249 -10.41026489 26.7749054 -9.61669922 24.66186523 C-9.12576991 23.35503662 -8.63392121 22.04855298 -8.14111328 20.74243164 C-6.00216042 15.05709205 -3.97873956 9.33379284 -1.98046875 3.59765625 C-1 1 -1 1 0 0 Z " fill="#F4F4F4" transform="translate(695,35)"/>
<path d="M0 0 C0 16.17 0 32.34 0 49 C-16.17 49 -32.34 49 -49 49 C-49 48.34 -49 47.68 -49 47 C-47.59467245 45.83460642 -46.185497 44.67360107 -44.75932312 43.53381348 C-42.90652509 41.91850668 -41.37530263 40.20996127 -39.78833008 38.33398438 C-36.01620639 33.96687066 -32.02523245 29.86373148 -27.94921875 25.78125 C-27.2092012 25.03790405 -26.46918365 24.29455811 -25.70674133 23.52868652 C-24.15760633 21.97452774 -22.60714976 20.4216852 -21.05541992 18.87011719 C-18.67143184 16.48391693 -16.29558529 14.08979741 -13.91992188 11.6953125 C-12.40934283 10.18180379 -10.89829223 8.66876554 -9.38671875 7.15625 C-8.67529221 6.43763794 -7.96386566 5.71902588 -7.23088074 4.9786377 C-6.57292007 4.32375366 -5.91495941 3.66886963 -5.23706055 2.99414062 C-4.65860886 2.41426392 -4.08015717 1.83438721 -3.48417664 1.23693848 C-2 0 -2 0 0 0 Z M-6.15258789 7.02319336 C-7.03342545 7.90087875 -7.914263 8.77856415 -8.8217926 9.68284607 C-9.78887473 10.65171797 -10.75582616 11.62072034 -11.72265625 12.58984375 C-12.70757127 13.57408576 -13.69263474 14.55817923 -14.67784119 15.54212952 C-16.74494932 17.60776053 -18.81023053 19.67519689 -20.87426758 21.74389648 C-23.5264595 24.4017857 -26.18311427 27.05516154 -28.84114933 29.70720577 C-30.87690217 31.73935337 -32.91027732 33.77386657 -34.94293022 35.80911446 C-35.92185378 36.78870739 -36.90152701 37.76755174 -37.88194466 38.74564934 C-39.24931163 40.11049042 -40.61315297 41.47886095 -41.97680664 42.84741211 C-42.75544571 43.62684677 -43.53408478 44.40628143 -44.33631897 45.20933533 C-46.11344223 46.71472741 -46.11344223 46.71472741 -46 48 C-31.15 48 -16.3 48 -1 48 C-1 33.15 -1 18.3 -1 3 C-3.04370217 3 -4.83551788 5.70746772 -6.15258789 7.02319336 Z " fill="#CACACA" transform="translate(162,112)"/>
<path d="M0 0 C1.98 0.99 1.98 0.99 4 2 C3.01 2.33 2.02 2.66 1 3 C1 17.52 1 32.04 1 47 C0.67 47 0.34 47 0 47 C0 31.49 0 15.98 0 0 Z " fill="#F0F0F0" transform="translate(17,113)"/>
<path d="M0 0 C0.66 0.33 1.32 0.66 2 1 C0.38113585 2.67262717 -1.2452729 4.33795537 -2.875 6 C-3.77992188 6.928125 -4.68484375 7.85625 -5.6171875 8.8125 C-8 11 -8 11 -10 11 C-8.55218207 7.55571735 -6.72305391 5.63869038 -3.875 3.25 C-3.15054687 2.63640625 -2.42609375 2.0228125 -1.6796875 1.390625 C-0.84824219 0.70226562 -0.84824219 0.70226562 0 0 Z " fill="#CFCFCF" transform="translate(272,28)"/>
<path d="M0 0 C3 3.75 3 3.75 3 6 C2.01 5.67 1.02 5.34 0 5 C-0.99 5.99 -1.98 6.98 -3 8 C-1.125 1.125 -1.125 1.125 0 0 Z " fill="#AEAEAE" transform="translate(695,35)"/>
</svg>
