<?xml version="1.0" encoding="UTF-8"?>
<svg id="Layer_2" data-name="Layer 2" xmlns="http://www.w3.org/2000/svg" viewBox="0 0 1508.61 288.9">
  <defs>
    <style>
      .cls-1 {
        fill: #18c98d;
      }

      .cls-2 {
        fill: #ffffff;
      }
    </style>
  </defs>
  <g id="Layer_1-2" data-name="Layer 1">
    <g>
      <path class="cls-1" d="M87.73,61.7l-2.46-16.12C-2.69,97.09,12.22,230.01,109.14,260.83l2.42,28.07c-50.73-11.33-92.89-52.12-106.38-102.23C-13.37,117.8,19.16,47.9,82.48,16.82l-.73-16.82,41.68,22.85-35.7,38.85Z"/>
      <path class="cls-2" d="M150.67,80.77l64.53,36.13.07,74.11-63.37,36.21-62.95-35.96-.16-74.14,61.88-36.35ZM103.16,120.6l48.62,27.21,48.84-28.25-48.85-28.24-48.61,29.28ZM147.33,156.37l-49.09-28.05v58.2l49.09,27.35v-57.5ZM206.24,128.32l-49.79,28.4v57.15l49.79-28.05v-57.5Z"/>
    </g>
    <g>
      <path class="cls-2" d="M290.58,70.98h60.66c7.74,0,14.01,1.15,18.82,3.44,4.8,2.3,8.42,5.33,10.86,9.1,2.44,3.77,3.87,8.14,4.3,13.1.43,4.96.07,10.18-1.08,15.65-2.3,11.54-6.2,20.35-11.72,26.42-5.52,6.07-12.8,10.14-21.83,12.21v.44c5.59.89,9.79,2.44,12.58,4.66,2.8,2.22,4.66,5.03,5.59,8.44.93,3.41,1.18,7.33.75,11.77-.43,4.44-1.15,9.33-2.15,14.65-1.43,7.99-2.51,14.25-3.23,18.76-.72,4.52-1.08,8.03-1.08,10.55,0,2.37.32,4.03.97,5,.64.96,1.54,1.74,2.69,2.33l-.22,2h-38.93c-1-2.66-1.29-6.44-.86-11.32.43-4.88,1.58-11.84,3.44-20.87,1.29-6.81,2.11-12.39,2.47-16.76.36-4.36.21-7.77-.43-10.21-.64-2.44-1.83-4.11-3.55-5-1.72-.89-4.02-1.33-6.88-1.33h-13.77l-13.12,65.49h-36.13l31.83-158.52ZM313.17,137.81h11.18c3.58,0,6.7-.63,9.36-1.89,2.65-1.26,4.91-2.89,6.78-4.88,1.86-2,3.33-4.22,4.41-6.66,1.08-2.44,1.83-4.85,2.26-7.21,1.15-5.92.75-10.73-1.18-14.43-1.94-3.7-6.49-5.55-13.66-5.55h-10.97l-8.17,40.63Z"/>
      <path class="cls-2" d="M422.43,175.33l-1.51,7.33c-1.87,9.33-2.4,16.28-1.61,20.87.79,4.59,3.69,6.88,8.71,6.88,4.59,0,8.1-1.78,10.54-5.33,2.44-3.55,4.66-9.1,6.67-16.65h32.26c-3.3,15.1-9.46,26.24-18.5,33.41-9.03,7.18-20.86,10.77-35.49,10.77-10.9,0-19.14-1.85-24.74-5.55-5.59-3.7-9.36-8.66-11.29-14.88-1.94-6.22-2.51-13.39-1.72-21.54.79-8.14,2.11-16.65,3.98-25.53,1.72-8.44,3.98-16.24,6.78-23.42,2.8-7.18,6.49-13.39,11.08-18.65,4.59-5.25,10.25-9.36,16.99-12.32,6.74-2.96,14.84-4.44,24.31-4.44,10.75,0,18.85,1.67,24.3,5,5.45,3.33,9.1,8.07,10.97,14.21,1.86,6.14,2.33,13.43,1.4,21.87-.93,8.44-2.4,17.76-4.41,27.97h-58.72ZM451.9,154.46c1.72-8.44,2.26-14.88,1.61-19.32s-3.41-6.66-8.28-6.66c-5.74,0-9.86,2.3-12.37,6.88-2.51,4.59-4.55,10.96-6.13,19.09h25.17Z"/>
      <path class="cls-2" d="M500.08,146.25c1.86-8.44,4.44-15.17,7.74-20.2,3.3-5.03,7.31-9.03,12.04-11.99,4.59-2.96,9.57-5,14.95-6.11s11.72-1.67,19.04-1.67c14.34,0,24.23,2.74,29.68,8.21,5.45,5.48,6.95,14.58,4.52,27.31l-12.47,61.72c-.43,2.22-.9,4.59-1.4,7.1-.5,2.52-.86,4.96-1.08,7.33-.22,2.37-.25,4.55-.11,6.55.14,2,.64,3.66,1.5,5h-33.55c-.29-2.07-.32-4.29-.11-6.66.21-2.37.46-4.74.75-7.1h-.43c-3.44,5.33-7.89,9.47-13.34,12.43-5.45,2.96-11.18,4.44-17.21,4.44-9.89,0-16.96-2.85-21.19-8.55-4.23-5.7-5.05-15.06-2.47-28.08,1.43-7.1,3.98-13.36,7.63-18.76,3.66-5.4,7.92-9.36,12.8-11.88,4.73-2.52,10.14-4.44,16.24-5.77,6.09-1.33,11.72-2.67,16.88-4,2.72-.74,4.98-1.44,6.78-2.11,1.79-.67,3.23-1.48,4.3-2.44,1.08-.96,1.94-2.18,2.58-3.66.64-1.48,1.18-3.33,1.61-5.55.72-3.7.43-6.62-.86-8.77-1.29-2.14-3.87-3.22-7.74-3.22-4.88,0-8.5,1.44-10.86,4.33-2.37,2.89-4.12,6.92-5.27,12.1h-30.97ZM521.15,192.43c-1,4.74-.9,8.47.32,11.21,1.22,2.74,3.47,4.11,6.78,4.11,3.73,0,7.24-1.18,10.54-3.55,3.3-2.37,5.52-6.66,6.67-12.88,1.15-5.03,2.04-9.18,2.69-12.43.64-3.25,1.25-6.14,1.83-8.66-3.01,1.48-5.63,2.66-7.85,3.55-2.23.89-4.12,1.63-5.7,2.22-1.58.59-2.94,1.11-4.09,1.55-1.15.44-2.15.96-3.01,1.55-2.15,1.48-3.87,3.22-5.16,5.22-1.29,2-2.3,4.7-3.01,8.1Z"/>
      <path class="cls-2" d="M653.22,214.85h-.43c-1,2.08-2.33,4.15-3.98,6.22-1.65,2.07-3.66,3.96-6.02,5.66-2.37,1.7-5.09,3.11-8.17,4.22-3.08,1.11-6.56,1.67-10.43,1.67-8.89,0-15.59-2.59-20.11-7.77-4.52-5.18-6.78-13.76-6.78-25.75,0-8.14,1.15-17.68,3.44-28.64,1.86-9.33,4.01-17.91,6.45-25.75,2.44-7.84,5.45-14.62,9.03-20.32,3.58-5.7,7.88-10.14,12.91-13.32,5.02-3.18,11.11-4.77,18.28-4.77,2.44,0,4.84.26,7.21.78,2.37.52,4.55,1.37,6.56,2.55,2.01,1.19,3.8,2.85,5.38,5,1.58,2.15,2.8,4.77,3.66,7.88h.43l10.32-51.51h34.84l-31.83,158.52h-33.55l2.8-14.65ZM661.61,170.22c1-5.33,1.86-10.29,2.58-14.88.72-4.59,1-8.58.86-11.99-.14-3.4-.86-6.07-2.15-7.99-1.29-1.92-3.46-2.89-6.49-2.89-3.33,0-6.04.85-8.13,2.55-2.1,1.7-3.91,4.15-5.42,7.33-1.52,3.18-2.82,6.99-3.9,11.43-1.09,4.44-2.21,9.4-3.36,14.88-1,4.88-1.87,9.58-2.58,14.1-.72,4.52-.97,8.51-.75,11.99.22,3.48,1,6.29,2.37,8.44,1.36,2.15,3.71,3.22,7.04,3.22,5.2,0,9.21-3.11,12.04-9.32,2.82-6.22,5.46-15.17,7.92-26.86Z"/>
      <path class="cls-2" d="M719.89,109.39h36.13l-2.8,84.14h.43l30.54-84.14h34.84l-55.71,121c-3.56,7.69-6.95,14.02-10.16,18.98-3.21,4.96-6.66,8.84-10.37,11.66-3.7,2.81-7.95,4.77-12.73,5.88-4.79,1.11-10.62,1.67-17.5,1.67h-7.96c-1.15,0-2.33-.04-3.55-.11-1.22-.08-2.4-.19-3.55-.33l5.16-25.31c2.44.59,5.23.89,8.39.89s6.52-.93,9.68-2.77c3.15-1.85,5.73-5.37,7.74-10.55l-8.6-121Z"/>
      <path class="cls-1" d="M847.87,181.1l-1.08,5.55c-.72,3.26-1.08,6.07-1.08,8.44,0,3.85.89,6.92,2.69,9.21,1.79,2.3,5.05,3.44,9.79,3.44,3.15,0,5.88-.55,8.17-1.67,2.29-1.11,4.26-2.55,5.91-4.33,1.65-1.78,2.97-3.81,3.98-6.11,1-2.29,1.72-4.55,2.15-6.77.86-4.29.64-7.8-.65-10.55-1.29-2.74-3.3-5.11-6.02-7.1-2.73-2-5.92-3.74-9.57-5.22-3.66-1.48-7.35-3.11-11.08-4.88-3.73-1.78-7.35-3.81-10.86-6.11-3.52-2.29-6.45-5.22-8.82-8.77-2.37-3.55-4.02-7.88-4.95-12.99-.93-5.11-.68-11.36.75-18.76,1.29-6.36,3.37-12.36,6.24-17.98,2.87-5.62,6.74-10.55,11.62-14.76,4.87-4.22,10.75-7.58,17.64-10.1,6.88-2.51,14.98-3.77,24.31-3.77s16.45,1.11,22.26,3.33c5.81,2.22,10.25,5.29,13.33,9.21,3.08,3.92,4.95,8.51,5.59,13.77.64,5.25.32,10.92-.97,16.98l-.64,3.77h-34.84c1.58-7.99,1.65-13.54.21-16.65-1.29-3.7-4.52-5.55-9.68-5.55-9.61,0-15.56,5.7-17.85,17.09-1.15,5.48-.43,9.81,2.15,12.99,2.58,3.18,6.09,5.88,10.54,8.1,4.44,2.22,9.32,4.41,14.63,6.55,5.3,2.15,10.04,4.96,14.2,8.44,4.16,3.48,7.31,8.07,9.46,13.76,2.15,5.7,2.29,13.21.43,22.54-3.73,18.06-10.94,30.97-21.62,38.74-10.68,7.77-24.34,11.66-40.97,11.66-6.45,0-12.62-.59-18.5-1.78-5.88-1.19-10.86-3.33-14.95-6.44-4.09-3.11-7.03-7.33-8.82-12.65-1.79-5.33-1.83-12.13-.11-20.43l2.15-10.21h34.84Z"/>
      <path class="cls-1" d="M954.12,70.98h34.84l-10.32,51.51h.43c4.01-5.92,8.5-10.1,13.44-12.54s10.43-3.66,16.45-3.66c9.89,0,16.88,2.66,20.97,7.99,4.09,5.33,4.98,13.77,2.69,25.31l-18.07,89.92h-34.84l16.35-81.92c.86-4.29.68-7.66-.54-10.1-1.22-2.44-3.48-3.66-6.77-3.66s-6.49,1.37-9.57,4.11c-3.08,2.74-5.2,7.07-6.34,12.99l-15.7,78.59h-34.84l31.83-158.52Z"/>
      <path class="cls-1" d="M1058.87,109.39h34.84l-24.09,120.11h-34.84l24.09-120.11ZM1067.04,69.21h34.84l-5.59,27.53h-34.84l5.59-27.53Z"/>
      <path class="cls-1" d="M1113.93,109.39h33.55l-3.01,14.65h.43c1-2.07,2.33-4.14,3.98-6.22,1.65-2.07,3.69-3.96,6.13-5.66,2.44-1.7,5.2-3.11,8.28-4.22,3.08-1.11,6.56-1.67,10.43-1.67,8.89,0,15.59,2.59,20.11,7.77,4.52,5.18,6.78,13.76,6.78,25.75,0,8.14-1.15,17.69-3.44,28.64-1.87,9.33-4.02,17.91-6.45,25.75-2.44,7.85-5.45,14.62-9.03,20.31-3.59,5.7-7.92,10.14-13.01,13.32-5.09,3.18-11.15,4.77-18.17,4.77-2.44,0-4.84-.22-7.21-.67-2.37-.44-4.55-1.3-6.56-2.55-2.01-1.26-3.8-2.92-5.38-5-1.58-2.07-2.8-4.74-3.66-7.99h-.43l-10.54,52.17h-34.84l32.05-159.19ZM1136.08,168.67c-1,5.33-1.87,10.29-2.58,14.88-.72,4.59-1,8.59-.86,11.99.14,3.41.86,6.07,2.15,7.99,1.29,1.92,3.44,2.89,6.45,2.89s5.81-.85,7.96-2.55c2.15-1.7,3.98-4.14,5.49-7.33,1.5-3.18,2.8-6.99,3.87-11.43s2.18-9.4,3.33-14.88c1-4.88,1.86-9.58,2.58-14.1.72-4.51.97-8.51.75-11.99-.21-3.48-1.04-6.29-2.47-8.44-1.43-2.14-3.73-3.22-6.88-3.22-5.16,0-9.14,3.11-11.94,9.32s-5.41,15.17-7.85,26.86Z"/>
      <path class="cls-1" d="M1225.56,109.39h33.55l-3.01,14.65h.43c1-2.07,2.33-4.14,3.98-6.22,1.65-2.07,3.69-3.96,6.13-5.66,2.44-1.7,5.2-3.11,8.28-4.22,3.08-1.11,6.56-1.67,10.43-1.67,8.89,0,15.59,2.59,20.11,7.77,4.52,5.18,6.78,13.76,6.78,25.75,0,8.14-1.15,17.69-3.44,28.64-1.87,9.33-4.02,17.91-6.45,25.75-2.44,7.85-5.45,14.62-9.03,20.31-3.59,5.7-7.92,10.14-13.01,13.32-5.09,3.18-11.15,4.77-18.17,4.77-2.44,0-4.84-.22-7.21-.67-2.37-.44-4.55-1.3-6.56-2.55-2.01-1.26-3.8-2.92-5.38-5-1.58-2.07-2.8-4.74-3.66-7.99h-.43l-10.54,52.17h-34.84l32.05-159.19ZM1247.71,168.67c-1,5.33-1.87,10.29-2.58,14.88-.72,4.59-1,8.59-.86,11.99.14,3.41.86,6.07,2.15,7.99,1.29,1.92,3.44,2.89,6.45,2.89s5.81-.85,7.96-2.55c2.15-1.7,3.98-4.14,5.49-7.33,1.5-3.18,2.8-6.99,3.87-11.43s2.18-9.4,3.33-14.88c1-4.88,1.86-9.58,2.58-14.1.72-4.51.97-8.51.75-11.99-.21-3.48-1.04-6.29-2.47-8.44-1.43-2.14-3.73-3.22-6.88-3.22-5.16,0-9.14,3.11-11.94,9.32s-5.41,15.17-7.85,26.86Z"/>
      <path class="cls-1" d="M1354.83,175.33l-1.51,7.33c-1.87,9.33-2.4,16.28-1.61,20.87.79,4.59,3.69,6.88,8.71,6.88,4.59,0,8.1-1.78,10.54-5.33,2.44-3.55,4.66-9.1,6.67-16.65h32.26c-3.3,15.1-9.46,26.24-18.5,33.41-9.03,7.18-20.86,10.77-35.49,10.77-10.9,0-19.14-1.85-24.74-5.55-5.59-3.7-9.36-8.66-11.29-14.88-1.94-6.22-2.51-13.39-1.72-21.54.79-8.14,2.11-16.65,3.98-25.53,1.72-8.44,3.98-16.24,6.78-23.42,2.8-7.18,6.49-13.39,11.08-18.65,4.59-5.25,10.25-9.36,16.99-12.32,6.74-2.96,14.84-4.44,24.31-4.44,10.75,0,18.85,1.67,24.3,5,5.45,3.33,9.1,8.07,10.97,14.21,1.86,6.14,2.33,13.43,1.4,21.87-.93,8.44-2.4,17.76-4.41,27.97h-58.72ZM1384.29,154.46c1.72-8.44,2.26-14.88,1.61-19.32s-3.41-6.66-8.28-6.66c-5.74,0-9.86,2.3-12.37,6.88-2.51,4.59-4.55,10.96-6.13,19.09h25.17Z"/>
      <path class="cls-1" d="M1440.64,109.39h33.55l-3.44,16.87h.43c3.3-5.33,7.64-9.99,13.01-13.99s11.72-5.99,19.04-5.99h2.58c.43,0,.86.04,1.29.11.43.08.93.19,1.5.33l-6.67,33.75c-1.72-.29-3.3-.52-4.73-.67-1.43-.15-3.01-.22-4.73-.22-7.03,0-12.98,1.63-17.85,4.88-4.88,3.26-8.1,8.88-9.68,16.87l-13.55,68.16h-34.84l24.09-120.11Z"/>
    </g>
  </g>
</svg>