<?xml version="1.0" encoding="UTF-8"?>
<svg version="1.1" xmlns="http://www.w3.org/2000/svg" width="724" height="120">
<path d="M0 0 C238.92 0 477.84 0 724 0 C724 39.6 724 79.2 724 120 C485.08 120 246.16 120 0 120 C0 80.4 0 40.8 0 0 Z " fill="#FCFCFC" transform="translate(0,0)"/>
<path d="M0 0 C1.22009766 0.66902344 1.22009766 0.66902344 2.46484375 1.3515625 C14.01221048 8.41815615 22.06414295 18.57600334 26.09765625 31.5234375 C29.86517376 47.39958106 28.19324903 61.88509952 19.75 75.9375 C11.93484193 87.12357389 1.77739771 95.52839485 -11.79760742 98.64038086 C-15.98116823 99.32349638 -20.145086 99.32782578 -24.375 99.3125 C-25.25671875 99.32861328 -26.1384375 99.34472656 -27.046875 99.36132812 C-39.73669853 99.37063151 -51.49681128 94.43907288 -60.8125 85.75 C-71.95783938 73.54449419 -76.43177254 59.02737948 -76.27734375 42.7265625 C-75.22863929 28.63551948 -68.34904833 16.23844455 -58.28515625 6.58984375 C-42.4786129 -6.69674426 -18.23582321 -10.03368438 0 0 Z " fill="#030303" transform="translate(398,14)"/>
<path d="M0 0 C10.02375 -0.0825 20.0475 -0.165 30.375 -0.25 C33.5207959 -0.28641602 36.6665918 -0.32283203 39.90771484 -0.36035156 C42.4254488 -0.37204358 44.94319037 -0.38223419 47.4609375 -0.390625 C49.39223511 -0.4213208 49.39223511 -0.4213208 51.36254883 -0.45263672 C60.13975181 -0.45601062 67.6590667 0.44185795 74.62109375 6.1484375 C83.56967448 17.11766549 85.19556476 27.11074352 84 41 C82.49612452 48.16605726 78.92988831 53.6818866 73 58 C68.49483845 60.36150634 64.00233917 61.21949318 59 62 C62.97216367 68.60162412 67.27804827 74.80991173 71.9375 80.9375 C86 99.43743156 86 99.43743156 86 102 C67.90214025 104.82628082 67.90214025 104.82628082 62.00585938 100.55566406 C58.3541727 96.42964798 55.94495185 91.53438549 53.44677734 86.65673828 C50.95014121 82.07212903 47.86185971 77.91570249 44.8125 73.6875 C43.63732298 72.01963653 42.4640961 70.35039702 41.29296875 68.6796875 C40.73657715 67.88916992 40.18018555 67.09865234 39.60693359 66.28417969 C37.2721818 62.96544104 34.94417096 59.64214324 32.625 56.3125 C31.91601562 55.29800781 31.20703125 54.28351563 30.4765625 53.23828125 C29 51 29 51 29 50 C29.61931396 49.9906543 30.23862793 49.98130859 30.87670898 49.97167969 C33.73106035 49.91740737 36.58387108 49.83387663 39.4375 49.75 C40.89833008 49.72873047 40.89833008 49.72873047 42.38867188 49.70703125 C50.18602681 49.44625015 56.78023263 48.06270555 62.5625 42.5625 C65.00747782 36.50320714 65.28696044 29.53783861 63.03515625 23.34765625 C60.39798959 19.97000144 60.39798959 19.97000144 52 17 C40.78 16.67 29.56 16.34 18 16 C18 44.38 18 72.76 18 102 C12.06 102 6.12 102 0 102 C0 68.34 0 34.68 0 0 Z " fill="#010101" transform="translate(5,10)"/>
<path d="M0 0 C25.41 0 50.82 0 77 0 C77 5.28 77 10.56 77 16 C57.53 16 38.06 16 18 16 C18 24.91 18 33.82 18 43 C37.47 43 56.94 43 77 43 C77 48.28 77 53.56 77 59 C57.53 59 38.06 59 18 59 C18 67.91 18 76.82 18 86 C37.47 86 56.94 86 77 86 C77 91.28 77 96.56 77 102 C51.59 102 26.18 102 0 102 C0 68.34 0 34.68 0 0 Z " fill="#010101" transform="translate(114,10)"/>
<path d="M0 0 C25.41 0 50.82 0 77 0 C77 5.28 77 10.56 77 16 C57.2 16 37.4 16 17 16 C17 24.91 17 33.82 17 43 C36.8 43 56.6 43 77 43 C77 48.28 77 53.56 77 59 C57.2 59 37.4 59 17 59 C17 67.91 17 76.82 17 86 C36.47 86 55.94 86 76 86 C76 91.28 76 96.56 76 102 C50.92 102 25.84 102 0 102 C0 68.34 0 34.68 0 0 Z " fill="#000000" transform="translate(642,10)"/>
<path d="M0 0 C10.0281259 5.88517922 14.53824655 13.14299112 18.6875 23.8125 C20.74531954 34.6628212 19.53580987 44.69121405 13.6875 54.125 C8.6233527 61.18487037 2.00067523 67.36684785 -6.625 69.4375 C-17.98109131 70.56612793 -26.73853547 69.57045919 -35.8125 62.25 C-43.14276925 55.40160104 -48.05536644 47.17816373 -48.90625 37.109375 C-49.23860242 24.31380672 -46.50747338 14.92856047 -37.625 5.4375 C-26.64392121 -3.05673148 -12.97551114 -6.18351355 0 0 Z " fill="#FCFCFC" transform="translate(388.625,27.5625)"/>
<path d="M0 0 C6.27 0 12.54 0 19 0 C23.49991761 8.99983522 23.49991761 8.99983522 25.0871582 13.12060547 C25.44465652 14.04291962 25.80215485 14.96523376 26.17048645 15.91549683 C26.54348373 16.88955475 26.91648102 17.86361267 27.30078125 18.8671875 C27.89997627 20.41758224 27.89997627 20.41758224 28.51127625 21.9992981 C29.78205369 25.28978444 31.04740674 28.58232464 32.3125 31.875 C33.15002317 34.04701673 33.98791077 36.21889297 34.82617188 38.390625 C40.64049085 53.45943852 40.64049085 53.45943852 43.08880615 59.83557129 C44.07124038 62.39387262 45.05676532 64.95096234 46.04296875 67.5078125 C46.33117996 68.26125946 46.61939117 69.01470642 46.91633606 69.79098511 C48.03355091 73.14819675 48.03355091 73.14819675 50 76 C50.41660889 74.90051025 50.83321777 73.80102051 51.26245117 72.66821289 C58.57005227 53.3919933 65.89638462 34.12380382 73.4375 14.9375 C73.71580658 14.22691437 73.99411316 13.51632874 74.28085327 12.78421021 C75.05801296 10.80158911 75.83882166 8.82045231 76.62109375 6.83984375 C77.0586499 5.72988037 77.49620605 4.61991699 77.94702148 3.47631836 C79 1 79 1 80 0 C81.41570123 -0.08651611 82.835595 -0.10704904 84.25390625 -0.09765625 C85.53491211 -0.09282227 85.53491211 -0.09282227 86.84179688 -0.08789062 C88.18854492 -0.07532227 88.18854492 -0.07532227 89.5625 -0.0625 C90.46419922 -0.05798828 91.36589844 -0.05347656 92.29492188 -0.04882812 C94.53001314 -0.03700225 96.76497437 -0.0205222 99 0 C94.81814391 11.2403402 90.52921336 22.43669525 86.193573 33.61853027 C77.37078471 56.37762007 68.66776488 79.18149649 60 102 C53.4 102 46.8 102 40 102 C37.39005887 96.78011773 35.02801332 91.79632237 32.99609375 86.375 C32.72017395 85.65046631 32.44425415 84.92593262 32.15997314 84.17944336 C31.5621474 82.60934913 30.96601909 81.03860774 30.37142944 79.46728516 C28.74175554 75.16195968 27.0985022 70.86184485 25.453125 66.5625 C25.10283737 65.64710449 24.75254974 64.73170898 24.39164734 63.78857422 C21.5964576 56.50614856 18.73933792 49.24927665 15.859375 42 C15.21362267 40.37433105 15.21362267 40.37433105 14.55482483 38.71582031 C12.43240789 33.37742292 10.30429806 28.04134108 8.17163086 22.70703125 C7.38910109 20.74221102 6.60662766 18.77736836 5.82421875 16.8125 C5.46652405 15.92240234 5.10882935 15.03230469 4.74029541 14.11523438 C4.40793884 13.27927734 4.07558228 12.44332031 3.7331543 11.58203125 C3.3013813 10.50272339 3.3013813 10.50272339 2.86088562 9.40161133 C1.75552504 6.31798857 0.89991829 3.14971402 0 0 Z " fill="#020202" transform="translate(521,10)"/>
<path d="M0 0 C6.27 0 12.54 0 19 0 C22.33752499 7.3566572 25.38438514 14.80882072 28.375 22.3125 C28.62690094 22.94264008 28.87880188 23.57278015 29.13833618 24.22201538 C32.42452362 32.44331304 35.66320828 40.68230366 38.86328125 48.9375 C39.18300903 49.76203171 39.50273682 50.58656342 39.83215332 51.43608093 C41.40686259 55.4996557 42.97738907 59.56479139 44.54248047 63.63208008 C45.11552336 65.11541125 45.68860102 66.59872899 46.26171875 68.08203125 C46.52471268 68.76914185 46.7877066 69.45625244 47.05867004 70.16418457 C48.1265016 73.32217412 48.1265016 73.32217412 50 76 C50.33451172 75.10095947 50.66902344 74.20191895 51.01367188 73.27563477 C55.060817 62.42657791 59.20973971 51.61795759 63.38623047 40.81811523 C64.49962482 37.93847036 65.61121514 35.0581336 66.72265625 32.17773438 C69.94338524 23.83805299 73.17278257 15.50169345 76.46875 7.19140625 C76.93732422 6.00877197 77.40589844 4.8261377 77.88867188 3.60766602 C79 1 79 1 80 0 C81.41570123 -0.08651611 82.835595 -0.10704904 84.25390625 -0.09765625 C85.53491211 -0.09282227 85.53491211 -0.09282227 86.84179688 -0.08789062 C88.18854492 -0.07532227 88.18854492 -0.07532227 89.5625 -0.0625 C90.46419922 -0.05798828 91.36589844 -0.05347656 92.29492188 -0.04882812 C94.53001314 -0.03700225 96.76497437 -0.0205222 99 0 C98.68699951 0.81223022 98.68699951 0.81223022 98.36767578 1.64086914 C85.49303634 35.06108858 72.66388131 68.49929194 60 102 C53.07 102 46.14 102 39 102 C38.18402344 99.80601563 37.36804688 97.61203125 36.52734375 95.3515625 C33.01626309 85.96338495 29.36822608 76.62965407 25.70892334 67.29846191 C24.5379557 64.31241028 23.36873333 61.32567932 22.19970703 58.33886719 C18.31657261 48.42339748 14.41714754 38.51462925 10.48828125 28.6171875 C10.13659378 27.73030243 9.78490631 26.84341736 9.42256165 25.92965698 C7.75940501 21.73571167 6.09299171 17.54312559 4.42016602 13.35302734 C3.82945096 11.86561505 3.23886683 10.37815074 2.6484375 8.890625 C2.37747757 8.21579071 2.10651764 7.54095642 1.8273468 6.84567261 C0 2.22709211 0 2.22709211 0 0 Z " fill="#020202" transform="translate(211,10)"/>
<path d="M0 0 C6.27 0 12.54 0 19 0 C19 28.05 19 56.1 19 85 C36.82 85 54.64 85 73 85 C73 90.61 73 96.22 73 102 C48.91 102 24.82 102 0 102 C0 68.34 0 34.68 0 0 Z " fill="#020202" transform="translate(451,10)"/>
<path d="M0 0 C0.66 0.33 1.32 0.66 2 1 C-1.3 4.3 -4.6 7.6 -8 11 C-8 7.0234755 -6.61988497 5.9109833 -4 3 C-1.75 1.1875 -1.75 1.1875 0 0 Z " fill="#E0E0E0" transform="translate(355,30)"/>
</svg>
